<svg xmlns="http://www.w3.org/2000/svg" width="644.309" height="623.614" viewBox="0 0 644.309 623.614">
  <g id="cardImageBack" transform="translate(-142 -1061)">
    <path id="Path_1682" data-name="Path 1682" d="M413.65-2377.728c21.626-34.779,105.937-195.406,331.052-141.491,23.647,9.459,98.37,23.647,122.017,144.717,13.242,42.564,20.809,92.695,72.831,135.259,31.214,21.755,157.959,122.962,7.567,246.87-32.159,22.7-111.612,80.4-305.514,80.4-36.889-2.838-168.793-15.84-236.895-166.232-.259-.706-40.469-82.661-27.123-184.7C382.321-2290.456,392.025-2342.95,413.65-2377.728Z" transform="translate(-232.872 3594.731)" fill="#616161" opacity="0.58"/>
    <path id="Path_1681" data-name="Path 1681" d="M506.5-2392.765s-120.332,24.627-116.974,202.606c3.358,30.782,13.432,150.554,142.16,234.507,20.708,10.634,90.109,57.647,226.112,41.417,20.149-2.8,137.122-25.745,189.173-97.385,14.552-19.589,58.207-74.437,61.565-196.448-1.679-39.178-5.037-137.123-52.05-233.388-19.589-30.223-85.632-137.122-204.284-72.759-20.129,10.481-45.036,40.937-47.188,43.521-9.515,8.955-40.682,43.79-102.807,57.222C548.476-2402.839,506.5-2392.765,506.5-2392.765Z" transform="translate(-234.33 3595.475)" fill="#497a95" opacity="0.4"/>
  </g>
</svg>
