<?xml version="1.0" encoding="utf-8"?>
<!-- Generator: Adobe Illustrator 22.0.0, SVG Export Plug-In . SVG Version: 6.00 Build 0)  -->
<svg version="1.1" xmlns="http://www.w3.org/2000/svg" xmlns:xlink="http://www.w3.org/1999/xlink" x="0px" y="0px"
    viewBox="0 0 752 612.1" style="enable-background:new 0 0 752 612.1;" xml:space="preserve">
    <style type="text/css">
        .st0 {
            display: none;
        }

        .st1 {
            opacity: 0.61;
            fill: url(#SVGID_1_);
        }

        .st2 {
            enable-background: new;
        }

        .st3 {
            fill: #FFFFFF;
        }

        .st4 {
            fill: #003E60;
        }

        .st5 {
            fill: url(#SVGID_2_);
        }

        .st6 {
            fill: url(#SVGID_3_);
        }

        .st7 {
            fill: url(#SVGID_4_);
        }

        .st8 {
            fill: url(#SVGID_5_);
        }

        .st9 {
            opacity: 0.61;
            fill: url(#SVGID_6_);
        }

        .st10 {
            opacity: 0.61;
            fill: url(#SVGID_7_);
        }

        .st11 {
            opacity: 0.61;
            fill: url(#SVGID_8_);
        }

        .st12 {
            opacity: 0.61;
            fill: url(#SVGID_9_);
        }

        .st13 {
            fill: url(#SVGID_10_);
        }

        .st14 {
            fill: url(#SVGID_11_);
        }

        .st15 {
            fill: url(#SVGID_12_);
        }

        .st16 {
            fill: url(#SVGID_13_);
        }

        .st17 {
            fill: url(#SVGID_14_);
        }

        .st18 {
            fill: url(#SVGID_15_);
        }

        .st19 {
            fill: url(#SVGID_16_);
        }

        .st20 {
            fill: url(#SVGID_17_);
        }

        .st21 {
            fill: url(#SVGID_18_);
        }

        .st22 {
            fill: url(#SVGID_19_);
        }

        .st23 {
            fill: url(#SVGID_20_);
        }

        .st24 {
            fill: url(#SVGID_21_);
        }
    </style>
    <g id="BACKGROUND" class="st0">
    </g>
    <g id="OBJECTS">
        <g>
            <g>
                <g>

                    <linearGradient id="SVGID_1_" gradientUnits="userSpaceOnUse" x1="353.4669" y1="192.2728"
                        x2="291.4814" y2="296.169" gradientTransform="matrix(1 0 0 -1 0 685.3313)">
                        <stop offset="0.4335" style="stop-color:#A0A7A9" />
                        <stop offset="0.4838" style="stop-color:#B8BDBF" />
                        <stop offset="0.5526" style="stop-color:#D2D5D6" />
                        <stop offset="0.6289" style="stop-color:#E6E8E8" />
                        <stop offset="0.7155" style="stop-color:#F4F5F5" />
                        <stop offset="0.8211" style="stop-color:#FDFDFD" />
                        <stop offset="1" style="stop-color:#FFFFFF" />
                    </linearGradient>
                    <ellipse class="st1" cx="322.5" cy="441.1" rx="116.3" ry="12.1" />
                    <g>
                        <g class="st2">
                            <g>
                                <path class="st3" d="M500.1,356.5c7.1-3.8,14.1-7.7,21.2-11.5c3.3-10.6,5-22.2,5-34.4c0-9.1-1-18.2-2.9-26.9
								c-7.1,3.8-14.1,7.7-21.2,11.5c1.9,8.8,2.9,17.8,2.9,26.9C505.1,334.3,503.4,345.9,500.1,356.5z" />
                            </g>
                            <g>
                                <path class="st3" d="M502.2,295.1c7.1-3.8,14.1-7.7,21.2-11.5c-11.2-52.4-53.7-96.3-104.1-103.4l-21.2,11.5
								C448.5,198.8,491,242.7,502.2,295.1z" />
                            </g>
                            <g>
                                <path class="st3" d="M500.1,356.5c-4.2,13.5-10.8,25.5-19.3,35.4c7.1-3.8,14.1-7.7,21.2-11.5c8.5-10,15.1-21.9,19.3-35.4
								c-6.5,3.5-12.9,7-19.4,10.6c-0.3,0.2-0.6,0.3-0.9,0.5c-0.1,0-0.2,0.1-0.2,0.1c0,0-0.1,0-0.1,0.1c-0.1,0-0.2,0.1-0.2,0.1
								c-0.1,0-0.2,0.1-0.2,0.1C500.2,356.4,500.1,356.4,500.1,356.5z" />
                            </g>
                            <g>
                                <path class="st3" d="M366.2,238.9c9.5-4.3,20.4-5.9,32-4.3l21.2-11.5c-11.6-1.6-22.5,0-32,4.3
								C380.3,231.2,373.3,235,366.2,238.9z" />
                            </g>
                            <g>
                                <path class="st3" d="M341.1,201.5c16.5-9,36-12.8,57-9.8l21.2-11.5c-21-2.9-40.5,0.8-57,9.8
								C355.9,193.5,347.5,198.1,341.1,201.5z" />
                            </g>
                            <g>
                                <path class="st4"
                                    d="M371.2,206.4L350,217.9c13.9-7.6,30.4-10.8,48.2-8.3l21.2-11.5C401.6,195.6,385.1,198.8,371.2,206.4z" />
                            </g>
                            <g>
                                <path class="st4" d="M446.6,396.2l21.2-11.5c25.2-13.7,42-41.8,41.9-76.4c-0.1-53.7-40.7-103.1-90.4-110.1l-21.2,11.5
								c49.8,7,90.3,56.4,90.4,110.1C488.6,354.3,471.9,382.4,446.6,396.2z" />
                            </g>
                            <g>
                                <path class="st3" d="M465.4,316.5c0,25.7-12.4,46.6-31.2,56.8l21.2-11.5c18.8-10.2,31.2-31.1,31.2-56.8
								c-0.1-39.9-30.2-76.7-67.2-81.9l-21.2,11.5C435.2,239.8,465.3,276.5,465.4,316.5z" />
                            </g>
                            <g>
                                <path class="st4"
                                    d="M392.4,245.6l-21.2,11.5c7.8-4.2,17-6,27-4.6l21.2-11.5C409.5,239.5,400.2,241.3,392.4,245.6z" />
                            </g>
                            <g>
                                <path class="st3" d="M362.3,240.8c1.3-0.7,2.6-1.3,3.9-1.9c7.1-3.8,14.1-7.7,21.2-11.5c-1.3,0.6-2.6,1.2-3.9,1.9
								C377.2,232.7,368.7,237.3,362.3,240.8z" />
                            </g>
                            <g>
                                <path class="st3" d="M385.6,283.6c3.7-2,8-2.8,12.7-2.2l21.2-11.5c-4.7-0.7-9,0.2-12.7,2.2
								C400.4,275.6,392,280.2,385.6,283.6z" />
                            </g>
                            <g>
                                <path class="st3" d="M422,310.4c0,9.1-4.4,16.5-11,20.1l21.2-11.5c6.6-3.6,11-11,11-20.1c0-14.1-10.7-27.1-23.7-28.9
								l-21.2,11.5C411.3,283.3,422,296.2,422,310.4z" />
                            </g>
                            <g>
                                <path class="st4" d="M425.4,356.9l21.2-11.5c14.1-7.7,23.5-23.4,23.5-42.8c-0.1-30.1-22.8-57.7-50.6-61.7l-21.2,11.5
								c27.9,3.9,50.6,31.6,50.6,61.7C448.9,333.5,439.5,349.2,425.4,356.9z" />
                            </g>
                            <g>
                                <path class="st3" d="M480.9,391.9c-7.2,8.4-15.8,15.4-25.4,20.6l21.2-11.5c9.6-5.2,18.2-12.2,25.4-20.6
								c-3.5,1.9-7.1,3.8-10.6,5.8c-1.8,1-3.7,2-5.5,3c-0.4,0.2-0.9,0.5-1.3,0.7c-0.4,0.2-0.9,0.5-1.3,0.7
								C482.6,390.9,481.5,391.4,480.9,391.9z" />
                            </g>
                            <g>
                                <path class="st4"
                                    d="M411,330.4l21.2-11.5c-3.7,2-8,2.8-12.7,2.2l-21.2,11.5C403,333.2,407.3,332.4,411,330.4z" />
                            </g>
                            <g>
                                <path class="st4" d="M406.8,272.1l-21.2,11.5c-6.6,3.6-11,11-11,20.1c0,14.1,10.7,27.1,23.7,28.9l21.2-11.5
								c-13.1-1.8-23.7-14.8-23.7-28.9C395.8,283.1,400.2,275.7,406.8,272.1z" />
                            </g>
                            <g>
                                <path class="st3" d="M398.4,361.6c9.9,1.4,19.1-0.4,26.9-4.6l21.2-11.5c-7.8,4.2-17,6-26.9,4.6
								C413.2,353.5,404.8,358.1,398.4,361.6z" />
                            </g>
                            <g>
                                <path class="st3" d="M371.3,257.1c-8.7,4.7-15.5,12.4-19.6,22.1c7.1-3.8,14.1-7.7,21.2-11.5c4-9.7,10.9-17.4,19.6-22.1
								C386.1,249,377.6,253.6,371.3,257.1z" />
                            </g>
                            <g>
                                <path class="st4"
                                    d="M434.2,373.3l21.2-11.5c-10.4,5.6-22.6,8-35.8,6.2l-21.2,11.5C411.6,381.3,423.9,378.9,434.2,373.3z" />
                            </g>
                            <g>
                                <path class="st3" d="M398.5,404.5c17.7,2.5,34.2-0.7,48.1-8.3l21.2-11.5c-13.9,7.6-30.4,10.8-48.1,8.3
								C413.3,396.4,404.8,401,398.5,404.5z" />
                            </g>
                            <g>
                                <path class="st3" d="M350,217.9c-15.5,8.4-27.7,22.2-34.9,39.5c7.1-3.8,14.1-7.7,21.2-11.5c7.2-17.4,19.5-31.1,34.9-39.5
								C364.8,209.8,356.4,214.4,350,217.9z" />
                            </g>
                            <g>
                                <path class="st3" d="M347.7,299.9c0.1,30.1,22.8,57.7,50.6,61.7l21.2-11.5c-27.9-3.9-50.6-31.6-50.6-61.7
								c0-7.5,1.4-14.5,4-20.7c-7.1,3.8-14.1,7.7-21.2,11.5C349.1,285.4,347.7,292.4,347.7,299.9z" />
                            </g>
                            <g>
                                <path class="st3" d="M369,288.4c-0.1-30.1,22.6-51.4,50.4-47.5c27.9,3.9,50.6,31.6,50.6,61.7c0.1,30.1-22.6,51.4-50.4,47.5
								C391.7,346.1,369,318.5,369,288.4z M419.5,269.9c-13.1-1.8-23.7,8.1-23.6,22.2c0,14.1,10.7,27.1,23.7,28.9
								c13.1,1.8,23.7-8.1,23.6-22.2C443.2,284.7,432.5,271.8,419.5,269.9" />
                            </g>
                            <g>
                                <path class="st4" d="M383.6,229.2l-21.2,11.5c-18.8,10.2-31.2,31.1-31.2,56.8c0.1,39.9,30.2,76.7,67.3,81.9l21.2-11.5
								c-37-5.2-67.2-41.9-67.3-81.9C352.3,260.3,364.8,239.4,383.6,229.2z" />
                            </g>
                            <g>

                                <linearGradient id="SVGID_2_" gradientUnits="userSpaceOnUse" x1="530.5845" y1="203.6523"
                                    x2="335.6789" y2="530.3411" gradientTransform="matrix(1 0 0 -1 0 685.3313)">
                                    <stop offset="1.400000e-07" style="stop-color:#7A65FF" />
                                    <stop offset="0.2028" style="stop-color:#7262FF" />
                                    <stop offset="0.5123" style="stop-color:#5D58FF" />
                                    <stop offset="0.8881" style="stop-color:#3B48FF" />
                                    <stop offset="1" style="stop-color:#2F43FF" />
                                </linearGradient>
                                <path class="st5" d="M352.4,286.1c-0.1-39.9,30-68.2,67-63c37,5.2,67.2,41.9,67.2,81.9c0.1,39.9-30,68.2-67,63
								C382.6,362.7,352.5,326,352.4,286.1z M419.4,240.9c-27.9-3.9-50.5,17.4-50.4,47.5c0.1,30.1,22.8,57.7,50.6,61.7
								c27.9,3.9,50.5-17.4,50.4-47.5C470,272.5,447.3,244.8,419.4,240.9" />
                            </g>
                            <g>
                                <path class="st3" d="M308,294.3c0.1,53.7,40.7,103.1,90.4,110.1l21.2-11.5c-49.8-7-90.3-56.4-90.4-110.1
								c0-13.5,2.5-25.9,7.1-36.9c-7.1,3.8-14.1,7.7-21.2,11.5C310.5,268.4,308,280.9,308,294.3z" />
                            </g>
                            <g>
                                <path class="st4"
                                    d="M455.5,412.5l21.2-11.5c-16.5,9-36,12.8-57,9.8l-21.2,11.5C419.5,425.3,439,421.5,455.5,412.5z" />
                            </g>
                            <g>
                                <path class="st4" d="M362.3,190l-21.2,11.5c-29.9,16.3-49.7,49.5-49.6,90.5c0.1,63.6,48.1,122,107,130.3l21.2-11.5
								c-58.9-8.3-106.9-66.7-107-130.3C312.6,239.5,332.4,206.3,362.3,190z" />
                            </g>
                            <g>
                                <path class="st3" d="M290.1,277.3c-0.1-77.1,57.7-131.5,129.1-121.5c71.5,10,129.5,80.7,129.6,157.8
								c0.1,77.1-57.7,131.5-129.1,121.5C348.3,425.1,290.3,354.4,290.1,277.3z M419.3,180.2c-58.9-8.3-106.7,36.7-106.6,100.3
								s48.1,122,107,130.3c58.9,8.3,106.7-36.7,106.6-100.3S478.2,188.5,419.3,180.2" />
                            </g>
                            <g>
                                <path class="st3" d="M329.2,282.8c-0.1-53.7,40.3-91.7,90.1-84.7c49.8,7,90.3,56.4,90.4,110.1c0.1,53.7-40.3,91.7-90.1,84.7
								C369.9,385.9,329.3,336.5,329.2,282.8z M419.4,223.1c-37-5.2-67.1,23.1-67,63c0.1,39.9,30.2,76.7,67.3,81.9
								c37,5.2,67-23.1,67-63C486.5,265,456.4,228.3,419.4,223.1" />
                            </g>
                            <g>

                                <linearGradient id="SVGID_3_" gradientUnits="userSpaceOnUse" x1="530.5858" y1="203.6531"
                                    x2="335.6809" y2="530.3405" gradientTransform="matrix(1 0 0 -1 0 685.3313)">
                                    <stop offset="1.400000e-07" style="stop-color:#7A65FF" />
                                    <stop offset="0.2028" style="stop-color:#7262FF" />
                                    <stop offset="0.5123" style="stop-color:#5D58FF" />
                                    <stop offset="0.8881" style="stop-color:#3B48FF" />
                                    <stop offset="1" style="stop-color:#2F43FF" />
                                </linearGradient>
                                <path class="st6" d="M509.4,246c-1.9-3.4-3.9-6.7-6-9.9c-1.6-2.4-3.3-4.8-5-7c-2.3-3.1-4.7-6-7.3-8.8
								c-1.3-1.4-2.6-2.8-3.9-4.2c-18.5-19.1-42.2-32.3-68-35.9c-3.7-0.5-7.3-0.8-10.9-0.9c-1.8-0.1-3.6-0.1-5.3,0
								c-0.9,0-1.8,0.1-2.6,0.1c-3.5,0.2-6.9,0.6-10.3,1.1c-1.7,0.3-3.4,0.6-5,1c-1.7,0.4-3.3,0.8-4.9,1.3c-1.6,0.5-3.2,1-4.8,1.5
								c-8.7,3-16.7,7.3-24,12.8c-0.7,0.5-1.3,1-2,1.5c-9.7,7.7-17.8,17.5-24,28.9c-0.4,0.8-0.8,1.5-1.2,2.3
								c-2.7,5.4-5,11.2-6.9,17.2c-0.3,0.9-0.5,1.7-0.7,2.6c-0.5,1.8-0.9,3.5-1.3,5.3c-1.8,8.1-2.7,16.7-2.7,25.6
								c0,5,0.3,9.9,0.9,14.8c0.5,3.9,1.1,7.8,1.9,11.6c0.2,1,0.4,1.9,0.6,2.9c1.6,6.7,3.6,13.2,6.1,19.5c1.4,3.6,3,7.1,4.7,10.6
								c0.9,1.7,1.8,3.4,2.7,5.1c5.1,9.3,11.3,18,18.2,25.8c19,21.3,44.2,36.2,71.9,40.1c13.6,1.9,26.5,1,38.5-2.3
								c0.5-0.1,0.9-0.3,1.4-0.4c1.1-0.3,2.2-0.7,3.3-1c0.5-0.2,0.9-0.3,1.4-0.5c1.1-0.4,2.3-0.8,3.4-1.3c0.5-0.2,1.1-0.5,1.6-0.7
								c4.7-2,9.2-4.4,13.5-7.2c2.9-1.9,5.7-4,8.4-6.2c0.2-0.2,0.4-0.3,0.6-0.5c1.1-1,2.2-1.9,3.3-2.9c0.1-0.1,0.1-0.1,0.2-0.2
								c1.2-1.1,2.3-2.3,3.5-3.5c2.9-3,5.6-6.2,8-9.7c3-4.1,5.7-8.5,8-13.1c2.4-4.6,4.4-9.5,6.1-14.7c0.6-1.7,1.1-3.4,1.6-5.2
								c0.2-0.9,0.5-1.8,0.7-2.7c0.4-1.6,0.7-3.2,1.1-4.8c0.2-1.1,0.4-2.2,0.6-3.3c0.5-2.8,0.8-5.6,1.1-8.5
								c0.4-3.8,0.5-7.7,0.5-11.7c0-10.9-1.5-21.7-4.1-32.1c-0.2-0.9-0.5-1.9-0.8-2.8c-0.5-1.9-1.1-3.7-1.7-5.6
								c-0.3-0.9-0.6-1.8-0.9-2.8c-0.6-1.8-1.3-3.7-2-5.5c-1.4-3.6-3-7.1-4.7-10.6C511.2,249.4,510.3,247.7,509.4,246z M419.3,198.1
								c49.8,7,90.3,56.4,90.4,110.1c0.1,53.7-40.3,91.7-90.1,84.7c-49.8-7-90.3-56.4-90.4-110.1
								C329.1,229.1,369.5,191.1,419.3,198.1" />
                            </g>
                            <g>

                                <linearGradient id="SVGID_4_" gradientUnits="userSpaceOnUse" x1="530.5858" y1="203.6533"
                                    x2="335.6805" y2="530.3416" gradientTransform="matrix(1 0 0 -1 0 685.3313)">
                                    <stop offset="1.400000e-07" style="stop-color:#7A65FF" />
                                    <stop offset="0.2028" style="stop-color:#003E60" />
                                    <stop offset="0.5123" style="stop-color:#5D58FF" />
                                    <stop offset="0.8881" style="stop-color:#3B48FF" />
                                    <stop offset="1" style="stop-color:#2F43FF" />
                                </linearGradient>
                                <path class="st7" d="M415.8,269.7c1.2,0,2.4,0,3.6,0.2c13.1,1.8,23.7,14.8,23.7,28.9c0,10.1-5.4,18.1-13.4,21.2
								c-0.7,0.3-1.4,0.5-2.1,0.7c-1.5,0.4-3,0.6-4.5,0.6c-1.2,0-2.4,0-3.6-0.2c-2-0.3-4-0.8-5.9-1.6c-0.8-0.3-1.5-0.7-2.2-1.1
								c-0.4-0.2-0.7-0.4-1.1-0.6c-1.8-1.1-3.4-2.3-5-3.8c-0.3-0.3-0.6-0.6-0.9-0.9c-0.6-0.6-1.1-1.2-1.7-1.9c-0.8-1-1.6-2-2.2-3.1
								c-1.1-1.8-2.1-3.7-2.9-5.7c-0.3-0.8-0.6-1.6-0.8-2.5c-0.2-0.8-0.4-1.7-0.6-2.5c-0.3-1.7-0.5-3.5-0.5-5.2c0-0.9,0-1.7,0.1-2.6
								c0.1-0.8,0.2-1.7,0.4-2.5c0.1-0.4,0.2-0.8,0.3-1.2c0.6-2.4,1.5-4.5,2.7-6.5c0.4-0.6,0.8-1.3,1.3-1.9
								C404.1,272.8,409.6,269.9,415.8,269.7z" />
                            </g>

                            <linearGradient id="SVGID_5_" gradientUnits="userSpaceOnUse" x1="472.0079" y1="171.1594"
                                x2="262.1527" y2="511.1364" gradientTransform="matrix(1 0 0 -1 0 685.3313)">
                                <stop offset="0" style="stop-color:#FFFFFF" />
                                <stop offset="5.721179e-02" style="stop-color:#F4F6F7" />
                                <stop offset="0.1575" style="stop-color:#D7DEE2" />
                                <stop offset="0.2804" style="stop-color:#ABB9C3" />
                                <stop offset="0.6117" style="stop-color:#F0EEF0" />
                                <stop offset="0.7295" style="stop-color:#ECEBEE" />
                                <stop offset="0.8362" style="stop-color:#E1E3E7" />
                                <stop offset="0.9384" style="stop-color:#CFD5DB" />
                                <stop offset="1" style="stop-color:#C0C9D1" />
                            </linearGradient>
                            <path class="st8" d="M467.7,434.8c-20,10.9-43.7,15.5-69.1,11.9c-71.5-10-129.5-80.7-129.6-157.8
							c-0.1-49.7,23.9-89.9,60-109.6l21.2-11.5c-36.2,19.7-60.1,59.9-60,109.6c0.1,77.1,58.2,147.8,129.6,157.8
							c25.4,3.6,49.1-1,69.1-11.9L467.7,434.8z" />
                        </g>
                    </g>
                </g>
                <linearGradient id="SVGID_6_" gradientUnits="userSpaceOnUse" x1="450.2785" y1="327.8623" x2="486.6219"
                    y2="330.1338">
                    <stop offset="0.4279" style="stop-color:#6D7274" />
                    <stop offset="0.4349" style="stop-color:#737779" />
                    <stop offset="0.4875" style="stop-color:#989B9D" />
                    <stop offset="0.5444" style="stop-color:#B8BABB" />
                    <stop offset="0.6057" style="stop-color:#D2D3D4" />
                    <stop offset="0.6729" style="stop-color:#E6E7E7" />
                    <stop offset="0.7492" style="stop-color:#F4F5F5" />
                    <stop offset="0.8423" style="stop-color:#FDFDFD" />
                    <stop offset="1" style="stop-color:#FFFFFF" />
                </linearGradient>
                <path class="st9" d="M486.8,328.6c0-2.3-10.9-4.1-24.4-4.1c-13.5,0-24.4,1.9-24.4,4.1c0,2.3,10.9,4.1,24.4,4.1
				C475.9,332.8,486.8,330.9,486.8,328.6z" />
                <linearGradient id="SVGID_7_" gradientUnits="userSpaceOnUse" x1="386.3474" y1="274.9411" x2="422.6907"
                    y2="277.2125">
                    <stop offset="0.4279" style="stop-color:#6D7274" />
                    <stop offset="0.4349" style="stop-color:#737779" />
                    <stop offset="0.4875" style="stop-color:#989B9D" />
                    <stop offset="0.5444" style="stop-color:#B8BABB" />
                    <stop offset="0.6057" style="stop-color:#D2D3D4" />
                    <stop offset="0.6729" style="stop-color:#E6E7E7" />
                    <stop offset="0.7492" style="stop-color:#F4F5F5" />
                    <stop offset="0.8423" style="stop-color:#FDFDFD" />
                    <stop offset="1" style="stop-color:#FFFFFF" />
                </linearGradient>
                <ellipse class="st10" cx="398.5" cy="275.7" rx="24.4" ry="4.1" />
                <linearGradient id="SVGID_8_" gradientUnits="userSpaceOnUse" x1="414.7624" y1="223.7274" x2="451.1057"
                    y2="225.9989">
                    <stop offset="0.4279" style="stop-color:#6D7274" />
                    <stop offset="0.4349" style="stop-color:#737779" />
                    <stop offset="0.4875" style="stop-color:#989B9D" />
                    <stop offset="0.5444" style="stop-color:#B8BABB" />
                    <stop offset="0.6057" style="stop-color:#D2D3D4" />
                    <stop offset="0.6729" style="stop-color:#E6E7E7" />
                    <stop offset="0.7492" style="stop-color:#F4F5F5" />
                    <stop offset="0.8423" style="stop-color:#FDFDFD" />
                    <stop offset="1" style="stop-color:#FFFFFF" />
                </linearGradient>
                <path class="st11" d="M451.3,224.5c0-2.3-10.9-4.1-24.4-4.1c-13.5,0-24.4,1.9-24.4,4.1c0,2.3,10.9,4.1,24.4,4.1
				C440.4,228.6,451.3,226.8,451.3,224.5z" />
                <linearGradient id="SVGID_9_" gradientUnits="userSpaceOnUse" x1="420.0433" y1="400.2149" x2="456.3866"
                    y2="402.4864">
                    <stop offset="0.4279" style="stop-color:#6D7274" />
                    <stop offset="0.4349" style="stop-color:#737779" />
                    <stop offset="0.4875" style="stop-color:#989B9D" />
                    <stop offset="0.5444" style="stop-color:#B8BABB" />
                    <stop offset="0.6057" style="stop-color:#D2D3D4" />
                    <stop offset="0.6729" style="stop-color:#E6E7E7" />
                    <stop offset="0.7492" style="stop-color:#F4F5F5" />
                    <stop offset="0.8423" style="stop-color:#FDFDFD" />
                    <stop offset="1" style="stop-color:#FFFFFF" />
                </linearGradient>
                <path class="st12" d="M456.6,401c0-2.3-10.9-4.1-24.4-4.1c-13.5,0-24.4,1.9-24.4,4.1c0,2.3,10.9,4.1,24.4,4.1
				C445.7,405.1,456.6,403.3,456.6,401z" />
                <g>

                    <linearGradient id="SVGID_10_" gradientUnits="userSpaceOnUse" x1="-64.6851" y1="732.5672"
                        x2="-80.8211" y2="731.5587"
                        gradientTransform="matrix(-0.3146 -0.9492 0.9492 -0.3146 -182.9404 329.8106)">
                        <stop offset="1.400000e-07" style="stop-color:#FF5B91" />
                        <stop offset="0.2552" style="stop-color:#FF5398" />
                        <stop offset="0.6436" style="stop-color:#FF3EAC" />
                        <stop offset="1" style="stop-color:#FF25C3" />
                    </linearGradient>
                    <path class="st13" d="M521.2,181.2l7.2-14.9c0.5-1.1,1.5-1.9,2.6-2.3l19.8-6.6c3.9-1.3,7.4,2.9,5.4,6.5l-7.9,14.2l-32.3,10.7
					L521.2,181.2z" />

                    <linearGradient id="SVGID_11_" gradientUnits="userSpaceOnUse" x1="302.6958" y1="731.8457"
                        x2="286.5569" y2="730.837"
                        gradientTransform="matrix(0.3146 0.9492 0.9492 -0.3146 -243.5641 144.6071)">
                        <stop offset="1.400000e-07" style="stop-color:#FF5B91" />
                        <stop offset="0.2552" style="stop-color:#FF5398" />
                        <stop offset="0.6436" style="stop-color:#FF3EAC" />
                        <stop offset="1" style="stop-color:#FF25C3" />
                    </linearGradient>
                    <path class="st14" d="M524.9,192.1l14.7,7.6c1.1,0.6,2.3,0.7,3.5,0.3l19.8-6.6c3.9-1.3,4.2-6.7,0.4-8.4l-14.8-6.7L516.2,189
					L524.9,192.1z" />

                    <linearGradient id="SVGID_12_" gradientUnits="userSpaceOnUse" x1="-90.7327" y1="664.8648"
                        x2="-80.6096" y2="664.8648"
                        gradientTransform="matrix(-0.3146 -0.9492 0.9492 -0.3146 -182.9404 329.8106)">
                        <stop offset="0" style="stop-color:#FFFFFF" />
                        <stop offset="5.721179e-02" style="stop-color:#F4F6F7" />
                        <stop offset="0.1575" style="stop-color:#D7DEE2" />
                        <stop offset="0.2804" style="stop-color:#ABB9C3" />
                        <stop offset="0.6117" style="stop-color:#F0EEF0" />
                        <stop offset="0.7295" style="stop-color:#ECEBEE" />
                        <stop offset="0.8362" style="stop-color:#E1E3E7" />
                        <stop offset="0.9384" style="stop-color:#CFD5DB" />
                        <stop offset="1" style="stop-color:#C0C9D1" />
                    </linearGradient>
                    <path class="st15" d="M401.6,225.2c8.5,0.8,14.2-0.6,14.2-0.6l132.4-41.5c1-0.3,1.1-2.5,0.3-4.9c-0.8-2.4-2.2-4.1-3.2-3.7
					L413.8,217C403.9,221,401.6,225.2,401.6,225.2z" />
                </g>
                <g>

                    <linearGradient id="SVGID_13_" gradientUnits="userSpaceOnUse" x1="-103.7558" y1="690.6968"
                        x2="-119.8918" y2="689.6883"
                        gradientTransform="matrix(-0.3146 -0.9492 0.9492 -0.3146 -182.9404 329.8106)">
                        <stop offset="1.400000e-07" style="stop-color:#7A65FF" />
                        <stop offset="0.2028" style="stop-color:#7262FF" />
                        <stop offset="0.5123" style="stop-color:#5D58FF" />
                        <stop offset="0.8881" style="stop-color:#3B48FF" />
                        <stop offset="1" style="stop-color:#2F43FF" />
                    </linearGradient>
                    <path class="st16" d="M493.8,231.5l7.2-14.9c0.5-1.1,1.5-1.9,2.6-2.3l19.8-6.6c3.9-1.3,7.4,2.9,5.4,6.5l-7.9,14.2l-32.3,10.7
					L493.8,231.5z" />

                    <linearGradient id="SVGID_14_" gradientUnits="userSpaceOnUse" x1="341.7665" y1="689.9753"
                        x2="325.6277" y2="688.9667"
                        gradientTransform="matrix(0.3146 0.9492 0.9492 -0.3146 -243.5641 144.6071)">
                        <stop offset="1.400000e-07" style="stop-color:#7A65FF" />
                        <stop offset="0.2028" style="stop-color:#7262FF" />
                        <stop offset="0.5123" style="stop-color:#5D58FF" />
                        <stop offset="0.8881" style="stop-color:#3B48FF" />
                        <stop offset="1" style="stop-color:#2F43FF" />
                    </linearGradient>
                    <path class="st17" d="M497.4,242.4l14.7,7.6c1.1,0.6,2.3,0.7,3.5,0.3l19.8-6.6c3.9-1.3,4.2-6.7,0.4-8.4l-14.8-6.7l-32.3,10.7
					L497.4,242.4z" />

                    <linearGradient id="SVGID_15_" gradientUnits="userSpaceOnUse" x1="-129.8033" y1="622.9944"
                        x2="-119.6803" y2="622.9944"
                        gradientTransform="matrix(-0.3146 -0.9492 0.9492 -0.3146 -182.9404 329.8106)">
                        <stop offset="0" style="stop-color:#FFFFFF" />
                        <stop offset="5.721179e-02" style="stop-color:#F4F6F7" />
                        <stop offset="0.1575" style="stop-color:#D7DEE2" />
                        <stop offset="0.2804" style="stop-color:#ABB9C3" />
                        <stop offset="0.6117" style="stop-color:#F0EEF0" />
                        <stop offset="0.7295" style="stop-color:#ECEBEE" />
                        <stop offset="0.8362" style="stop-color:#E1E3E7" />
                        <stop offset="0.9384" style="stop-color:#CFD5DB" />
                        <stop offset="1" style="stop-color:#C0C9D1" />
                    </linearGradient>
                    <path class="st18" d="M374.1,275.5c8.5,0.8,14.2-0.6,14.2-0.6l132.4-41.5c1-0.3,1.1-2.5,0.3-4.9c-0.8-2.4-2.2-4.1-3.2-3.7
					l-131.5,42.5C376.5,271.3,374.1,275.5,374.1,275.5z" />
                </g>
                <g>

                    <linearGradient id="SVGID_16_" gradientUnits="userSpaceOnUse" x1="-233.8953" y1="682.9233"
                        x2="-250.0313" y2="681.9148"
                        gradientTransform="matrix(-0.3146 -0.9492 0.9492 -0.3146 -182.9404 329.8106)">
                        <stop offset="1.400000e-07" style="stop-color:#60ACFF" />
                        <stop offset="0.2371" style="stop-color:#59B4FF" />
                        <stop offset="0.5988" style="stop-color:#46C9FF" />
                        <stop offset="1" style="stop-color:#2AE8FF" />
                    </linearGradient>
                    <path class="st19" d="M527.4,357.5l7.2-14.9c0.5-1.1,1.5-1.9,2.6-2.3l19.8-6.6c3.9-1.3,7.4,2.9,5.4,6.5l-7.9,14.2l-32.3,10.7
					L527.4,357.5z" />

                    <linearGradient id="SVGID_17_" gradientUnits="userSpaceOnUse" x1="471.9061" y1="682.2018"
                        x2="455.7672" y2="681.1932"
                        gradientTransform="matrix(0.3146 0.9492 0.9492 -0.3146 -243.5641 144.6071)">
                        <stop offset="1.400000e-07" style="stop-color:#60ACFF" />
                        <stop offset="0.2371" style="stop-color:#59B4FF" />
                        <stop offset="0.5988" style="stop-color:#46C9FF" />
                        <stop offset="1" style="stop-color:#2AE8FF" />
                    </linearGradient>
                    <path class="st20" d="M531,368.3l14.7,7.6c1.1,0.6,2.3,0.7,3.5,0.3l19.8-6.6c3.9-1.3,4.2-6.7,0.4-8.4l-14.8-6.7l-32.3,10.7
					L531,368.3z" />

                    <linearGradient id="SVGID_18_" gradientUnits="userSpaceOnUse" x1="-259.943" y1="615.2209"
                        x2="-249.8198" y2="615.2209"
                        gradientTransform="matrix(-0.3146 -0.9492 0.9492 -0.3146 -182.9404 329.8106)">
                        <stop offset="0" style="stop-color:#FFFFFF" />
                        <stop offset="5.721179e-02" style="stop-color:#F4F6F7" />
                        <stop offset="0.1575" style="stop-color:#D7DEE2" />
                        <stop offset="0.2804" style="stop-color:#ABB9C3" />
                        <stop offset="0.6117" style="stop-color:#F0EEF0" />
                        <stop offset="0.7295" style="stop-color:#ECEBEE" />
                        <stop offset="0.8362" style="stop-color:#E1E3E7" />
                        <stop offset="0.9384" style="stop-color:#CFD5DB" />
                        <stop offset="1" style="stop-color:#C0C9D1" />
                    </linearGradient>
                    <path class="st21" d="M407.7,401.4c8.5,0.8,14.2-0.6,14.2-0.6l132.4-41.5c1-0.3,1.1-2.5,0.3-4.9s-2.2-4.1-3.2-3.7l-131.5,42.5
					C410,397.2,407.7,401.4,407.7,401.4z" />
                </g>
                <g>

                    <linearGradient id="SVGID_19_" gradientUnits="userSpaceOnUse" x1="-173.3822" y1="734.5289"
                        x2="-189.5181" y2="733.5204"
                        gradientTransform="matrix(-0.3146 -0.9492 0.9492 -0.3146 -182.9404 329.8106)">
                        <stop offset="1.400000e-07" style="stop-color:#FF84FD" />
                        <stop offset="0.2195" style="stop-color:#F77EFD" />
                        <stop offset="0.5544" style="stop-color:#E26DFE" />
                        <stop offset="0.9612" style="stop-color:#C051FF" />
                        <stop offset="1" style="stop-color:#BC4EFF" />
                    </linearGradient>
                    <path class="st22" d="M557.3,283.8l7.2-14.9c0.5-1.1,1.5-1.9,2.6-2.3l19.8-6.6c3.9-1.3,7.4,2.9,5.4,6.5l-7.9,14.2l-32.3,10.7
					L557.3,283.8z" />

                    <linearGradient id="SVGID_20_" gradientUnits="userSpaceOnUse" x1="411.3929" y1="733.8075"
                        x2="395.254" y2="732.7988"
                        gradientTransform="matrix(0.3146 0.9492 0.9492 -0.3146 -243.5641 144.6071)">
                        <stop offset="1.400000e-07" style="stop-color:#FF84FD" />
                        <stop offset="0.2195" style="stop-color:#F77EFD" />
                        <stop offset="0.5544" style="stop-color:#E26DFE" />
                        <stop offset="0.9612" style="stop-color:#C051FF" />
                        <stop offset="1" style="stop-color:#BC4EFF" />
                    </linearGradient>
                    <path class="st23" d="M560.9,294.7l14.7,7.6c1.1,0.6,2.3,0.7,3.5,0.3l19.8-6.6c3.9-1.3,4.2-6.7,0.4-8.4l-14.8-6.7l-32.3,10.7
					L560.9,294.7z" />

                    <linearGradient id="SVGID_21_" gradientUnits="userSpaceOnUse" x1="-199.4297" y1="666.8265"
                        x2="-189.3067" y2="666.8265"
                        gradientTransform="matrix(-0.3146 -0.9492 0.9492 -0.3146 -182.9404 329.8106)">
                        <stop offset="0" style="stop-color:#FFFFFF" />
                        <stop offset="5.721179e-02" style="stop-color:#F4F6F7" />
                        <stop offset="0.1575" style="stop-color:#D7DEE2" />
                        <stop offset="0.2804" style="stop-color:#ABB9C3" />
                        <stop offset="0.6117" style="stop-color:#F0EEF0" />
                        <stop offset="0.7295" style="stop-color:#ECEBEE" />
                        <stop offset="0.8362" style="stop-color:#E1E3E7" />
                        <stop offset="0.9384" style="stop-color:#CFD5DB" />
                        <stop offset="1" style="stop-color:#C0C9D1" />
                    </linearGradient>
                    <path class="st24" d="M437.7,327.8c8.5,0.8,14.2-0.6,14.2-0.6l132.4-41.5c1-0.3,1.1-2.5,0.3-4.9c-0.8-2.4-2.2-4.1-3.2-3.7
					l-131.5,42.5C440,323.6,437.7,327.8,437.7,327.8z" />
                </g>
            </g>
        </g>
    </g>
</svg>
