<?xml version="1.0" encoding="utf-8"?>
<!-- Generator: Adobe Illustrator 22.0.0, SVG Export Plug-In . SVG Version: 6.00 Build 0)  -->
<svg version="1.1" id="Ñëîé_1" xmlns="http://www.w3.org/2000/svg" xmlns:xlink="http://www.w3.org/1999/xlink" x="0px" y="0px"
	 viewBox="0 0 3200 2000" style="enable-background:new 0 0 3200 2000;" xml:space="preserve">
<style type="text/css">
	.st0{display:none;fill:#FFFFFF;}
	.st1{fill:#DCE6FF;}
	.st2{fill:#C3D6F4;}
	.st3{fill:#CDDFF9;}
	.st4{fill:#D9EAFF;}
	.st5{fill:#8A9EDD;}
	.st6{fill:#7689D6;}
	.st7{fill:#E9F4FF;}
	.st8{fill:#EB5648;}
	.st9{fill:#FCB4B4;}
	.st10{fill:#F49F9F;}
	.st11{fill:#F9C0C0;}
	.st12{fill:#1D3F70;}
	.st13{fill:#FFFFFF;}
	.st14{fill:#3A72AA;}
	.st15{fill:#23659B;}
	.st16{fill:#F39200;}
	.st17{fill:#F9B233;}
	.st18{fill:#F99370;}
	.st19{fill:#395B96;}
	.st20{fill:#163260;}
	.st21{fill:#D1E0F2;}
	.st22{fill:#E57D61;}
	.st23{fill:#C16256;}
	.st24{fill:#CE4ABF;}
	.st25{fill:#A523A2;}
	.st26{fill:#F4D4BE;}
	.st27{fill:#E8C0A6;}
	.st28{fill:#4867AA;}
	.st29{fill:#8C4225;}
	.st30{fill:#CE3932;}
	.st31{fill:#D1A68F;}
	.st32{fill:#FFE7D7;}
	.st33{fill:#93ABE5;}
	.st34{fill:#D2E6FF;}
	.st35{fill:#EDD5C5;}
</style>
<rect id="_x31_0" class="st0" width="3200" height="2000"/>
<g>
	<g id="_x39_">
		<path class="st1" d="M443.2,1470.3c-5.5-12.3-10.9-25.1-16.2-38l12.9-2.8c5.2,12.8,10.6,25.5,16.1,37.7L443.2,1470.3z
			 M2750.2,1454.4l-13.4-1.2c2.2-13.1,4.3-26.4,6.3-39.3l13.4,1.1C2754.5,1428,2752.4,1441.2,2750.2,1454.4z M412.2,1394.1
			c-4.7-12.7-9.3-25.7-13.6-38.5l13.1-2.3c4.3,12.8,8.8,25.6,13.5,38.3L412.2,1394.1z M2762,1375.5l-13.4-0.9
			c1.7-13.2,3.3-26.4,4.7-39.4l13.4,0.8C2765.3,1348.9,2763.7,1362.2,2762,1375.5z M386.3,1316.8c-3.9-13-7.6-26.1-11-39l13.2-1.9
			c3.4,12.8,7.1,25.8,10.9,38.7L386.3,1316.8z M2770.5,1296.3l-13.4-0.6c1.1-13.2,2.1-26.5,3-39.5l13.4,0.5
			C2772.7,1269.7,2771.7,1283.1,2770.5,1296.3z M365.7,1238.8c-3-13.1-5.8-26.3-8.2-39.3l13.3-1.4c2.5,12.9,5.2,26,8.2,39.1
			L365.7,1238.8z M2775.6,1216.9l-13.4-0.3c0.5-13.2,0.9-26.5,1.1-39.5l13.5,0.1C2776.5,1190.3,2776.1,1203.7,2775.6,1216.9z
			 M350.7,1160c-2-13.3-3.8-26.6-5.2-39.6l13.4-0.8c1.4,12.9,3.2,26.2,5.2,39.3L350.7,1160z M2763.3,1137.6
			c-0.2-13.2-0.5-26.5-1-39.5l13.4-0.3c0.5,13.1,0.9,26.4,1,39.7L2763.3,1137.6z M342,1080.6c-0.9-13.3-1.5-26.7-1.8-39.8l13.5-0.2
			c0.3,13,0.9,26.2,1.7,39.4L342,1080.6z M2760.1,1058.6c-0.9-13.2-2.1-26.5-3.4-39.4l13.4-0.7c1.3,13,2.5,26.4,3.4,39.7
			L2760.1,1058.6z M353.8,1001.2l-13.5-0.2c0.4-13.4,1.1-26.8,2.1-39.8l13.4,0.6C354.9,974.7,354.2,988,353.8,1001.2z M2752,979.8
			c-1.8-13.2-3.8-26.4-6-39.3l13.3-1.2c2.2,12.9,4.3,26.2,6.1,39.5L2752,979.8z M360.2,922.5l-13.4-1c1.8-13.3,4.1-26.6,6.6-39.6
			l13.3,1.4C364.2,896.2,362,909.4,360.2,922.5z M2738.4,901.4c-2.8-13.1-5.9-26.2-9.1-38.9l13.2-1.8c3.3,12.8,6.4,26,9.2,39.2
			L2738.4,901.4z M1147.3,900c-18.7-2.2-32.2-8.4-50.9-19.1l8.5-7.6c16.4,9.4,28.3,15,43.9,17L1147.3,900z M1194,876.6l-12-4.5
			c6.2-8.8,11.6-21.1,16.2-36.4l13.1,2.1C1206.5,854.2,1200.8,866.9,1194,876.6z M1056.9,852.6c-10.7-8.7-22.2-18.8-35-30.7
			l10.6-6.1c12.7,11.8,23.9,21.7,34.5,30.2L1056.9,852.6z M375.8,844.6l-13.2-1.9c3.5-13.1,7.4-26.2,11.7-38.9l13.1,2.4
			C383.1,818.7,379.2,831.6,375.8,844.6z M2718.4,823.9c-4-13-8.3-25.9-12.8-38.3l13-2.5c4.5,12.5,8.9,25.6,12.9,38.7L2718.4,823.9z
			 M1220.4,798.2l-13.3-1.3c2.1-11.8,3.9-24.6,5.7-39.3l13.4,0.9C1224.4,773.3,1222.5,786.3,1220.4,798.2z M988.9,790.2
			c-10.9-10.8-22.3-22.2-32.1-32.1l10.9-5.8c9.8,9.8,21.1,21.2,32,32L988.9,790.2z M1973.9,789.4c-10.5,0-20.8-2.3-30.6-6.8l7.2-8.3
			c14.7,6.8,29.2,6.8,44.8,1.4l5.8,8.9C1991.9,787.7,1982.7,789.4,1973.9,789.4z M401.6,768.2l-12.9-2.9
			c5.3-12.8,11.2-25.5,17.4-37.8l12.6,3.4C412.7,743,406.9,755.6,401.6,768.2z M2045.1,758.8l-9.9-6.7c10.2-8.1,21.1-18.1,33.4-30.5
			l10.9,5.8C2067,740.1,2055.7,750.4,2045.1,758.8z M1905.1,752c-8.7-9.8-17.3-21.4-26.4-35.4l12.2-4.2
			c8.8,13.6,17.1,24.8,25.5,34.2L1905.1,752z M2690.8,747.7c-5.4-12.8-11.2-25.3-17.2-37.3l12.6-3.4c6.1,12.2,11.9,24.9,17.4,37.8
			L2690.8,747.7z M925,726c-12.3-12.3-22.6-22.4-32.3-31.8l10.7-5.9c9.8,9.4,20.1,19.6,32.4,31.9L925,726z M1230.2,718.7l-13.4-0.6
			c1-11.5,2.1-24.5,3.2-39.6l13.4,0.5C1232.2,694.1,1231.2,707.1,1230.2,718.7z M439,694.5l-12.3-4c7.4-12.2,15.3-24.3,23.6-36
			l11.9,4.6C454,670.6,446.3,682.4,439,694.5z M2110.4,694.4l-11.2-5.4c9.6-10.6,19.4-21.9,29.4-33.3l11.3,5.3
			C2129.9,672.5,2120,683.8,2110.4,694.4z M1857.1,679.9c-6.1-11.2-12.4-23.4-19.3-37.3l12.7-3.3c6.8,13.8,13.1,25.9,19.1,37
			L1857.1,679.9z M2653.8,673.7c-7.2-12.3-14.9-24.3-22.7-35.6l12-4.5c8,11.5,15.8,23.7,23.1,36.2L2653.8,673.7z M859.5,663
			c-12.2-11.1-23.6-21-34.7-30.2l10.1-6.5c11.3,9.3,22.8,19.3,35.2,30.5L859.5,663z M1236.1,639.2l-13.4-0.5
			c0.9-13.2,1.8-26.3,2.8-39.7l13.4,0.5C1238,612.9,1237.1,626.1,1236.1,639.2z M2169.4,627.8l-11.2-5.4
			c11.2-12.4,21.3-23.2,30.7-32.9l11,5.7C2190.5,604.8,2180.5,615.5,2169.4,627.8z M488.9,625l-11.3-5.3
			c10.6-12.1,21.5-23.1,32.4-32.5l10.3,6.4C509.7,602.7,499.2,613.3,488.9,625z M1819.8,605c-6.2-13.2-12.2-26.5-17.3-37.7l12.8-3.1
			c5.1,11.2,11.1,24.4,17.3,37.6L1819.8,605z M787.8,604.3c-13.8-9.8-27.3-18.5-40.2-25.7l8.2-7.8c13.3,7.5,27.2,16.4,41.4,26.5
			L787.8,604.3z M2605,603.9c-9.6-11.5-19.7-22.4-30-32.4l10.7-5.9c10.6,10.2,20.9,21.4,30.8,33.2L2605,603.9z M558,566.8l-8.2-7.8
			c16.1-9,32.8-15.4,49.7-19.2l3.9,9.4C588.1,552.6,572.8,558.5,558,566.8z M2232.3,563.8l-10.5-6.2c12.6-11.4,24.6-21.2,36.5-30
			l9.5,7C2256.3,543.1,2244.6,552.6,2232.3,563.8z M1241.9,559.9l-13.4-0.6c1.2-14.3,2.3-27.3,3.5-39.7l13.4,0.7
			C1244.2,532.7,1243.1,545.6,1241.9,559.9z M703.1,557.8c-16.8-6.1-33.3-10-49.1-11.6l1.8-9.8c17.2,1.7,35.1,5.9,53.2,12.5
			L703.1,557.8z M2540.3,541.9c-13-9.7-26.4-18.3-39.9-25.5l7.9-8c14.1,7.5,28.1,16.5,41.6,26.6L2540.3,541.9z M1785.3,529.7
			c-6.7-14.6-12.2-26.6-17.4-37.6l12.7-3.2c5.2,11,10.7,23,17.4,37.7L1785.3,529.7z M2308.2,509.4l-7.7-8.1
			c16.5-8.5,33.3-14.7,49.7-18.6l4.2,9.4C2339.2,495.7,2323.6,501.5,2308.2,509.4z M2455,497.4c-16.7-5.1-33.5-8.3-50.1-9.5l1.3-9.8
			c18,1.2,36.2,4.7,54.1,10.2L2455,497.4z M1249.8,480.8l-13.4-0.9c1.7-13.8,3.5-27.2,5.4-39.7l13.4,1.1
			C1253.2,453.8,1251.4,467,1249.8,480.8z M1750.1,454.6c-6.5-13.3-12.6-25.4-18.7-37.1l12.6-3.5c6.1,11.8,12.3,24,18.8,37.3
			L1750.1,454.6z M1262,402.1l-13.3-1.4c2.7-13.8,5.7-27,8.9-39.4l13.2,1.8C1267.6,375.3,1264.7,388.4,1262,402.1z M1711.4,380.8
			c-7.2-12.7-14.5-24.9-21.7-36.2l12.2-4.1c7.2,11.4,14.6,23.7,21.9,36.5L1711.4,380.8z M1282.2,324.6l-13.1-2.4
			c4.7-13.7,9.9-26.7,15.4-38.5l12.7,3.2C1291.9,298.4,1286.8,311.1,1282.2,324.6z M1665.8,309.2c-8.8-12.2-17.9-23.6-26.9-34
			l11.4-5.3c9.2,10.6,18.4,22.3,27.4,34.7L1665.8,309.2z M1317.5,250.8l-12.1-4.4c8.8-13.1,18.6-24.7,29.1-34.4l10.6,6.1
			C1335.2,227.3,1325.9,238.3,1317.5,250.8z M1608.1,243.3c-11.8-10.8-23.9-20.3-36.1-28.4l9-7.3c12.7,8.4,25.3,18.4,37.6,29.6
			L1608.1,243.3z M1382.6,192.6l-7.3-8.3c15.9-7.5,33.5-12.3,52.2-14.4l2,9.7C1412.8,181.5,1397,185.9,1382.6,192.6z M1529.6,192.6
			c-15.7-6.2-32-10.4-48.5-12.6l2.4-9.7c17.9,2.3,35.6,6.9,52.5,13.6L1529.6,192.6z"/>
		<path class="st2" d="M208.6,1534.5c0,0-17.6,65.3,63.3,82.7c110.6,23.8,736.2,87.8,578.4,135.4c-89.1,26.9,69.4,62,503.2,75.5
			c433.8,13.4,1178.2-39.2,927.9-117.1c-250.3-77.9,772.4-14.5,710.3-176.4H208.6z"/>
		<path class="st2" d="M425.2,1530.3c0,0-159.7-601.4,184.8-819c154.4-97.5,322.4,164.7,521.8,55.8
			c177.5-96.9,63.9-323.2,236.7-432.4c212.6-134.2,567.7,532.2,817.1,428.8c392.4-162.6,613.2,96.5,543.3,767.8L425.2,1530.3z"/>
		<path class="st3" d="M2843.7,1221.8C2732,1208.2,2742.1,1412,2583,1412c-145.5,0-223.4-455.3-383-362.7
			c-641.9,372.3-142.5-261.2-574.1-273.6c-195.2-5.6-325.2,164.9-373.2,466.9c-69.5,273-230.7-208.2-396.6-163.5
			c-105.4,28.4-93.4,332.9-238.9,332.9c-159.1,0-148.7-171.4-260.3-157.8c-120.2,14.6-148.4,280.3-148.4,280.3h2783.1
			C2991.7,1534.5,2963.9,1236.4,2843.7,1221.8z"/>
		<path class="st4" d="M2736.6,1435.6c-102.7-5.8-85.9,46.6-232.4,46.6c-133.9,0-130.2-117.4-219.8-142.3
			c-165-45.9-301,186.5-364.9,69.9c-121.5-309.6-475.7-464.8-639.2,0c-64,116.7-213.5-91.5-364.9-69.9
			c-93.2,13.3-85.9,142.3-219.8,142.3c-146.4,0-129.6-52.4-232.4-46.6c-110.6,6.2-143.6,98.9-143.6,98.9h2560.4
			C2880.2,1534.5,2847.2,1441.8,2736.6,1435.6z"/>
	</g>
	<g id="_x38_">
		<path class="st5" d="M2470.9,520v1065.1c0,18.3-14.8,33.2-33.2,33.2h-820.2c-18.4,0.1-33.3-15.2-33.2-33.2c0,0,0-1065.1,0-1065.1
			c0-18.3,14.8-33.2,33.2-33.2h820.2C2456,486.9,2470.9,501.7,2470.9,520z"/>
		<path class="st6" d="M2470.9,520v1065.1c0,18.3-14.8,33.2-33.2,33.2h-820.2c-17,0-31-12.8-32.9-29.2c1.4-2.4,2.1-3.6,2.1-3.6
			s822-38.6,822-1095.6l3.4-2.9C2438.8,485.6,2469.1,485.6,2470.9,520z"/>
		<rect x="1646.6" y="537.4" class="st7" width="762.2" height="1001.5"/>
		<path class="st8" d="M2173.2,1460.4c-124.5-2.2-124.5-187.2,0-189.4C2297.7,1273.2,2297.7,1458.2,2173.2,1460.4z M2173.2,1286.2
			c-104.5,1.9-104.4,157.1,0,159C2277.7,1443.3,2277.7,1288.1,2173.2,1286.2z"/>
		<path class="st9" d="M2269,466.4h-89.6v-52c0-12.6-10.2-22.7-22.8-22.7h-258.1c-12.6,0-22.8,10.2-22.8,22.7v52
			c-114.2,5.2-114.9-28.5-112.3,88.2c0,12.6,10.2,22.8,22.7,22.8H2269c12.6,0,22.7-10.2,22.7-22.8v-65.5
			C2291.8,476.6,2281.6,466.4,2269,466.4z M2027.6,451.8c-19.5-0.3-19.5-29.4,0-29.7C2047.1,422.4,2047.1,451.5,2027.6,451.8z"/>
		<path class="st10" d="M2291.8,489.2v65.5c0,12.6-10.2,22.8-22.7,22.8h-482.8c-12.6,0-22.7-10.2-22.7-22.8
			c0,0,393.2,21.6,393.2-163c12.6,0,22.8,10.2,22.8,22.7v52h89.6C2281.6,466.4,2291.8,476.6,2291.8,489.2z"/>
		<path class="st11" d="M2027.6,391.7c-141.2,0-151.8,74.7-151.8,74.7v-52c0-12.6,10.2-22.7,22.8-22.7H2027.6z"/>
		<path class="st5" d="M2024.6,1448.6c-2.5,0.1-4.9-0.1-7.3-0.8c-12.1-3.3-21.4-15.8-27.7-37.2c-5.7,7.2-12.9,14.8-21.7,22.6
			c-2,1.8-5.1,1.6-6.9-0.5c-1.8-2-1.6-5.1,0.5-6.9c11-9.7,19.1-19,25.1-27.5c-1.7-7.9-3.1-16.8-4.2-26.6c-3.1-27.5,1-45.2,11.2-48.5
			c4.3-1.4,10.5-0.1,15.1,7.9c5.7,10,6.3,25.6,1.5,41.7c-2.2,7.4-6.1,16.8-13,27.4c2.1,8.5,4.5,15.7,7.3,21.6
			c4.4,9.2,9.8,14.9,15.6,16.5c7.6,2.1,17-3.2,25.1-14c2.3-3.1,4.4-6.5,6.1-9.9c-8.6-10.3-10.6-22.7-9.1-31.9
			c1.2-7.8,4.9-13.1,9.8-14.3c2.3-0.6,6.8-0.6,11,5.1c0.1,0.1,0.1,0.2,0.2,0.3c6.4,10.3,5,25.1-0.3,38.6c1.4,1.2,2.9,2.3,4.7,3.3
			c5,3,8.9,4.2,11.2,3.3c3.7-1.4,5.9-9.2,7.9-16c2-7.1,4.2-14.4,8.5-19.4c1.6-1.9,6.7-7.7,13.2-6.4c7.6,1.5,11.1,11.2,14.7,21.6
			c1.7,5,3.5,10.1,5.6,13.5c3.4-4.2,8.9-17.3,12.7-26.3c5.7-13.5,11.5-27.5,17.6-34.2c3.3-3.7,6.5-4.9,9.6-3.5
			c5.8,2.6,4.8,11,2.7,29.4c-1.3,11.6-3.2,27.6-1,33.4c0.1,0.2,0.1,0.3,0.2,0.5c2.7-1,8.7-7.1,12.3-10.8
			c7.4-7.6,14.5-14.7,21.4-15.1c2.7-0.1,5,1.9,5.1,4.6c0.1,2.7-1.9,5-4.6,5.1c-3.2,0.2-10.3,7.4-15,12.2
			c-7.9,8.1-14.8,15.1-21.6,13.7c-2.2-0.5-5.2-2-7-6.8c-3-8.1-1.3-23.3,0.4-38c0.5-4.3,1.1-9.4,1.4-13.6
			c-4.1,6.8-8.5,17.3-12.5,26.8c-8.9,21.2-13.9,32.3-21.2,33.2c-1.6,0.2-4.8,0-7.4-3.4c-3.3-4.4-5.7-11.1-7.9-17.5
			c-1.8-5.1-5.1-14.5-7.3-15.2c0,0-1.3,0.2-3.9,3.2c-3,3.4-4.8,9.7-6.5,15.7c-2.7,9.4-5.5,19.2-13.7,22.4c-5.4,2.1-11.9,0.8-19.8-4
			c-1.3-0.8-2.6-1.7-3.8-2.6c-1.7,3.1-3.6,6.1-5.6,8.8C2044.2,1441.7,2034.3,1448.1,2024.6,1448.6z M2053.8,1378.1
			c-0.9,1-2.5,4.1-2.6,9.7c0,2.6,0.3,9.1,4.1,15.8c2.8-9.7,2.8-18.8-0.7-24.5C2054.3,1378.5,2054,1378.2,2053.8,1378.1z
			 M1996.5,1332.6C1996.5,1332.6,1996.5,1332.6,1996.5,1332.6c-1.9,0.6-7.9,8.8-4.6,38.2c0.6,5.4,1.3,10.5,2.1,15.3
			c3.2-6,5.2-11.4,6.6-15.9c4.8-16,2.8-28.1-0.6-34.1C1998.5,1333.5,1997.1,1332.6,1996.5,1332.6z"/>
		<path class="st5" d="M2347.7,871.3h-424.2c-4.4,0-7.9-3.5-7.9-7.9c0-4.4,3.5-7.9,7.9-7.9h424.2c4.4,0,7.9,3.5,7.9,7.9
			C2355.6,867.8,2352.1,871.3,2347.7,871.3z"/>
		<path class="st5" d="M1875.8,871.3H1707c-4.4,0-7.9-3.5-7.9-7.9c0-4.4,3.5-7.9,7.9-7.9h168.9c4.4,0,7.9,3.5,7.9,7.9
			C1883.8,867.8,1880.2,871.3,1875.8,871.3z"/>
		<path class="st5" d="M2347.7,937.8H1707c-4.4,0-7.9-3.5-7.9-7.9c0-4.4,3.5-7.9,7.9-7.9h640.7c4.4,0,7.9,3.5,7.9,7.9
			C2355.6,934.3,2352.1,937.8,2347.7,937.8z"/>
		<path class="st8" d="M2306.3,677.9H1749c-6.7,0-12.1-5.4-12.1-12.1c0-6.7,5.4-12.1,12.1-12.1h557.3c6.7,0,12.1,5.4,12.1,12.1
			C2318.4,672.5,2313,677.9,2306.3,677.9z"/>
		<path class="st8" d="M2222.9,744.4h-390.4c-6.7,0-12.1-5.4-12.1-12.1c0-6.7,5.4-12.1,12.1-12.1h390.4c6.7,0,12.1,5.4,12.1,12.1
			C2234.9,739,2229.5,744.4,2222.9,744.4z"/>
		<path class="st5" d="M2347.7,1004.3h-207.2c-4.4,0-7.9-3.5-7.9-7.9s3.5-7.9,7.9-7.9h207.2c4.4,0,7.9,3.5,7.9,7.9
			S2352.1,1004.3,2347.7,1004.3z"/>
		<path class="st5" d="M2078.5,1004.3H1707c-4.4,0-7.9-3.5-7.9-7.9s3.5-7.9,7.9-7.9h371.5c4.4,0,7.9,3.5,7.9,7.9
			S2082.9,1004.3,2078.5,1004.3z"/>
		<path class="st5" d="M2347.7,1070.8h-200.8c-4.4,0-7.9-3.5-7.9-7.9s3.5-7.9,7.9-7.9h200.8c4.4,0,7.9,3.5,7.9,7.9
			S2352.1,1070.8,2347.7,1070.8z"/>
		<path class="st5" d="M2083.6,1070.8h-199.4c-4.4,0-7.9-3.5-7.9-7.9s3.5-7.9,7.9-7.9h199.4c4.4,0,7.9,3.5,7.9,7.9
			S2088,1070.8,2083.6,1070.8z"/>
		<path class="st5" d="M1829.7,1070.8H1707c-4.4,0-7.9-3.5-7.9-7.9s3.5-7.9,7.9-7.9h122.7c4.4,0,7.9,3.5,7.9,7.9
			S1834.1,1070.8,1829.7,1070.8z"/>
		<path class="st5" d="M2347.7,1137.3H1707c-4.4,0-7.9-3.5-7.9-7.9c0-4.4,3.5-7.9,7.9-7.9h640.7c4.4,0,7.9,3.5,7.9,7.9
			C2355.6,1133.7,2352.1,1137.3,2347.7,1137.3z"/>
		<path class="st5" d="M2347.7,1203.8h-269.2c-4.4,0-7.9-3.5-7.9-7.9c0-4.4,3.5-7.9,7.9-7.9h269.2c4.4,0,7.9,3.5,7.9,7.9
			C2355.6,1200.2,2352.1,1203.8,2347.7,1203.8z"/>
		<path class="st5" d="M2013,1203.8h-306c-4.4,0-7.9-3.5-7.9-7.9c0-4.4,3.5-7.9,7.9-7.9h306c4.4,0,7.9,3.5,7.9,7.9
			C2020.9,1200.2,2017.4,1203.8,2013,1203.8z"/>
	</g>
	<g id="_x37_">
		<path class="st5" d="M1025.3,602.5L633.1,709.5c-45.2,12.3-71.8,59-59.5,104.2l202.5,742c12.3,45.2,59,71.8,104.2,59.5
			l392.2-107.1c45.2-12.3,71.8-59,59.5-104.2l-202.5-742C1117.2,616.8,1070.5,590.2,1025.3,602.5z"/>
		<path class="st12" d="M901.2,1412.5c0,0-30,59.5-29.9,59.5c0,0,62.9,31.7,62.9,31.7c25.5,13.9,57.3-12.8,47.2-40
			c-2.7-8.1-8.4-15.2-16.7-19.3C964.7,1444.4,901.2,1412.4,901.2,1412.5z"/>
		<path class="st13" d="M792.8,1395.6c-8.1,16.4-1.5,36.3,14.9,44.5l63.5,31.9c0.1,0,30-59.5,30-59.6
			C872.3,1402.1,815.9,1351.6,792.8,1395.6z"/>
		<path class="st12" d="M1193.7,1333.2c0,0-30,59.5-29.9,59.5c0,0,62.9,31.7,62.9,31.7c25.5,13.9,57.3-12.8,47.2-40
			c-2.7-8.1-8.4-15.2-16.7-19.3C1257.2,1365.1,1193.7,1333.1,1193.7,1333.2z"/>
		<path class="st13" d="M1085.3,1316.2c-8.1,16.4-1.5,36.3,14.9,44.5l63.5,31.9c0.1,0,30-59.5,30-59.6
			C1164.8,1322.8,1108.4,1272.3,1085.3,1316.2z"/>
		<path class="st12" d="M741.9,825.1c0,0-30,59.5-29.9,59.5c0,0,62.9,31.7,62.9,31.7c25.5,13.9,57.3-12.8,47.2-40
			c-2.7-8.1-8.4-15.2-16.7-19.3C805.4,857.1,741.9,825.1,741.9,825.1z"/>
		<path class="st13" d="M633.5,808.2c-8.1,16.4-1.5,36.3,14.9,44.5l63.5,31.9c0.1,0,30-59.5,30-59.6
			C713,814.7,656.6,764.2,633.5,808.2z"/>
		<path class="st12" d="M1034.4,745.8c0,0-30,59.5-29.9,59.5c0,0,62.9,31.7,62.9,31.7c25.5,13.9,57.3-12.8,47.2-40
			c-2.7-8.1-8.4-15.2-16.7-19.3C1097.9,777.7,1034.4,745.7,1034.4,745.8z"/>
		<path class="st13" d="M926,728.9c-8.1,16.4-1.5,36.3,14.9,44.5l63.5,31.9c0.1,0,30-59.5,30-59.6C1005.4,735.4,949,684.9,926,728.9
			z"/>
		<path class="st12" d="M795,1020.9c0,0-30,59.5-29.9,59.5c0,0,62.9,31.7,62.9,31.7c25.5,13.9,57.3-12.8,47.2-40
			c-2.7-8.1-8.4-15.2-16.7-19.3C858.5,1052.9,795,1020.9,795,1020.9z"/>
		<path class="st13" d="M686.6,1004c-8.1,16.4-1.5,36.3,14.9,44.5l63.5,31.9c0.1,0,30-59.5,30-59.6
			C766.1,1010.5,709.7,960,686.6,1004z"/>
		<path class="st12" d="M1087.5,941.6c0,0-30,59.5-29.9,59.5c0,0,62.9,31.7,62.9,31.7c25.5,13.9,57.3-12.8,47.2-40
			c-2.7-8.1-8.4-15.2-16.7-19.3C1151,973.5,1087.5,941.5,1087.5,941.6z"/>
		<path class="st13" d="M979.1,924.6c-8.1,16.4-1.5,36.3,14.9,44.5l63.5,31.9c0.1,0,30-59.5,30-59.6
			C1058.6,931.2,1002.1,880.7,979.1,924.6z"/>
		<path class="st12" d="M848.1,1216.7c0,0-30,59.5-29.9,59.5c0,0,62.9,31.7,62.9,31.7c25.5,13.9,57.3-12.8,47.2-40
			c-2.7-8.1-8.4-15.2-16.7-19.3C911.6,1248.7,848.1,1216.7,848.1,1216.7z"/>
		<path class="st13" d="M739.7,1199.8c-8.1,16.4-1.5,36.3,14.9,44.5l63.5,31.9c0.1,0,30-59.5,30-59.6
			C819.2,1206.3,762.8,1155.8,739.7,1199.8z"/>
		<path class="st12" d="M1140.6,1137.4c0,0-30,59.5-29.9,59.5c0,0,62.9,31.7,62.9,31.7c25.5,13.9,57.3-12.8,47.2-40
			c-2.7-8.1-8.4-15.2-16.7-19.3C1204.1,1169.3,1140.6,1137.3,1140.6,1137.4z"/>
		<path class="st13" d="M1032.2,1120.4c-8.1,16.4-1.5,36.3,14.9,44.5l63.5,31.9c0.1,0,30-59.5,30-59.6
			C1111.7,1127,1055.2,1076.5,1032.2,1120.4z"/>
		<path class="st6" d="M842.7,702.9c-6.8,1.8-10.8,8.8-9,15.6l213.6,787.4c1.8,6.8,8.8,10.8,15.6,9c6.8-1.8,10.8-8.8,9-15.6
			L858.3,711.9C856.5,705.1,849.5,701.1,842.7,702.9z"/>
	</g>
	<g id="_x36_">
		<path class="st14" d="M1663.5,1030.2v485.4c0,56.7-46,102.6-102.6,102.6h-417.2c-56.7,0-102.6-46-102.6-102.6v-485.4
			c0-41,15.8-78,41.4-104.9c25.6-26.8,61-43.4,100-43.4c10.6,0,19.3-9.1,19.3-20.2v-57.5h301v57.5c0,11.2,8.6,20.2,19.3,20.2
			C1600.1,881.9,1663.5,948.3,1663.5,1030.2z"/>
		<path class="st15" d="M1663.5,1030.2v485.4c0,56.7-46,102.6-102.6,102.6h-417.2c-56.7,0-102.6-46-102.6-102.6
			C1654,1515.6,1663.5,1030.2,1663.5,1030.2z"/>
		<path class="st15" d="M1489.9,845.3h-275.3c-24.1,0-43.6-19.5-43.6-43.6V719c0-24.1,19.5-43.6,43.6-43.6h275.3
			c24.1,0,43.6,19.5,43.6,43.6v82.6C1533.5,825.7,1514,845.3,1489.9,845.3z"/>
		<rect x="1121.4" y="1018.6" class="st13" width="461.8" height="472"/>
		<path class="st8" d="M1272.7,1167c-0.9-2.2-2.7-5.2-5.5-9.2c-2.8-4-4.9-6.6-6.4-7.9c-1.5-1.3-3.5-2.5-6-3.7
			c3.7-1.3,6.9-2.8,9.3-4.5c5.3-3.7,9.5-8.7,12.5-14.7c3-6,4.5-13.2,4.5-21.4c0-9.4-2-17.5-5.9-24.1c-4-6.7-9.3-11.3-15.9-13.8
			c-6.4-2.4-15.6-3.6-27.5-3.6h-63.3c-0.9,0-1.7,0.8-1.7,1.7v143.3c0,0.9,0.8,1.7,1.7,1.7h38.1c0.9,0,1.7-0.8,1.7-1.7v-56.5h1.6
			c3.1,0,5.8,1,8.2,2.9c1.2,1,3.4,3.7,6.4,10.5l20.3,43.8c0.3,0.6,0.9,1,1.6,1h42.9c0.6,0,1.1-0.3,1.4-0.8c0.3-0.5,0.4-1.1,0.1-1.6
			L1272.7,1167z M1208.5,1096.5h15c6.4,0,10.8,1.1,13,3.2c2.2,2.2,3.3,5.2,3.3,9.4c0,2.8-0.7,5.2-2.1,7.4c-1.4,2.1-3,3.3-5.2,3.8
			c-6,1.6-8.5,1.9-9.6,1.9h-14.3V1096.5z"/>
		<path class="st8" d="M1432.9,1208.4l-41.4-73.1l37.8-68.6c0.3-0.5,0.3-1.2,0-1.7c-0.3-0.5-0.9-0.8-1.5-0.8h-41.4
			c-0.7,0-1.3,0.4-1.5,1l-19.6,40.9l-20.2-40.9c-0.3-0.6-0.9-1-1.5-1h-41.8c-0.6,0-1.2,0.3-1.5,0.8c-0.3,0.5-0.3,1.2,0,1.7l38,67.8
			l-41.9,73.9c-0.3,0.5-0.3,1.2,0,1.7c0.3,0.5,0.9,0.9,1.5,0.9h42.4c0.6,0,1.2-0.4,1.5-0.9l22.7-43.2l22.7,43.2
			c0.3,0.6,0.9,0.9,1.5,0.9h42.6c0.6,0,1.2-0.3,1.5-0.9C1433.2,1209.5,1433.2,1208.9,1432.9,1208.4z"/>
		<path class="st5" d="M1540.4,1266h-378.5c-3.1,0-5.7-2.6-5.7-5.7c0-3.1,2.6-5.7,5.7-5.7h378.5c3.1,0,5.7,2.6,5.7,5.7
			C1546.1,1263.4,1543.5,1266,1540.4,1266z"/>
		<path class="st5" d="M1540.4,1313.6h-211c-3.1,0-5.7-2.6-5.7-5.7c0-3.1,2.6-5.7,5.7-5.7h211c3.1,0,5.7,2.6,5.7,5.7
			C1546.1,1311,1543.5,1313.6,1540.4,1313.6z"/>
		<path class="st5" d="M1287.5,1313.6h-125.6c-3.1,0-5.7-2.6-5.7-5.7c0-3.1,2.6-5.7,5.7-5.7h125.6c3.1,0,5.7,2.6,5.7,5.7
			C1293.2,1311,1290.6,1313.6,1287.5,1313.6z"/>
		<path class="st5" d="M1540.4,1361.2h-378.5c-3.1,0-5.7-2.6-5.7-5.7c0-3.1,2.6-5.7,5.7-5.7h378.5c3.1,0,5.7,2.6,5.7,5.7
			C1546.1,1358.6,1543.5,1361.2,1540.4,1361.2z"/>
		<path class="st5" d="M1540.4,1408.8h-107.3c-3.1,0-5.7-2.6-5.7-5.7c0-3.1,2.6-5.7,5.7-5.7h107.3c3.1,0,5.7,2.6,5.7,5.7
			C1546.1,1406.2,1543.5,1408.8,1540.4,1408.8z"/>
		<path class="st5" d="M1392.2,1408.8h-230.4c-3.1,0-5.7-2.6-5.7-5.7c0-3.1,2.6-5.7,5.7-5.7h230.4c3.1,0,5.7,2.6,5.7,5.7
			C1397.9,1406.2,1395.4,1408.8,1392.2,1408.8z"/>
		<path class="st5" d="M1540.4,1456.4h-266.2c-3.1,0-5.7-2.6-5.7-5.7c0-3.1,2.6-5.7,5.7-5.7h266.2c3.1,0,5.7,2.6,5.7,5.7
			C1546.1,1453.8,1543.5,1456.4,1540.4,1456.4z"/>
		<path class="st5" d="M1234.6,1456.4h-72.8c-3.1,0-5.7-2.6-5.7-5.7c0-3.1,2.6-5.7,5.7-5.7h72.8c3.1,0,5.7,2.6,5.7,5.7
			C1240.3,1453.8,1237.7,1456.4,1234.6,1456.4z"/>
		<path class="st14" d="M1214.4,825.8L1214.4,825.8c-7.4,0-13.5-6-13.5-13.5V708.4c0-7.4,6-13.5,13.5-13.5l0,0
			c7.4,0,13.5,6,13.5,13.5v103.9C1227.9,819.7,1221.9,825.8,1214.4,825.8z"/>
		<path class="st14" d="M1324.7,825.8L1324.7,825.8c-7.4,0-13.5-6-13.5-13.5V708.4c0-7.4,6-13.5,13.5-13.5l0,0
			c7.4,0,13.5,6,13.5,13.5v103.9C1338.2,819.7,1332.1,825.8,1324.7,825.8z"/>
		<path class="st14" d="M1269.5,825.8L1269.5,825.8c-7.4,0-13.5-6-13.5-13.5V708.4c0-7.4,6-13.5,13.5-13.5l0,0
			c7.4,0,13.5,6,13.5,13.5v103.9C1283,819.7,1277,825.8,1269.5,825.8z"/>
		<path class="st14" d="M1379.8,825.8L1379.8,825.8c-7.4,0-13.5-6-13.5-13.5V708.4c0-7.4,6-13.5,13.5-13.5l0,0
			c7.4,0,13.5,6,13.5,13.5v103.9C1393.3,819.7,1387.3,825.8,1379.8,825.8z"/>
		<path class="st14" d="M1434.9,825.8L1434.9,825.8c-7.4,0-13.5-6-13.5-13.5V708.4c0-7.4,6-13.5,13.5-13.5l0,0
			c7.4,0,13.5,6,13.5,13.5v103.9C1448.4,819.7,1442.4,825.8,1434.9,825.8z"/>
		<path class="st14" d="M1490.1,825.8L1490.1,825.8c-7.4,0-13.5-6-13.5-13.5V708.4c0-7.4,6-13.5,13.5-13.5l0,0
			c7.4,0,13.5,6,13.5,13.5v103.9C1503.5,819.7,1497.5,825.8,1490.1,825.8z"/>
	</g>
	<g id="_x35_">
		<path class="st16" d="M1797.6,1582.1v45.9c0,37-63.9,67-142.8,67c-39.8,0-75.8-7.6-101.7-20c-25.4-12.1-41.2-28.7-41.2-47.1v-45.9
			H1797.6z"/>
		<path class="st17" d="M1797.6,1582.1c-1.3,80.2-268.5,97.3-285.1,6c-0.6-3.3-0.8-6.6-0.5-9.7c4-53.1,124.5-75.1,207.8-56
			C1761.1,1531.8,1793.2,1551.3,1797.6,1582.1z"/>
		<path class="st16" d="M1720.2,1522.5l-125.3,125.4c-3.3-0.6-5.7-2.5-8.8-3.3l122.7-124.7C1712,1520.6,1717.1,1521.7,1720.2,1522.5
			z"/>
	</g>
	<g id="_x34_">
		<path class="st8" d="M1104.6,1655.4c0,0,11.7-100.5,11.8-100.5c0,0,106.2,12.4,106.2,12.4c44,3.7,61.9,64.1,26.5,90.1
			c-10.2,8-23.4,12.2-37.3,10.6C1211.8,1668,1104.6,1655.5,1104.6,1655.4z"/>
		<path class="st13" d="M953.1,1586.4c3.4-27.6,28.5-47.2,56.1-44l107.1,12.5c0.1,0-11.7,100.5-11.7,100.5
			C1059.3,1644.5,945.5,1661.4,953.1,1586.4z"/>
	</g>
	<g id="_x33_">
		<path class="st18" d="M702.1,1421.6c-5.7,86.4-16.4,172.6-28.3,258.4c-2.8,20.3-27,24.2-29.2,2c-2-22-1.4-42.7-3.1-64.8
			c-4-64.6-9.8-129.2-16.9-193.5C619.6,1367.9,704.1,1365.6,702.1,1421.6z"/>
		<path class="st18" d="M639.8,1429.4l-70.7,256.2c-2.3,8.6-7.9,11.6-16.5,9.4c-7.6-2-12.5,0.5-11.8-7.2l22.6-271.8
			C569.8,1360.6,652.6,1375,639.8,1429.4z"/>
		<path class="st12" d="M673.8,1680c32.9,1.6,42.5,12.8,45.2,20.4c0,0,0,0.1,0,0.1c1.2,3.3-1.3,6.7-4.8,6.8l-71.7,0.2
			c-1.2-2.1-1.9-4.4-2.2-6.8c-1.2-9.8,3.7-20.5,3.7-20.5S659,1683.9,673.8,1680z"/>
		<path class="st19" d="M719.1,1700.4l-78.7,0.3c0.3,2.4,1,4.7,2.2,6.8l71.7-0.2c3.5,0,6-3.5,4.8-6.8L719.1,1700.4z"/>
		<path class="st12" d="M575.9,1699.9v6.4h-41.6v-6.4c0-11.5,9.3-20.9,20.8-20.9C566.6,1679,575.9,1688.3,575.9,1699.9z"/>
		<rect x="534.3" y="1699.9" class="st19" width="41.6" height="6.4"/>
		<path class="st20" d="M558.4,1054.7c-7.9,13.7-4.7,30.5,7.2,37.3c11.9,6.9,28,1.3,35.9-12.4c7.9-13.7,4.7-30.5-7.2-37.3
			C582.4,1035.4,566.3,1041,558.4,1054.7z"/>
		<path class="st20" d="M591.5,1069.1c0,0-28.1-11-30.7-51.2c-2.8-42.1,38.4-50.6,55-38.6L591.5,1069.1z"/>
		<path class="st13" d="M641.5,1100.4c0,0,69.5,14.9,96,111l-67.1,15.3L641.5,1100.4z"/>
		<path class="st21" d="M671.4,1125.9c0,0,20.4,19,24.7,30.9c4.3,11.9-11.7,12.6-11.7,12.6L671.4,1125.9z"/>
		<path class="st20" d="M607.9,975.7c40.6-11.4,67.6,47.6,48.1,78.3L607.9,975.7z"/>
		<path class="st18" d="M563.5,1312.1h126.7c0.7-50.1-5.1-100.8-16.9-149.4c-7-28.4-11.1-51.1-38.1-66.3c1.9-16.8-0.7-41.1-3-51.1
			c-1.2-5.4-5.1-9.5-9.4-10.8c-11.1-3.9-24.2,5.6-20.8,18.1c1-0.6,4.2,35,2,45c-55,17.6-27,80.1-30.7,122
			C572.8,1250.4,569.9,1282,563.5,1312.1z"/>
		<path class="st22" d="M601.6,1051c0.1,0.5,0.2,1.1,0.3,1.6c0.7-0.5,2.8,19.2,2.8,33.5c13.4,6.1,28.4,3.4,31.1,2.8
			c0.8-19.5,1.6-49.1-13-54.4C612.2,1030,599.7,1039.6,601.6,1051z"/>
		<path class="st18" d="M580.5,1037.8c2.3,14,7,29.8,18,39h0c4.5,3.7,9.9,6.1,15.7,7.2c32.6,9.1,70.9-28.8,45.4-56.5
			c-9.3-8.6-11.2-23.7-18.6-32.3c-10.7-15.6-34.3-14.8-47.1-2.1C582.4,1004.8,578.5,1020.6,580.5,1037.8z"/>
		<path class="st23" d="M633.8,1029.2c1.3-2.4-2.6-4.4-3.8-1.9C628.8,1029.7,632.6,1031.7,633.8,1029.2z"/>
		<path class="st23" d="M651.6,1026.2c1.3-2.4-2.6-4.4-3.8-1.9C646.6,1026.7,650.4,1028.7,651.6,1026.2z"/>
		<path class="st23" d="M644.9,1044.6c3.9,0,9.9-2.7,5-6.1c-4-2.2-6.9-10.5-7-10.5c-4.1-3.1,1.8,9.8,6.2,12c3.1,1.9-3.4,3.8-6.1,2.8
			c-0.4-0.1-0.9,0.1-1,0.5C641.8,1044.7,643.9,1044.5,644.9,1044.6z"/>
		<path class="st24" d="M724.7,1577.3c0,0-94.5,52.1-201.8,0.4c0,0,0.7-10.3,2-27.1c5.6-74.8,21.6-279.7,31.1-298.4
			c14.5,3.8,29.5,6.4,44.3,8.1c32.6,3.8,71.8,3.6,102.6,0.1c4.2,21.6,20.2,222.6,21.7,305.2C724.7,1569.8,724.7,1573.7,724.7,1577.3
			z"/>
		<path class="st14" d="M557.3,1247.5c0,0,62.2,55.1,145.6,12.9c-0.1-0.1-11.8-131.4-67.7-164c0,0,6.7,25.5-31.3,1.2
			C556.9,1113,574.6,1188.6,557.3,1247.5z"/>
		<path class="st25" d="M702.9,1260.4c0,0-74.9,30.4-145.6-12.9l-7.7,19.1c0,0,57.7,49.2,155.7,16.5L702.9,1260.4z"/>
		<path class="st13" d="M600.2,1260.3c0,0.1,0,0.2,0,0.4c-3,23.3-6.6,148.4-6.6,260.1c0,0-4.1,0.5-10.6,0.7
			c-17.5,0.7-52.5,0-72.6-15.4c0,0,11.9-216.2,15.4-235.2c9.7-57.3,39.2-115,66.4-163.1c1.4-2.5,2.8-5,4.2-7.4
			C630.6,1147.5,611.3,1204.5,600.2,1260.3z"/>
		<path class="st22" d="M580.5,1037.8c2.3,14,7,29.8,18,39h0c-6.1-7.6-9.9-24.6-9.9-24.6l2.9-7.6c48.6-15.7,44.4-54.8,44.4-54.8
			c-7.2-6.3-17.1-7.5-26.4-5.2C586.7,990.6,577.6,1015.2,580.5,1037.8z"/>
		<path class="st20" d="M631,986.3c0,0,3.6,38.7-39.8,54.5l-15.6-8.6C560.3,1002.3,588.1,958.2,631,986.3z"/>
		<path class="st13" d="M730.5,1515.3c-3.8,3.2-10.2,4.8-15.7,5.6v0c-5.3,0.8-9.6,0.8-9.6,0.8c-8.1-55.5-23.1-299.8-33.9-354.8
			c0-0.2-0.1-0.4-0.1-0.6c-5.8-25.4-23.2-48.3-36-69.8c0.4,0.1,0.9,0.3,1.3,0.4c54,17.9,63.7,106.5,73.1,221.9
			C716.3,1402,730.5,1515.3,730.5,1515.3z"/>
		<path class="st21" d="M595.2,1301.3c0,0-42.1,8.1-71.3-11.9c0,0,0-10.7,1.9-18.6c1.9-7.9,70,24.4,70,24.4L595.2,1301.3z"/>
		<path class="st21" d="M600.2,1260.3c0,0.1,0,0.2,0,0.4c-3,23.3-6.6,148.4-6.6,260.1c0,0-4.1,0.5-10.6,0.7l8.2-254.4
			c14.7-61,35-120.7,5.3-166.7c0,0,1.8-1,3.6-1.8c1.8-0.7,3.7-1.1,3.7-1.1C638,1144.7,611.3,1204.5,600.2,1260.3z"/>
		<path class="st21" d="M714.8,1520.9L714.8,1520.9c-5.3,0.8-9.6,0.8-9.6,0.8c-8.1-55.5-23.1-299.8-33.9-354.8
			c0-0.2-0.1-0.4-0.1-0.6c-5.8-25.4-23.2-48.3-36-69.8c0.4,0.1,0.9,0.3,1.3,0.4c2.7,0.9,5.5,2,8,3.3c2.6,2.8,5.5,6.6,8.2,10.3
			c14.1,19,26.2,43.9,29.3,69.6C687.7,1225.7,709.2,1474.2,714.8,1520.9z"/>
		<path class="st21" d="M605.4,1167.9c0,0-4.1,16-17.2,34.3c-13,18.3-34.2,55.9,12.2,56.8l-1.8,14l-51.8-6.2l10.5-71.5L605.4,1167.9
			z"/>
		<path class="st18" d="M581.4,1109.4c-34.5,25.5-67.3,73-70.7,115.2c-3.6,80,70.9,86.3,127.6,55.5c12-6.1,2-24.5-10.8-21.1
			c-9.3,2.4-16,4.5-25.2,4.8c-81.8,2.3-32.6-63.6-0.9-93.2C601.4,1170.6,604.4,1093.2,581.4,1109.4z"/>
		<path class="st13" d="M523.6,1284c7.9,4.7,17.7,8.2,29.6,10.3c0,0,0.1-26.1,18-34.7c0,0-16.6-23,6.2-54.1
			c12.4-16.9,28.6-28.3,31.2-50.5c1.6-13.4-12.2-54.6-12.2-54.6c-13.9,3.6-51.2,17.1-75.9,55.6C492,1200.6,480.9,1258.9,523.6,1284z
			"/>
		<polygon class="st12" points="645.3,1310.5 737,1303.4 765.2,1146.4 673.5,1153.5 		"/>
		<path class="st18" d="M743.8,1248.5c4,0.8,12-3.7,5.9-7.3c-2.3-1.2-4.5-0.1-6.4,0.6l0.2,0C737.3,1241.6,738.3,1248.2,743.8,1248.5
			z"/>
		<path class="st18" d="M746,1242.4c2.7-0.3,5.8-1.3,7.1-4c1.7-4.2-7-6.6-8.5-2.9c0-0.1,0.1-0.1-0.1,0c-0.2,0.1-0.5,0.2-0.7,0.2
			c0,0-0.1,0,0,0C737.6,1236.7,741.1,1243.1,746,1242.4z"/>
		<path class="st18" d="M748.6,1236.2l3.8-1.4c5.5-2.6-1-7.9-4.8-6.1c0,0-3.8,1.4-3.8,1.4C738.3,1232.7,744.7,1238,748.6,1236.2z"/>
		<path class="st18" d="M749.8,1230.3l3.8-1.4c5.5-2.6-1-7.9-4.8-6.1c0,0-3.8,1.4-3.8,1.4C739.5,1226.8,746,1232.2,749.8,1230.3z"/>
		<path class="st18" d="M626.3,1269.2c0-0.9,0.3-1.7,0.7-2.4c-1.2-1.5-2.2-5.7-0.9-7.4c6.6-8.3,23.3-13.1,32.8-14.5
			c3.8-0.5,7.6-0.7,11.4-0.4c3.7,0.1,3.8,5.9,0,6.1c-4.1,0.3-8.1,1-11.9,2.2c4.9-0.5,9.9-0.7,14.8-0.6c3.6,0,4.1,5.6,0.4,6.1
			c-6.9,1-13.7,2.8-20.3,5c6.5-0.8,12.9-1.9,19.2-3.3c3.7-0.9,5.2,4.9,1.5,5.9c-6.9,2.1-14,3.9-21.1,5.3c3.6-0.2,7.3-0.6,10.9-1.1
			c3.6-0.5,4.8,5.1,1.1,6c-1.3,0.4-2.6,0.7-4,1.1c-9.4,2.3-19,4.1-28.7,4.2c-4.6,0.5-7.9-5.1-4.8-8.8
			C626.8,1271.7,626.3,1270.5,626.3,1269.2z"/>
		<path class="st23" d="M609.1,1043.5c0.4,0,0.7-0.3,0.7-0.6c0-0.4-0.2-0.7-0.6-0.8l-18-2.1c-0.4,0-0.7,0.2-0.8,0.6
			c0,0.4,0.2,0.7,0.6,0.8L609.1,1043.5C609.1,1043.5,609.1,1043.5,609.1,1043.5z"/>
		<path class="st23" d="M602.8,1066.2c0.2,0,0.5-0.1,0.6-0.3c0.2-0.3,0.1-0.8-0.2-1l-18.3-10.9c-0.3-0.2-0.8-0.1-1,0.2
			c-0.2,0.3-0.1,0.8,0.2,1l18.3,10.9C602.5,1066.2,602.7,1066.2,602.8,1066.2z"/>
		<path class="st18" d="M571.6,1044.9c3.4,15.9,22.9,11.8,19.6-4.1C587.7,1024.9,568.3,1029,571.6,1044.9z"/>
		<path class="st23" d="M576.6,1048.2c0.5,0,0.9-0.5,0.8-1c-3-8.5,0.7-12,6.4-9.7c1,0.4,1.6-1.1,0.6-1.5c-6.7-2.7-12.2,1.5-8.5,11.6
			C576,1048,576.3,1048.2,576.6,1048.2z"/>
		<path class="st23" d="M584.1,1047.1c2.5-0.2-2.3-7.9-8.3-8.3c-0.4,0-0.8,0.3-0.9,0.7c0,0.4,0.3,0.8,0.7,0.9
			C581.9,1041,582.6,1046.9,584.1,1047.1z"/>
		<path class="st26" d="M580.3,1052.2c0,2.3,3.6,2.3,3.6,0C584,1049.9,580.3,1049.9,580.3,1052.2z"/>
		<path class="st13" d="M663.9,1033.4c0,0-13.4,11.4-56,7.4c0,0,1.2,16.3-6.6,25c0,0,21.7,16.9,46.2,13c0,0,17.1-7.6,20.4-22.9
			C671.4,1040.5,663.9,1033.4,663.9,1033.4z"/>
		<path class="st23" d="M622.4,1025.3c0.2,0,0.5-0.1,0.6-0.3c4.6-7.6,11.1-8.1,11.2-8.1c0.4,0,0.7-0.4,0.7-0.8
			c0-0.4-0.4-0.7-0.7-0.7c-0.3,0-7.3,0.6-12.3,8.8c-0.2,0.3-0.1,0.8,0.2,1C622.1,1025.2,622.3,1025.3,622.4,1025.3z"/>
		<path class="st23" d="M650.9,1018.2c0.2,0,0.5-0.1,0.6-0.3c0.2-0.3,0.1-0.8-0.2-1c-0.2-0.1-5.1-3.1-10.5-1.9
			c-0.4,0.1-0.6,0.5-0.5,0.8c0.1,0.4,0.5,0.6,0.8,0.5c4.9-1.1,9.4,1.7,9.5,1.7C650.7,1018.1,650.8,1018.2,650.9,1018.2z"/>
		<path class="st12" d="M623.7,1260c0,0-2.3,13.1,7.5,23.7c0,0-0.8,2.6-5.4,2.5c0,0-8.2-11-7.3-24.8
			C618.5,1261.3,620.6,1258.8,623.7,1260z"/>
		<path class="st25" d="M724.7,1577.3c0,0-94.5,52.1-201.8,0.4c0,0,0.7-10.3,2-27.1c9.5,1.6,21,6.4,34.5,17
			c40.8,31.9,65.8,4.9,92.4,0c24.2-4.5,32.2,17.2,72.8-2C724.7,1569.8,724.7,1573.7,724.7,1577.3z"/>
	</g>
	<g id="_x32_">
		<path class="st18" d="M2653.9,1689.7c-9.8-12.9,2.1-71.8,1.7-86.9h-44.3c-0.5,15,10.6,74.1,1.3,86.8
			C2610,1694.3,2656.6,1694.3,2653.9,1689.7z"/>
		<path class="st18" d="M2436.9,1707.5h77.6c4.6,0,8.2-3.9,7.8-8.5c-0.7-8-2.5-19-1.9-24.1c-0.3-4.7,6.5-65.6,7-71.9h-48.9l7.9,62.9
			c0.9,7.4-3.5,14.5-10.6,16.8c-9.6,3.2-20.5,4.5-27.7,6.4c-7,1.8-13.2,4.2-16.4,9.5C2429.3,1702.5,2432.3,1707.5,2436.9,1707.5z"/>
		<path class="st19" d="M2524.8,1699.3L2524.8,1699.3c-0.6,4.7-4.5,8.2-9.2,8.2h-78.2c-4.5,0-7.8-4.4-6.4-8.6
			c4.1-12.9,17-20.8,53.6-24.1c0,0,13.5,4,35.6,0C2520.3,1674.8,2526.2,1687.6,2524.8,1699.3z"/>
		<path class="st19" d="M2650.3,1707.5h-34.1c-4.8,0-8.7-4-8.5-8.7c1.5-32.1,49.8-32.4,51,0
			C2659,1703.5,2655.1,1707.5,2650.3,1707.5z"/>
		<path class="st27" d="M2455.9,1696.4c-0.7,0-1.3-0.4-1.6-1.1c-3.1-7.8-8.8-10.1-9.1-10.2c-2.1-0.8-0.8-4.1,1.3-3.2
			c0.3,0.1,7.3,3,11,12.2C2458,1695.1,2457.1,1696.4,2455.9,1696.4z"/>
		<path class="st27" d="M2469.4,1694.8c-0.7,0-1.4-0.5-1.7-1.2c-2.8-8.9-10.6-13.1-10.7-13.2c-2-1-0.4-4.2,1.6-3.1
			c0.4,0.2,9.2,4.9,12.4,15.2C2471.4,1693.6,2470.5,1694.8,2469.4,1694.8z"/>
		<path class="st27" d="M2484.8,1692.9c-0.7,0-1.4-0.4-1.6-1.2c-3.3-9.4-10.7-14.4-10.8-14.5c-1.9-1.2,0.1-4.2,1.9-2.9
			c0.3,0.2,8.5,5.7,12.2,16.2C2486.8,1691.7,2485.9,1692.9,2484.8,1692.9z"/>
		<path class="st27" d="M2645.8,1685.2c-13.3-7.5-25.1,2.3-27-1c-1.6-3.5,15.8-8.8,27.9-2.2
			C2648.2,1682.8,2647.5,1685.3,2645.8,1685.2z"/>
		<path class="st28" d="M2430.9,1699.3h93.9l0,0.1c-0.6,4.6-4.5,8.1-9.2,8.1h-79c-4.2,0-7.1-4.1-5.8-8
			C2430.9,1699.4,2430.9,1699.3,2430.9,1699.3z"/>
		<path class="st28" d="M2651,1707.5h-35.5c-4.4,0-8-3.6-7.8-8c0,0,0-0.1,0-0.1h51.1c0,0.1,0,0.1,0,0.2
			C2659,1703.8,2655.4,1707.5,2651,1707.5z"/>
		<path class="st29" d="M2534.9,906.1c0,0-4.5-25.2,17.6-33.3l14,10.5L2534.9,906.1z"/>
		<path class="st13" d="M2496.6,1094.3c-62.1,46.7-159.1,32.7-195.1-35.2l9.1-18.9c104.1,44.7,145.1-42.9,229.5-48l-17,21.7
			C2523.2,1013.9,2498.1,1092.8,2496.6,1094.3z"/>
		<path class="st8" d="M2661,1662.8c0,0-37.3,9.1-56.5-0.7c-10-62.7-37.8-237.4-47.5-357.2c-0.4,7-20.7,288.5-24.6,357.2
			c-13.3,4.4-40,9.8-54.9-1c-6.7-72.3-28.2-310.2,4.2-504.5c0,0,88.9,9.9,158.4-11.1C2659.2,1207.2,2664.3,1588.8,2661,1662.8z"/>
		<path class="st18" d="M2549.8,990.5c-0.6-19.2-3-57.2,12.6-62.3c11.2-3.9,24.4,5.6,21,18.2c-1-0.6-4.3,35.3-2,45.2
			C2610.8,1000.5,2522.1,1029.6,2549.8,990.5z"/>
		<path class="st22" d="M2583.6,944.8c-0.1,0.5-0.2,1.1-0.3,1.6c-0.7-0.5-2.8,19.3-2.8,33.7c-13.5,6.1-28.2,3.7-31,3.2
			c-0.8-19.8-2-49.6,12.8-55.1C2572.9,923.7,2585.5,933.3,2583.6,944.8z"/>
		<path class="st18" d="M2604.9,931.6c-2.3,14.1-7,29.9-18.1,39.2h0c-16.2,12.3-39.9,11-56.4-2.6h0c-12.7-11.9-16.7-27.9-10-40.2
			c4.4-7.3,12.4-13.7,14.6-21.9C2553.7,851,2612.9,881.8,2604.9,931.6z"/>
		<path class="st23" d="M2551.2,922.9c-1.3-2.4,2.6-4.4,3.8-1.9C2556.2,923.4,2552.4,925.4,2551.2,922.9z"/>
		<path class="st23" d="M2533.3,919.9c-1.3-2.4,2.6-4.4,3.8-1.9C2538.3,920.4,2534.5,922.4,2533.3,919.9z"/>
		<path class="st22" d="M2604.9,931.6c-2.3,14.1-7,29.9-18.1,39.2h0c-0.9,0.8-1.6,1.1-2.6,1.8c8.5-8.4,13-26.1,13-26.1l-2-15.3
			c-13.7-13.8-7.8-29.4-7.8-29.4c-22.8,6.4-30.5-7.7-30.5-7.7c-7.2,0.9-14.8-2.8-14.8-2.8C2568.1,853.9,2612.9,893.8,2604.9,931.6z"
			/>
		<path class="st29" d="M2597.9,894.9c-9.7,3.8-13.1,26.4,9.8,41.8C2607.7,936.7,2618.8,899.6,2597.9,894.9z"/>
		<path class="st21" d="M2319.3,1043.7c3.9,19.1-13,23.5-13,23.5c-3.2-4.8-4.8-8.2-4.8-8.2l9.1-18.9
			C2310.6,1040.1,2314.6,1041.5,2319.3,1043.7z"/>
		<path class="st23" d="M2540,938.4c-3.9,0-10-2.7-5-6.1c4-2.2,7-10.5,7-10.6c0.3-1,1.9-0.5,1.5,0.5c-0.1,0.4-3.2,9-7.8,11.5
			c-3.2,1.9,3.4,3.8,6.1,2.9c0.4-0.1,0.9,0.1,1,0.5C2543.1,938.5,2541,938.3,2540,938.4z"/>
		<path class="st27" d="M2649,1232.7c-48.3,20.1-168.5,21.7-180.2,7.5c-22.8-56.3,19.3-206.4,71.4-248c0.5-0.1,6.3-1.6,9.6-1.6
			c-0.2,0.9-6.1,25.2,31.5,1.2c0.2,0.3,9.2,0.4,11.6,2.1C2590.2,1033,2666.5,1189.7,2649,1232.7z"/>
		<path class="st21" d="M2494.1,1025.9l-23.3,83.6c-36.4,20.1-98.6,15.9-127.5-6.6c103.4,40.1,111.9-39.1,149.4-76.9H2494.1z"/>
		<path class="st29" d="M2594.1,873.3c-7.6-9-21.4-13.4-24.6-22.6c0,0-4.7,8.8-4.2,18.6c-3.7-4.1-7.1-8.6-9.7-13.5
			c-3.7,3.8-5.7,8.1-6.3,12.5c-11.8-2.6-22.2,2.2-22.2,2.2c6.1,17.2,20.3,21,31.4,21.1c9.2,8.8,24,12.9,38.3,4.1l13.8,17.8
			C2630.1,879.5,2594.1,873.3,2594.1,873.3z"/>
		<path class="st30" d="M2532.4,1662.1c-0.3-6,24.6-357.2,24.6-357.2s-11.7,6.3-14.5,43.6c-2.4,32.4-16.9,247.8-20.7,303.5
			c-25.5,5.7-45.4-3.5-45.4-3.5c0.8,8.2,1.2,12.6,1.2,12.6c12.2,8.8,32.3,6.8,46.5,3.4c3.4-0.8,6.1-1.6,7.5-2.1
			C2531.8,1662.4,2532.1,1662.2,2532.4,1662.1z"/>
		<path class="st30" d="M2661,1662.8c0,0-37.3,9.1-56.5-0.7c0,0-0.8-4.9-2.2-13.5c0,0,26.3,7.1,59.2-0.3
			C2661.6,1656.8,2660.8,1662.1,2661,1662.8z"/>
		<path class="st13" d="M2684.7,1485.1c-35.5,10-65.9,9.5-81.2,8.2c-6.8-0.6-10.6-1.3-10.6-1.3s-11.9-246.7-15.6-298.9
			c-5.9-53.8-10.1-178.1,15.6-199.4l9.5,3.1C2664.8,1074.3,2678.9,1447.2,2684.7,1485.1z"/>
		<path class="st13" d="M2478.4,1494c0,0-3.4,0.5-8.5,0.7c-10.1,0.4-26.7-0.6-36-9.6c-1.2-19.9-17.3-467.2,94.9-491.9l0,0
			c3.7-0.8,7.4-1.2,11.4-1C2466.9,1061.1,2471.2,1436.1,2478.4,1494z"/>
		<path class="st13" d="M2585.6,959.3c0,0-39,23.3-55.3,8.9c-14.4-12.6-16.7-27.9-10-40.2c0,0,18.4,6.4,59.8,4.6
			C2580.1,932.7,2577.2,951.4,2585.6,959.3z"/>
		<path class="st23" d="M2580.1,933.5c-0.9,0-1.1-1.4-0.2-1.6l17.2-4.6C2602.6,929.1,2579.9,933,2580.1,933.5z"/>
		<path class="st23" d="M2585.6,960.1c-0.8,0-1.1-1.1-0.4-1.5c0.5,0.2,16.8-12.3,16.9-10.2C2603.3,949.7,2586.2,959.7,2585.6,960.1z
			"/>
		<path class="st18" d="M2613.8,938.7c-3.5,16-23,11.9-19.7-4.2C2597.6,918.6,2617.1,922.7,2613.8,938.7z"/>
		<path class="st23" d="M2608.7,942c-0.5,0-0.9-0.5-0.8-1c3-8.5-0.7-12.1-6.5-9.7c-5.6-1.9,14.3-7.1,8,10.2
			C2609.4,941.8,2609.1,942,2608.7,942z"/>
		<path class="st23" d="M2601.2,940.9c-2.4-0.3,2.2-7.8,8.4-8.3c1-0.1,1.2,1.6,0.1,1.6C2603.5,934.8,2602.7,940.7,2601.2,940.9z"/>
		<path class="st21" d="M2594.4,1040.9c-4,31.4,25.5,82.1-20.7,96.3l34.8,8.4l9.7-37.7L2594.4,1040.9z"/>
		<path class="st21" d="M2478.4,1494c0,0-3.4,0.5-8.5,0.7c-6.9-65.1-4.9-148.7-3.4-189.7c1.6-42.4,6.8-130,21-207.2
			c14.3-77.2,41.2-104.5,41.2-104.5l0,0c3.7-0.8,7.4-1.2,11.4-1C2466.9,1061.1,2471.2,1436.1,2478.4,1494z"/>
		<path class="st21" d="M2655.4,1180.9l0.6,5.9c-27.5,13.6-78.7,6.4-78.7,6.4c-0.5-7.9-1-15.6-1.5-22.9l72.4-21.3
			C2650.5,1161.8,2653.6,1167.7,2655.4,1180.9z"/>
		<path class="st21" d="M2603.5,1493.3c-6.8-0.6-10.6-1.3-10.6-1.3s-11.9-246.7-15.6-298.9c-5.9-53.8-10.1-178.1,15.6-199.5l9.5,3.1
			c-8.6,5.1-20.7,41.2-20.4,93.6c0.4,70.2,7.6,155.4,11.1,214.6C2596.2,1355.8,2601.9,1463.6,2603.5,1493.3z"/>
		<path class="st18" d="M2491,1127.3c-2.8,3.4,8.7,8.1,10.7,11.6c-7.6,1.3-15.6,0.5-15.7,0.5c-9.2-2.7-18.1-5.9-27-9.5
			c-2.8-1.2-4.9,3.1-2.2,4.5c8.1,4.5,16.5,8.7,25,12.5c0,0.1,0,0.1,0,0.1c-9.4-0.7-18.9-1.9-28.1-3.9c-1.1-0.2-2.4-0.1-3.4,0.5
			c-8.9,4.9,28.4,10.8,31.5,11.5c0,0,0,0,0,0.1c-8.9,0.8-18,0.6-26.9-0.5c-1.3-0.2-2.7,0.1-3.7,1c-7.1,5.7,30,8.5,33.3,8.1
			c0,0,0,0.1,0,0.1c-6.9,1.7-13.9,2.5-21,2.9c-1.1,0.1-2.3,0.5-3.1,1.3c-6.8,6.5,25.4,4.3,28.5,3.7c3.7,0.2,15,4.4,31.9-1.5
			c5.3-1.8,7.6-26.3,2.3-27.5c-4-0.9-11.1-5-13.4-6.2C2506.4,1134,2494.7,1123.6,2491,1127.3z"/>
		<path class="st13" d="M2532.5,1174.5c-3.8-1.3-7.7-2.6-11.6-4.1c-0.6-3.4-4.6-19.5,2.3-27.5c165.2-7.2,39.3-62.7,79.2-146.1
			C2720.9,1004.6,2780.2,1244,2532.5,1174.5z"/>
		<path class="st21" d="M2532.5,1174.5c-3.8-1.3-7.7-2.6-11.6-4.1c-0.6-3.4-4.6-19.5,2.3-27.5c0,0,4.5-0.5,9.3-0.5
			C2532.5,1142.5,2524.4,1156.8,2532.5,1174.5z"/>
		<path class="st23" d="M2561.3,919.6c-0.2,0-0.5-0.1-0.6-0.4c-2.8-6.2-9.5-6.1-9.6-6.1c-0.3,0-0.7-0.3-0.7-0.6
			c0-0.4,0.3-0.7,0.6-0.7c0.1,0,7.6-0.2,10.8,6.8c0.1,0.3,0,0.7-0.3,0.9C2561.5,919.6,2561.4,919.6,2561.3,919.6z"/>
		<path class="st23" d="M2534.5,912.1c-0.2,0-0.4-0.1-0.5-0.3c-0.2-0.3-0.2-0.7,0.1-0.9c0.2-0.1,3.8-2.8,9.7-0.7
			c0.3,0.1,0.5,0.5,0.4,0.8c-0.1,0.3-0.5,0.5-0.8,0.4c-5.2-1.9-8.4,0.4-8.5,0.5C2534.8,912,2534.6,912.1,2534.5,912.1z"/>
		<path class="st31" d="M2592.9,993.8c-8,7.6-57.1,40.3-52.7-1.6c0.5-0.1,6.3-1.6,9.6-1.6c-0.2,0.9-4,23.6,31.5,1.2
			C2581.5,991.6,2590.5,992.2,2592.9,993.8z"/>
		<path class="st9" d="M2376.4,991c0,12-2.5,697.3-2.4,680.8c-0.3,47.1-90.8,46.9-90.7-0.3c0.1-8.7,2.3-652.3,2.4-680.8l6.3,0
			L2376.4,991z"/>
		<path class="st8" d="M2374.1,1637.2c0.1,5.7-0.2,28.5-0.1,34.6c1.1,33.8-56.1,47.3-79.1,24v0c-16.8-11.8-10.6-41.9-11.5-58.9
			L2374.1,1637.2z"/>
		<path class="st10" d="M2316.7,1616.6c-6.3-2.5-4-626.7,2.2-629.2C2325.2,990,2322.9,1614.1,2316.7,1616.6z"/>
		<path class="st32" d="M2376.4,991c-15.3,0-74.4-0.3-90.7-0.3c11.1-28.6,34.9-90.4,45.8-118.6C2342,900.1,2365.6,962.4,2376.4,991z
			"/>
		<path class="st8" d="M2349.7,920.3c-11.5,4.1-25.6,4-36.8-0.1l18.6-48.1L2349.7,920.3z"/>
		<polygon class="st11" points="2292,990.7 2292,1613.3 2283.5,1613.3 2285.7,990.6 		"/>
		<path class="st30" d="M2374.1,1645.9l-0.1,25.9c1.1,33.8-56.1,47.3-79.1,24v0c0,0,59,1.2,59-50L2374.1,1645.9z"/>
		<path class="st33" d="M2383.2,1637.8c0,4.5-3.7,8.1-8.1,8l-21.4-0.1l-71.3-0.3c-10.5,0.1-10.4-16.4,0.1-16.1
			c0,0,92.7,0.3,92.7,0.3C2379.6,1629.8,2383.2,1633.4,2383.2,1637.8z"/>
		<path class="st33" d="M2383.2,1621.7c0,4.5-3.6,8.1-8.1,8l-21.4-0.1l-71.3-0.3c-10.5,0.1-10.4-16.4,0.1-16.2
			c0,0,92.7,0.3,92.7,0.3C2379.6,1613.6,2383.2,1617.2,2383.2,1621.7z"/>
		<path class="st34" d="M2360.6,1637.8c0,4.1-3.1,7.4-7,8l-71.3-0.3c-4.5,0-8.1-3.6-8-8.1c0-4.1,3.1-7.4,7-8l71.3,0.3
			C2357.1,1629.8,2360.7,1633.4,2360.6,1637.8z"/>
		<path class="st34" d="M2360.7,1621.7c0,4.1-3.1,7.4-7,8l-71.3-0.3c-4.5,0-8.1-3.6-8-8.1c0-4.1,3.1-7.4,7-8l71.3,0.3
			C2357.1,1613.6,2360.7,1617.2,2360.7,1621.7z"/>
		<polygon class="st10" points="2376.4,991 2374.2,1613.4 2353.4,1613.6 2353.4,991 		"/>
		<path class="st35" d="M2376.4,991h-22.9c0,0-22-118.9-22-118.9C2342,900.1,2365.6,962.4,2376.4,991z"/>
		<path class="st30" d="M2349.7,920.3c-2.8,1-5.8,1.7-8.9,2.3l-9.3-50.5L2349.7,920.3z"/>
		<path class="st18" d="M2285.6,1069c-13.5-2.4-8.9-17.8,2.2-8.7l-0.2,0C2294.7,1061.4,2292.2,1070.2,2285.6,1069z"/>
		<path class="st18" d="M2284.5,1060.3c-15.6-6.2-2.2-19.1,3.3-8.8c-0.1-0.2,0.5,0.4,0.8,0.5c0,0,0.3,0.1,0.1,0
			C2295.5,1054.6,2290.4,1062.6,2284.5,1060.3z"/>
		<path class="st18" d="M2283,1051.2l-4.1-2.9c-5.6-4.4,2.6-10.5,7.1-6.7c0,0,4.1,2.9,4.1,2.9
			C2295.7,1048.8,2287.5,1054.9,2283,1051.2z"/>
		<path class="st18" d="M2283,1043.1l-4.1-2.9c-5.6-4.4,2.6-10.5,7.1-6.7c0,0,4.1,2.9,4.1,2.9
			C2295.7,1040.7,2287.5,1046.8,2283,1043.1z"/>
	</g>
	<g id="_x31_">
		<polygon class="st13" points="1494,474 1449.8,474 1449.8,429.8 1420.1,429.8 1420.1,474 1375.8,474 1375.8,503.8 1420.1,503.8 
			1420.1,548 1449.8,548 1449.8,503.8 1494,503.8 		"/>
		<polygon class="st5" points="1042.4,387.2 998.2,387.2 998.2,343 968.4,343 968.4,387.2 924.2,387.2 924.2,417 968.4,417 
			968.4,461.2 998.2,461.2 998.2,417 1042.4,417 		"/>
		<polygon class="st5" points="1888.8,274.7 1844.6,274.7 1844.6,230.5 1814.8,230.5 1814.8,274.7 1770.6,274.7 1770.6,304.5 
			1814.8,304.5 1814.8,348.7 1844.6,348.7 1844.6,304.5 1888.8,304.5 		"/>
	</g>
</g>
</svg>
