<?xml version="1.0" encoding="utf-8"?>
<!-- Generator: Adobe Illustrator 22.0.0, SVG Export Plug-In . SVG Version: 6.00 Build 0)  -->
<svg version="1.1" id="_x3C_Layer_x3E_" xmlns="http://www.w3.org/2000/svg" xmlns:xlink="http://www.w3.org/1999/xlink" x="0px"
	 y="0px" viewBox="0 0 2760 1840" style="enable-background:new 0 0 2760 1840;" xml:space="preserve">
<style type="text/css">
	.st0{display:none;fill:#FFFFFF;}
	.st1{fill:#EBF3FA;}
	.st2{fill:#8C9DF4;}
	.st3{fill:#BDD1F9;}
	.st4{fill:#F77D48;}
	.st5{fill:#FFB93E;}
	.st6{fill:#FFA412;}
	.st7{fill:#739AF0;}
	.st8{fill:#163560;}
	.st9{fill:#ED7D2B;}
	.st10{fill:#2E5A99;}
	.st11{fill:#18417C;}
	.st12{fill:#1C468A;}
	.st13{fill:#FFB27D;}
	.st14{fill:#F99746;}
	.st15{fill:#FCA56B;}
	.st16{fill:#FFEDDC;}
	.st17{fill:#DB6A1D;}
	.st18{fill:#E5C1A1;}
	.st19{fill:#F9DDBF;}
	.st20{opacity:0.5;fill:#E2810E;}
	.st21{fill:#E2810E;}
	.st22{opacity:0.7;}
	.st23{fill:#77A4E5;}
	.st24{fill:#9FC1F4;}
	.st25{fill:#36599E;}
	.st26{fill:#2B478B;}
	.st27{fill:#E8945B;}
	.st28{fill:#233862;}
	.st29{fill:#FFFFFF;}
	.st30{fill:#B5453C;}
	.st31{fill:#95C0F4;}
	.st32{fill:#B0D4FF;}
	.st33{fill:#ED975D;}
	.st34{fill:#6980E2;}
	.st35{fill:#2E3552;}
</style>
<rect class="st0" width="2760" height="1840"/>
<g>
	<path class="st1" d="M227,1597.4c0.6-10.5-246.5-325.7,41.3-616.8c129.9-131.4,349.7-60.2,314.9-444
		c-30-331.4,488.4-526.1,810.6-230.2c208.2,191.2,418.9-63.9,749.2,80.8c330.3,144.7,112.8,538,248.3,575
		c267,73,399.5,394.2,186.7,631.6L227,1597.4z"/>
	<g>
		<path class="st2" d="M1339.8,831.2c-1.4-2.9-2.9-5.8-4.6-8.7l4.6-2.6c1.7,3,3.3,6,4.8,9L1339.8,831.2z M1330.1,814.1
			c-1.8-2.7-3.7-5.4-5.6-8.1l4.3-3.2c2,2.8,4,5.6,5.8,8.4L1330.1,814.1z M798.9,873c-3.4,0.4-6.8,0.6-10.1,0.8l-0.3-5.3
			c3.2-0.2,6.6-0.5,9.9-0.8L798.9,873z M808.9,871.7l-0.8-5.3c3.2-0.5,6.5-1.1,9.7-1.7l1.1,5.2C815.6,870.6,812.2,871.2,808.9,871.7
			z M778.6,874.2c-3.4,0-6.8,0-10.2-0.2l0.2-5.3c3.2,0.1,6.6,0.2,9.9,0.2L778.6,874.2z M828.8,867.7l-1.3-5.2
			c3.2-0.8,6.4-1.6,9.6-2.5l1.5,5.1C835.3,866.1,832.1,866.9,828.8,867.7z M758.3,873.3c-3.4-0.3-6.8-0.8-10.1-1.3l0.9-5.3
			c3.2,0.5,6.5,1,9.8,1.3L758.3,873.3z M848.3,862.1l-1.7-5.1c3.1-1,6.3-2.1,9.4-3.3l1.9,5C854.6,860,851.4,861.1,848.3,862.1z
			 M867.2,855.1l-2-5c3-1.2,6.1-2.6,9.1-3.9l2.2,4.9C873.5,852.5,870.3,853.9,867.2,855.1z M738.3,870c-3.3-0.8-6.6-1.6-9.9-2.6
			l1.5-5.1c3.1,0.9,6.3,1.8,9.5,2.5L738.3,870z M1318.4,798.1c-2.1-2.5-4.2-5-6.5-7.5l4-3.6c2.3,2.5,4.5,5.1,6.6,7.7L1318.4,798.1z
			 M885.7,846.9l-2.3-4.8c2.9-1.4,5.9-2.9,8.9-4.5l2.5,4.7C891.7,843.9,888.7,845.4,885.7,846.9z M718.7,864.2
			c-3.2-1.2-6.4-2.5-9.4-3.9l2.2-4.9c3,1.3,6,2.6,9.1,3.7L718.7,864.2z M903.6,837.6l-2.6-4.7c2.9-1.6,5.8-3.3,8.6-5l2.7,4.6
			C909.4,834.2,906.5,835.9,903.6,837.6z M1305.1,783.5c-2.3-2.3-4.7-4.6-7.2-6.8l3.6-4c2.5,2.3,5,4.6,7.4,7L1305.1,783.5z
			 M700.1,855.8c-3-1.6-6-3.4-8.8-5.2l2.9-4.5c2.7,1.8,5.6,3.4,8.5,5L700.1,855.8z M920.9,827.2l-2.9-4.5c2.8-1.7,5.6-3.6,8.3-5.4
			l3,4.4C926.6,823.6,923.7,825.5,920.9,827.2z M937.7,816l-3.1-4.4c2.7-1.9,5.4-3.8,8.1-5.8l3.2,4.3
			C943.2,812.2,940.4,814.1,937.7,816z M683,844.8c-2.7-2-5.4-4.2-7.9-6.5l3.5-4c2.4,2.1,5,4.2,7.6,6.2L683,844.8z M1290.4,770.3
			c-2.5-2.1-5.2-4.1-7.8-6.1l3.2-4.3c2.7,2,5.4,4.1,8,6.2L1290.4,770.3z M953.9,804.1l-3.3-4.2l0.8-0.6c2.4-1.9,4.8-3.7,7.2-5.5
			l3.2,4.3c-2.4,1.8-4.8,3.6-7.1,5.4L953.9,804.1z M1274.5,758.5c-2.7-1.8-5.5-3.6-8.3-5.3l2.8-4.6c2.9,1.7,5.8,3.6,8.6,5.5
			L1274.5,758.5z M667.7,831.3c-2.4-2.4-4.7-5-6.8-7.6l4.1-3.4c2.1,2.5,4.3,5,6.5,7.3L667.7,831.3z M969.9,792.1l-3.1-4.3
			c2.7-2,5.5-3.9,8.2-5.8l3,4.4C975.4,788.3,972.6,790.2,969.9,792.1z M1257.6,748.2c-2.9-1.6-5.8-3.1-8.8-4.5l2.3-4.8
			c3,1.5,6.1,3,9,4.6L1257.6,748.2z M986.3,780.8l-2.9-4.5c2.8-1.9,5.7-3.7,8.5-5.5l2.9,4.5C991.9,777.2,989.1,779,986.3,780.8z
			 M654.7,815.5c-1.9-2.8-3.8-5.7-5.5-8.6l4.6-2.7c1.6,2.8,3.4,5.6,5.3,8.3L654.7,815.5z M1003.2,770.2l-2.7-4.6
			c2.9-1.7,5.8-3.4,8.7-5.1l2.6,4.7C1008.9,766.8,1006,768.5,1003.2,770.2z M1239.8,739.7c-3-1.3-6.1-2.5-9.2-3.6l1.9-5
			c3.2,1.2,6.3,2.4,9.4,3.7L1239.8,739.7z M1020.5,760.4l-2.5-4.7c3-1.6,6-3.1,9-4.6l2.4,4.8
			C1026.4,757.3,1023.4,758.8,1020.5,760.4z M1221.2,732.8c-3.1-1-6.3-1.9-9.5-2.8l1.4-5.2c3.3,0.9,6.5,1.8,9.7,2.8L1221.2,732.8z
			 M1038.3,751.5l-2.3-4.8c3.1-1.4,6.1-2.8,9.2-4.2l2.1,4.9C1044.3,748.7,1041.3,750,1038.3,751.5z M644.3,797.9
			c-1.5-3.1-2.8-6.2-4.1-9.4l5-1.9c1.2,3,2.5,6.1,3.9,9L644.3,797.9z M1202.1,727.8c-3.2-0.7-6.5-1.3-9.7-1.9l0.9-5.3
			c3.3,0.6,6.7,1.2,10,1.9L1202.1,727.8z M1056.5,743.5l-2-5c3.1-1.3,6.3-2.5,9.4-3.6l1.8,5C1062.7,741.1,1059.6,742.3,1056.5,743.5
			z M1182.6,724.5c-3.3-0.4-6.6-0.7-9.8-0.9l0.4-5.3c3.4,0.2,6.8,0.6,10.1,1L1182.6,724.5z M1075.2,736.7l-1.7-5.1
			c3.2-1.1,6.5-2.1,9.6-3l1.5,5.1C1081.5,734.6,1078.3,735.6,1075.2,736.7z M1162.9,723c-3.3-0.1-6.6-0.1-9.9-0.1l-0.1-5.3
			c3.4-0.1,6.8,0,10.1,0.1L1162.9,723z M1094.2,731.1l-1.3-5.2c3.3-0.8,6.6-1.6,9.8-2.3l1.1,5.2
			C1100.6,729.5,1097.4,730.3,1094.2,731.1z M1143.1,723.3c-3.3,0.2-6.6,0.4-9.9,0.8l-0.5-5.3c3.4-0.3,6.8-0.6,10.1-0.8
			L1143.1,723.3z M1113.6,726.9l-0.9-5.3c3.3-0.6,6.7-1.1,10-1.6l0.7,5.3C1120.1,725.7,1116.8,726.3,1113.6,726.9z M636.9,778.8
			c-1-3.2-1.9-6.5-2.6-9.9l5.2-1.2c0.7,3.2,1.6,6.4,2.5,9.5L636.9,778.8z M632.5,758.9c-0.2-1.2-0.3-2.5-0.5-3.7
			c-0.3-2.1-0.5-4.3-0.6-6.5l5.3-0.4c0.2,2.1,0.4,4.2,0.6,6.2c0.1,1.2,0.3,2.4,0.5,3.6L632.5,758.9z M636.3,738.5l-5.3,0
			c0-3.4,0.1-6.8,0.3-10.2l5.3,0.3C636.3,732,636.2,735.3,636.3,738.5z M637.4,718.9l-5.3-0.6c0.4-3.3,0.9-6.6,1.5-9.9l5.3,0.8
			l0,0.2C638.3,712.5,637.8,715.7,637.4,718.9z M640.9,699.4l-5.2-1.2c0.7-3.3,1.6-6.6,2.4-9.8l5.2,1.4
			C642.4,693,641.6,696.2,640.9,699.4z M823.8,672.4c-3.5,0.3-7,0.4-10.4,0.3l0.3-5.3c3.1,0.1,6.4,0.1,9.6-0.2L823.8,672.4z
			 M834,670.8l-1.1-5.2c3.1-0.7,6.3-1.6,9.4-2.6l1.7,5.1C840.6,669.1,837.3,670,834,670.8z M803,671.3c-3.5-0.8-6.9-1.9-10-3.2
			l2.1-4.9c2.8,1.2,5.8,2.2,9,2.9L803,671.3z M853.5,664.2l-2.2-4.9c2.9-1.3,5.9-2.8,8.7-4.4l2.7,4.6
			C859.7,661.3,856.6,662.8,853.5,664.2z M871.3,654l-3.1-4.4c2.7-1.9,5.3-3.9,7.7-6l3.5,4.1C876.8,650,874.1,652.1,871.3,654z
			 M646.1,680.3l-5.1-1.6c1-3.2,2.1-6.4,3.3-9.6l5,1.9C648.1,674.1,647.1,677.2,646.1,680.3z M783.8,662.8c-2.8-2.1-5.4-4.6-7.7-7.3
			l4.1-3.4c2,2.4,4.3,4.6,6.8,6.4L783.8,662.8z M886.9,640.7l-3.8-3.7c2.3-2.3,4.4-4.8,6.4-7.3l4.2,3.3
			C891.6,635.6,889.3,638.2,886.9,640.7z M652.9,661.8l-4.9-2.1c1.3-3.1,2.7-6.2,4.2-9.2l4.8,2.3
			C655.6,655.7,654.2,658.8,652.9,661.8z M770.2,646.7c-1.6-3-2.9-6.3-4-9.7l5.1-1.6c1,3.1,2.2,6.1,3.6,8.8L770.2,646.7z
			 M899.6,624.6l-4.5-2.8c1.7-2.8,3.3-5.6,4.7-8.5l4.8,2.3C903.1,618.6,901.5,621.6,899.6,624.6z M661.4,643.9l-4.7-2.5
			c1.6-3,3.3-5.9,5-8.8l4.6,2.7C664.6,638.1,663,641,661.4,643.9z M763.9,626.9c-0.1-0.9-0.3-1.9-0.4-2.8c-0.3-2.4-0.5-4.9-0.6-7.4
			l5.3-0.2c0.1,2.4,0.3,4.8,0.5,7c0.1,0.9,0.2,1.8,0.4,2.7L763.9,626.9z M908.6,606l-5.1-1.7c1.1-3.1,1.9-6.2,2.6-9.3l5.2,1.1
			C910.6,599.4,909.7,602.7,908.6,606z M671.6,626.9l-4.5-2.9c1.8-2.8,3.8-5.6,5.8-8.3l4.3,3.1C675.3,621.5,673.4,624.2,671.6,626.9
			z M768.3,606.6l-5.3-0.2c0.1-3.4,0.4-6.8,0.7-10.2l5.3,0.6C768.7,600,768.5,603.3,768.3,606.6z M912.8,585.8l-5.3-0.5
			c0.3-3.2,0.4-6.4,0.2-9.7l5.3-0.2C913.2,578.9,913.1,582.4,912.8,585.8z M683.2,611l-4.2-3.3c2.1-2.6,4.3-5.2,6.5-7.8l4,3.5
			C687.4,605.9,685.3,608.4,683.2,611z M696.3,596.1l-3.9-3.7c2.3-2.4,4.8-4.8,7.2-7.1l3.7,3.9C700.9,591.4,698.6,593.7,696.3,596.1
			z M770.5,587.1l-5.3-1c0.6-3.4,1.4-6.7,2.2-10l5.2,1.4C771.8,580.7,771.1,583.9,770.5,587.1z M906.6,566.3
			c-0.7-3.1-1.8-6.1-3.2-8.8l4.8-2.4c1.6,3.1,2.8,6.5,3.6,10L906.6,566.3z M710.6,582.5l-3.5-4c2.5-2.2,5.2-4.4,7.8-6.5l3.3,4.2
			C715.7,578.2,713.1,580.3,710.6,582.5z M775.5,568.2l-5-1.8c1.1-3.2,2.4-6.4,3.8-9.5l4.9,2.2C777.9,562.1,776.6,565.2,775.5,568.2
			z M898.3,549.7c-2-2.3-4.3-4.5-6.8-6.5l3.3-4.2c2.9,2.2,5.4,4.7,7.7,7.3L898.3,549.7z M726.1,570.2l-3.1-4.3
			c2.7-2,5.5-3.9,8.3-5.8l2.9,4.5C731.6,566.3,728.8,568.2,726.1,570.2z M742.7,559.3l-2.8-4.6c2.9-1.7,5.9-3.4,8.8-5l2.5,4.7
			C748.4,555.9,745.5,557.6,742.7,559.3z M783.6,550.4l-4.7-2.6c1.4-2.6,3-5.2,4.7-7.8c-1.8,0.6-3.5,1.3-5.3,1.9l-1.9-5
			c3.2-1.2,6.4-2.3,9.6-3.4l1.7,5.1c-0.9,0.3-1.8,0.6-2.7,0.9l3.7,2.5C786.8,544.8,785.1,547.6,783.6,550.4z M883.4,538.1
			c-2.7-1.4-5.7-2.7-8.9-3.7l1.7-5.1c3.4,1.2,6.6,2.5,9.6,4.1L883.4,538.1z M760.1,549.8l-2.3-4.8c3-1.5,6.1-2.9,9.2-4.2l2.1,4.9
			C766.1,547,763,548.4,760.1,549.8z M865.2,531.8c-3.1-0.7-6.3-1.2-9.6-1.6l0.6-5.3c3.5,0.4,6.9,1,10.1,1.7L865.2,531.8z
			 M797.1,535.8L796,532c-0.6,0.7-1.1,1.4-1.7,2.1l-4.2-3.3c2.1-2.6,4.3-5.3,6.6-7.8l4,3.6c-1.1,1.2-2.1,2.4-3.2,3.6
			c2.7-0.7,5.4-1.4,8-1.9l1.2,5.2C803.5,534.1,800.3,534.9,797.1,535.8z M845.8,529.5c-3.2-0.1-6.5-0.1-9.8,0l-0.2-5.3
			c3.5-0.1,6.9-0.2,10.2,0L845.8,529.5z M816.4,531.6l-0.9-5.3c3.4-0.6,6.8-1,10.1-1.4l0.6,5.3C822.9,530.6,819.7,531,816.4,531.6z
			 M807.5,519.5l-3.7-3.8c2.4-2.3,4.9-4.6,7.5-6.8l3.5,4.1C812.2,515,809.8,517.2,807.5,519.5z M822.5,506.7l-3.2-4.3
			c2.7-2,5.4-4,8.3-5.9l3,4.4C827.7,502.9,825,504.8,822.5,506.7z M838.8,495.7l-2.8-4.6c2.8-1.7,5.8-3.4,8.8-5l2.5,4.7
			C844.5,492.4,841.6,494,838.8,495.7z M856.2,486.3l-2.3-4.8c3-1.5,6.1-2.9,9.2-4.3l2.2,4.9C862.2,483.4,859.1,484.8,856.2,486.3z
			 M874.4,478.3l-2-5c3.1-1.2,6.3-2.4,9.5-3.6l1.8,5C880.6,475.9,877.4,477.1,874.4,478.3z M893.1,471.5l-1.6-5.1c3.2-1,6.4-2,9.7-3
			l1.5,5.1C899.4,469.5,896.2,470.5,893.1,471.5z M912.3,466l-1.3-5.2c3.2-0.8,6.5-1.6,9.8-2.4l1.2,5.2
			C918.7,464.4,915.4,465.2,912.3,466z M931.7,461.5l-1-5.2c3.3-0.7,6.7-1.3,10-1.8l0.9,5.3C938.3,460.3,935,460.9,931.7,461.5z
			 M961.2,457c0,0-3.7,0.3-9.8,1.2l-0.7-5.3c6.3-0.9,10-1.2,10.1-1.2L961.2,457z"/>
	</g>
	<rect x="774.4" y="1046" class="st3" width="212.7" height="546.2"/>
	<rect x="1105.4" y="867.4" class="st3" width="212.7" height="724.8"/>
	<rect x="1406.3" y="674.7" class="st3" width="232.9" height="917.5"/>
	<rect x="1722.2" y="547.7" class="st3" width="212.7" height="1044.5"/>
	<g>
		<polygon class="st4" points="1639.2,980.5 2086.3,764.1 1886.9,1189.1 1853.2,996.2 		"/>
	</g>
	<g>
		<path class="st5" d="M1536.3,835.6c-10.9-45,16.6-90.3,61.6-101.2c45-10.9,90.3,16.6,101.2,61.6c10.9,45-16.6,90.3-61.6,101.2
			S1547.3,880.6,1536.3,835.6z"/>
		<g>
			<path class="st6" d="M1636,890.9c-19.8,4.8-40.3,1.6-57.7-9c-17.4-10.6-29.7-27.3-34.5-47.2c-4.8-19.8-1.6-40.3,9-57.7
				c10.6-17.4,27.3-29.7,47.2-34.5c19.8-4.8,40.3-1.6,57.7,9c17.4,10.6,29.7,27.3,34.5,47.2c4.8,19.8,1.6,40.3-9,57.7
				C1672.6,873.9,1655.8,886.1,1636,890.9z M1601,747c-38.5,9.4-62.1,48.3-52.8,86.7c9.4,38.5,48.3,62.1,86.7,52.8
				c38.5-9.4,62.1-48.3,52.8-86.7C1678.3,761.3,1639.4,737.7,1601,747z"/>
		</g>
		<g>
			<path class="st6" d="M1633.4,835.8c-0.2-1.6-0.6-3.1-1.2-4.3c-0.6-1.2-1.5-2.2-2.7-3.1c-1.2-0.9-2.7-1.7-4.4-2.3
				c-1.8-0.7-3.9-1.3-6.4-1.8c-4.3-0.9-8.2-2-11.8-3.2c-3.6-1.2-6.7-2.7-9.3-4.4c-2.7-1.8-4.8-4-6.5-6.6c-1.7-2.6-2.7-5.9-3.2-9.7
				c-0.4-3.3-0.2-6.4,0.7-9.3c0.8-2.9,2.2-5.5,4.2-7.8c1.9-2.3,4.4-4.3,7.3-5.9c2.9-1.6,6.2-2.9,10-3.7l-1.5-12.6l10.1-1.2l1.5,12.8
				c3.7,0,7.1,0.6,10.2,1.7c3.1,1.1,5.9,2.7,8.2,4.7c2.3,2.1,4.3,4.6,5.8,7.6c1.5,3,2.5,6.5,3,10.4l-18.3,2.2
				c-0.6-4.7-2-8.1-4.4-10.2c-2.4-2.1-5.3-2.9-8.8-2.5c-1.9,0.2-3.5,0.7-4.8,1.4c-1.3,0.7-2.3,1.6-3.1,2.6c-0.8,1-1.3,2.2-1.6,3.5
				c-0.3,1.3-0.3,2.7-0.1,4.1c0.2,1.5,0.5,2.7,1.1,3.9c0.6,1.1,1.4,2.1,2.6,3c1.2,0.9,2.6,1.6,4.5,2.3c1.8,0.7,4,1.3,6.7,2
				c4.3,1,8.2,2.1,11.7,3.3c3.5,1.2,6.7,2.7,9.3,4.5c2.7,1.8,4.8,4,6.5,6.6c1.7,2.6,2.7,5.8,3.2,9.6c0.4,3.4,0.2,6.6-0.7,9.5
				c-0.9,2.9-2.3,5.5-4.2,7.7c-2,2.3-4.4,4.2-7.4,5.8c-3,1.6-6.3,2.8-10.1,3.6l1.4,11.7l-10.1,1.2l-1.4-11.6
				c-3.5,0.1-7-0.3-10.4-1.1c-3.4-0.8-6.5-2.1-9.3-4c-2.8-1.9-5.2-4.5-7.1-7.6c-1.9-3.2-3.2-7.1-3.7-11.8l18.3-2.2
				c0.3,2.8,1,5.1,2,6.8c1,1.8,2.2,3.1,3.7,4.1c1.4,1,3,1.6,4.7,1.8c1.7,0.3,3.4,0.3,5.2,0.1c2-0.2,3.7-0.7,5.1-1.4
				c1.4-0.7,2.6-1.5,3.5-2.6c0.9-1,1.5-2.2,1.9-3.5C1633.5,838.6,1633.6,837.2,1633.4,835.8z"/>
		</g>
	</g>
	<g>
		
			<ellipse transform="matrix(0.7071 -0.7071 0.7071 0.7071 182.2576 1629.8854)" class="st5" cx="2058.6" cy="594.9" rx="81.6" ry="81.6"/>
		<g>
			<path class="st6" d="M2061.5,670.2c-19.8,0.8-38.8-6.2-53.4-19.7c-14.6-13.5-23-31.8-23.8-51.7c-0.8-19.8,6.2-38.8,19.7-53.4
				c13.5-14.6,31.8-23,51.7-23.8c19.8-0.8,38.8,6.2,53.4,19.7c14.6,13.5,23,31.8,23.8,51.7c0.8,19.8-6.2,38.8-19.7,53.4
				C2099.7,660.9,2081.4,669.4,2061.5,670.2z M2055.9,526.1c-38.5,1.5-68.6,34.1-67.1,72.6c1.5,38.5,34.1,68.6,72.6,67.1
				c38.5-1.5,68.6-34.1,67.1-72.6C2126.9,554.6,2094.4,524.5,2055.9,526.1z"/>
		</g>
		<g>
			<path class="st6" d="M2069.7,617.1c0.1-1.6,0-3-0.3-4.3c-0.4-1.3-1-2.4-2-3.5c-1-1.1-2.2-2.1-3.8-3.1c-1.6-1-3.5-2-5.8-2.9
				c-3.9-1.7-7.5-3.5-10.7-5.3c-3.2-1.8-5.9-3.8-8.1-6c-2.2-2.2-3.8-4.7-4.9-7.6c-1.1-2.8-1.5-6.1-1.2-9.9c0.3-3.3,1.1-6.2,2.4-8.8
				c1.4-2.6,3.2-4.8,5.5-6.6c2.3-1.8,5-3.2,8.1-4.2c3.1-1,6.5-1.5,10.2-1.6l1-12.3l9.9,0.8l-1,12.5c3.5,0.7,6.7,1.9,9.4,3.6
				c2.8,1.6,5.1,3.7,6.9,6.1c1.8,2.4,3.2,5.2,4,8.4c0.8,3.2,1.1,6.7,0.8,10.5l-17.9-1.4c0.4-4.6-0.4-8.1-2.2-10.6
				c-1.9-2.4-4.5-3.8-7.9-4.1c-1.9-0.1-3.5,0-4.9,0.4s-2.5,1-3.5,1.9c-0.9,0.8-1.7,1.8-2.2,3c-0.5,1.2-0.8,2.5-0.9,3.9
				c-0.1,1.4,0,2.7,0.3,3.9c0.3,1.2,0.9,2.3,1.9,3.4c0.9,1.1,2.2,2.1,3.8,3.1c1.6,1,3.6,2,6,3.2c3.9,1.8,7.4,3.6,10.6,5.5
				c3.2,1.8,5.8,3.9,8,6.1c2.2,2.2,3.8,4.8,4.9,7.6c1.1,2.8,1.5,6.1,1.2,9.8c-0.3,3.4-1.1,6.4-2.5,8.9c-1.4,2.6-3.2,4.8-5.5,6.6
				c-2.3,1.8-5,3.2-8.1,4.1c-3.1,0.9-6.6,1.4-10.3,1.5l-0.9,11.4l-9.8-0.8l0.9-11.4c-3.4-0.6-6.6-1.6-9.8-3
				c-3.1-1.4-5.8-3.3-8.1-5.6c-2.3-2.4-4.1-5.2-5.3-8.7c-1.2-3.4-1.7-7.4-1.3-12l17.9,1.4c-0.2,2.7,0,5,0.6,6.9
				c0.6,1.9,1.5,3.4,2.7,4.6c1.2,1.2,2.6,2.1,4.2,2.6c1.6,0.6,3.2,0.9,4.9,1.1c1.9,0.2,3.7,0,5.2-0.3c1.5-0.4,2.8-1,3.8-1.8
				c1.1-0.8,1.9-1.8,2.5-3C2069.2,619.8,2069.6,618.5,2069.7,617.1z"/>
		</g>
	</g>
	<g>
		<path class="st5" d="M1861.9,742.9c-0.5-31.1,24.2-56.7,55.3-57.3c31.1-0.5,56.7,24.2,57.3,55.3c0.5,31.1-24.2,56.7-55.3,57.3
			C1888.1,798.7,1862.5,773.9,1861.9,742.9z"/>
		<g>
			<path class="st6" d="M1919.1,793.8c-13.7,0.2-26.7-4.9-36.5-14.4c-9.9-9.5-15.4-22.3-15.7-36c-0.2-13.7,4.9-26.7,14.4-36.5
				c9.5-9.9,22.3-15.4,36-15.7c13.7-0.2,26.7,4.9,36.5,14.4c9.9,9.5,15.4,22.3,15.7,36c0.2,13.7-4.9,26.7-14.4,36.5
				C1945.6,788,1932.8,793.6,1919.1,793.8z M1917.4,694.3c-26.6,0.5-47.8,22.5-47.4,49.1c0.5,26.6,22.5,47.8,49.1,47.4
				c26.6-0.5,47.8-22.5,47.4-49.1C1965.9,715.1,1943.9,693.9,1917.4,694.3z"/>
		</g>
		<g>
			<path class="st6" d="M1925.5,757.3c0.1-1.1,0.1-2.1-0.2-3c-0.2-0.9-0.7-1.7-1.3-2.5c-0.6-0.8-1.5-1.5-2.6-2.2
				c-1.1-0.7-2.4-1.4-3.9-2.1c-2.7-1.3-5.1-2.5-7.3-3.8c-2.2-1.3-4-2.7-5.5-4.3c-1.5-1.6-2.6-3.3-3.3-5.3c-0.7-2-0.9-4.2-0.7-6.8
				c0.2-2.2,0.8-4.2,1.8-6c1-1.8,2.3-3.3,3.9-4.5c1.6-1.2,3.5-2.2,5.6-2.8c2.1-0.6,4.5-1,7.1-0.9l0.9-8.5l6.8,0.7l-0.9,8.6
				c2.4,0.6,4.6,1.4,6.5,2.6c1.9,1.2,3.5,2.6,4.7,4.3c1.2,1.7,2.1,3.6,2.7,5.8c0.5,2.2,0.7,4.6,0.4,7.3l-12.3-1.2
				c0.3-3.2-0.1-5.6-1.4-7.3c-1.2-1.7-3-2.7-5.4-2.9c-1.3-0.1-2.4-0.1-3.4,0.2c-1,0.3-1.8,0.7-2.4,1.2c-0.7,0.6-1.2,1.2-1.5,2.1
				c-0.4,0.8-0.6,1.7-0.7,2.7c-0.1,1,0,1.9,0.2,2.7c0.2,0.8,0.6,1.6,1.2,2.3c0.6,0.7,1.5,1.5,2.6,2.2c1.1,0.7,2.5,1.5,4.1,2.3
				c2.6,1.3,5,2.6,7.2,3.9c2.1,1.3,4,2.8,5.4,4.3c1.5,1.6,2.6,3.3,3.3,5.3c0.7,2,0.9,4.2,0.7,6.8c-0.2,2.3-0.8,4.4-1.8,6.1
				c-1,1.8-2.3,3.2-3.9,4.4c-1.6,1.2-3.5,2.1-5.7,2.7c-2.2,0.6-4.5,0.9-7.1,0.9l-0.8,7.9l-6.8-0.7l0.8-7.8c-2.3-0.5-4.6-1.2-6.7-2.2
				c-2.1-1-4-2.4-5.5-4c-1.6-1.7-2.7-3.7-3.5-6c-0.8-2.4-1-5.1-0.7-8.3l12.3,1.2c-0.2,1.9-0.1,3.5,0.3,4.8c0.4,1.3,1,2.4,1.8,3.2
				s1.8,1.5,2.8,1.9c1.1,0.4,2.2,0.7,3.4,0.8c1.3,0.1,2.5,0.1,3.6-0.2c1-0.2,1.9-0.6,2.7-1.2c0.7-0.5,1.3-1.2,1.8-2
				C1925.2,759.2,1925.4,758.3,1925.5,757.3z"/>
		</g>
	</g>
	<g>
		
			<ellipse transform="matrix(0.9977 -6.780457e-02 6.780457e-02 0.9977 -31.6257 120.2287)" class="st5" cx="1755.3" cy="526" rx="137.3" ry="137.3"/>
		<g>
			<path class="st6" d="M1795.2,646.3c-31.7,10.5-65.6,8-95.5-7c-29.9-15-52.1-40.7-62.6-72.5c-10.5-31.7-8-65.6,7-95.5
				c15-29.9,40.7-52.1,72.5-62.6s65.6-8,95.5,7c29.9,15,52.1,40.7,62.6,72.5c10.5,31.7,8,65.6-7,95.5
				C1852.6,613.6,1826.9,635.8,1795.2,646.3z M1718.8,415.9c-61.6,20.4-95.1,87.1-74.7,148.7c20.4,61.6,87.1,95.1,148.7,74.7
				c61.6-20.4,95.1-87.1,74.7-148.7C1847.1,429,1780.4,395.5,1718.8,415.9z"/>
		</g>
		<g>
			<path class="st6" d="M1783.6,556.6c-0.5-2.7-1.4-4.9-2.6-6.8c-1.2-1.9-2.8-3.5-4.8-4.8c-2-1.3-4.6-2.4-7.5-3.2
				c-3-0.8-6.6-1.5-10.7-2.1c-7.2-1-13.7-2.2-19.7-3.6c-6-1.5-11.3-3.5-15.8-6c-4.6-2.6-8.4-5.9-11.5-9.9c-3.1-4.1-5.2-9.2-6.5-15.4
				c-1.1-5.4-1.2-10.5-0.1-15.3c1-4.8,2.9-9.3,5.8-13.3c2.9-4,6.6-7.6,11.1-10.6c4.5-3.1,9.8-5.5,15.8-7.3l-4.2-20.3l16.4-3.3
				l4.2,20.6c6-0.4,11.7,0,16.9,1.4c5.3,1.4,9.9,3.6,14,6.6c4.1,3.1,7.6,7,10.4,11.7c2.8,4.7,4.9,10.3,6.2,16.6l-29.6,6
				c-1.6-7.6-4.4-12.9-8.6-16c-4.1-3.1-9.1-4-14.7-2.9c-3.1,0.6-5.6,1.6-7.7,2.9c-2,1.3-3.6,2.9-4.8,4.6c-1.1,1.8-1.8,3.8-2.1,5.9
				c-0.3,2.2-0.2,4.4,0.3,6.8c0.5,2.3,1.3,4.4,2.3,6.2c1.1,1.8,2.6,3.3,4.6,4.6c2,1.3,4.5,2.3,7.6,3.2c3.1,0.9,6.8,1.6,11.2,2.3
				c7.1,1.1,13.7,2.4,19.6,3.9c6,1.5,11.2,3.5,15.8,6.1c4.6,2.6,8.4,5.9,11.5,10c3.1,4.1,5.2,9.2,6.5,15.3
				c1.1,5.6,1.2,10.8,0.2,15.6c-1,4.8-3,9.2-5.9,13.2c-2.9,4-6.6,7.4-11.3,10.4c-4.6,3-9.9,5.4-16,7.2l3.9,18.9l-16.3,3.3l-3.8-18.8
				c-5.8,0.6-11.5,0.5-17.2-0.3c-5.7-0.8-10.9-2.6-15.8-5.3c-4.8-2.7-9-6.6-12.6-11.5c-3.6-4.9-6.1-11.2-7.7-18.8l29.6-6
				c0.9,4.5,2.3,8.1,4.2,10.9c1.9,2.8,4.1,4.8,6.5,6.2c2.5,1.4,5.1,2.2,8,2.3c2.8,0.2,5.7,0,8.5-0.6c3.2-0.7,5.9-1.6,8.2-3
				c2.3-1.3,4-2.9,5.4-4.7c1.3-1.8,2.2-3.8,2.6-5.9C1784.1,561.2,1784.1,558.9,1783.6,556.6z"/>
		</g>
	</g>
	<g>
		<path class="st7" d="M1213.4,488.2c-12.3,3.1-24.1,6-35.1,7.9c-35.7,6.1-63.3,1.1-75.1-46.5c-11.9-47.6,10.1-65,44.4-76.4
			c10.6-3.5,22.4-6.5,34.7-9.5c26.4-6.6,55.6-3.7,78.8,4c22.9,7.5,40,19.6,43,31.8c3.5,13.8-6,32.6-22.7,49.5
			C1264.4,466.2,1239.7,481.7,1213.4,488.2z"/>
		<polygon class="st8" points="1147.5,373.3 1107,346.8 1043,360.4 1109.5,407.1 		"/>
		<polygon class="st8" points="1178.1,495.8 1154.8,538.2 1091.9,556.3 1128.6,483.8 		"/>
		<path class="st8" d="M1178.2,496.2c-35.7,6.1-63.3,1.1-75.1-46.5c-11.9-47.6,10.1-65,44.4-76.4L1178.2,496.2z"/>
		<path class="st4" d="M1019.7,470.5c0,0,17.8-41.5,49-35.1c31.8,6.5,27.8,40.8,3.9,43.9C1048.8,482.4,1033.7,467,1019.7,470.5z"/>
		<path class="st8" d="M1209.5,389.4c16.5-4.1,33.2,5.9,37.3,22.4c4.1,16.5-5.9,33.2-22.4,37.3c-16.5,4.1-33.2-5.9-37.3-22.4
			C1182.9,410.2,1193,393.5,1209.5,389.4z"/>
		<g>
			<path class="st3" d="M1216.9,452.1c-14.7,0-28.1-10-31.8-24.9c-4.4-17.6,6.3-35.4,23.9-39.8c17.5-4.4,35.4,6.3,39.8,23.9
				c2.1,8.5,0.8,17.3-3.7,24.8c-4.5,7.5-11.7,12.8-20.2,14.9C1222.2,451.8,1219.5,452.1,1216.9,452.1z M1216.9,390.6
				c-2.3,0-4.6,0.3-7,0.9c-7.4,1.9-13.7,6.5-17.7,13.1c-3.9,6.6-5.1,14.3-3.2,21.7c3.8,15.4,19.5,24.7,34.8,20.9
				c7.4-1.9,13.7-6.5,17.7-13.1c3.9-6.6,5.1-14.3,3.2-21.7C1241.5,399.3,1229.8,390.6,1216.9,390.6z"/>
		</g>
		<path class="st4" d="M1281.4,449l-20.3-81.3c22.9,7.5,40,19.6,43,31.8C1307.6,413.3,1298.1,432,1281.4,449z"/>
	</g>
	<g>
		<path class="st9" d="M2201.2,895.4c0,0,62.2,64.4,65.1,88.7c2.9,24.3-29.8,62.1-29.8,62.1L2201.2,895.4z"/>
		<path class="st10" d="M2173.1,1563.2c0,0-2.2,34.2-8.8,34.7c-0.9,0.1-33.5,0-33.5,0l-41.7-0.3c0,0,0.3-10,12.5-12.1
			c12.2-2.1,32.6-10.6,40-26.7C2149.4,1541.7,2173.1,1563.2,2173.1,1563.2z"/>
		<path class="st11" d="M2266,1563.4c0,0-2.2,34.2-8.8,34.7c-0.9,0.1-33.5,0-33.5,0l-41.7-0.3c0,0,0.3-10,12.5-12.1
			c12.2-2.1,32.6-10.6,40-26.7C2242.3,1541.9,2266,1563.4,2266,1563.4z"/>
		<path class="st8" d="M2127.8,1195.7c0,0,10.8,69.8,51.2,193.7s45.8,177.5,45.8,177.5l43.6-1.1c0,0,0.7-135.3-17.9-197.6
			c-18.6-62.3-3.6-224.5-3.6-224.5L2127.8,1195.7z"/>
		<path class="st12" d="M2106.6,1147.2c0,0-1.8,105.1,16.1,234.2c17.9,129.1,11.6,183.9,11.6,183.9l43.6,1.5
			c0,0,26.3-129.1,19-193.7c-7.3-64.6,36.1-221.6,36.1-221.6L2106.6,1147.2z"/>
		<path class="st13" d="M2191.5,901.4l-23.2,15.2l-33.5-6.3c0.5-2.7,2.7-13.9,4.7-24.1c0.1-0.6,0.2-1.2,0.4-1.8
			c1.7-8.6,3.3-16.1,3.3-16.1l31.4-13.8l11.7-5.1c0,0.2-0.9,9.6-1.1,11C2182.8,884.8,2191.5,901.4,2191.5,901.4z"/>
		<path class="st9" d="M2143.3,893.6c0.7-0.3,40.4-11.9,44.7-10.5c4.3,1.4,6.9,9.8,6.9,9.8l-65,14.6
			C2129.9,907.5,2135,897.1,2143.3,893.6z"/>
		<path class="st14" d="M2249.8,1160.5c-6.8,30.7-118.9,34.1-147.8,6.2c-3.3-3.2-3.4-18-2.1-37.9c2.5-39,10.4-97.6,10.8-127.5
			c0.2-14.5,2.2-29.2,4.9-42.7c5.7-28.6,14.3-51.1,14.3-51.1s54.8-17.6,65-14.5C2244.3,907.6,2256.6,1129.8,2249.8,1160.5z"/>
		<path class="st9" d="M2099.9,1128.7c2.5-39,10.4-97.6,10.8-127.5c0.2-14.5,2.2-29.2,4.9-42.7l33-5.7
			C2148.5,952.8,2180.4,1084.4,2099.9,1128.7z"/>
		<path class="st13" d="M2117.9,1074.5c0,0,2.2,5.4-2.5,9c-4.7,3.6-7.8,9.4-6.7,13.7c1.1,4.3,11.4,11.3,15,10.1
			c3.6-1.1,10.9-6.7,10.1-9c-0.8-2.3,5-19.7-3.8-26.5C2121.2,1065,2117.9,1074.5,2117.9,1074.5z"/>
		<path class="st14" d="M2155.1,899.7c0,0-32.1,5.9-57.8,43.6c-25.7,37.7-42.6,65.7-37.9,79.3c4.7,13.6,47.6,60.8,55,60.9
			c7.4,0,19.4-5.3,20.1-17.5c0,0-30.2-45.4-24.2-52.2c2.6-2.9,39.4-32.6,44.6-19.2C2163.4,1016.9,2155.1,899.7,2155.1,899.7z"/>
		<path class="st15" d="M2182.7,860.8c-6.9,11.6-32.6,21.7-43.3,25.3c0.1-0.6,0.2-1.2,0.4-1.8c1.7-8.6,3.3-16.1,3.3-16.1l31.4-13.8
			C2181.4,854.5,2185.6,856,2182.7,860.8z"/>
		<path class="st13" d="M2131.3,866.4c0,0,50.4,15.8,59.8-15.7c9.4-31.6,22.2-50.8-9.6-62.2c-31.8-11.5-41.7-1.3-47.4,8.5
			C2128.5,806.7,2118.4,861.4,2131.3,866.4z"/>
		<path class="st8" d="M2136.1,793.9c0,0,3.1,36.7,10.7,35.2c7.6-1.6,14.5-2.7,13.4,8.3s-11.7,23.8,11.7,25.9
			c23.4,2,57.2-58.3,50.8-69.8C2204.3,760.5,2109.4,753.6,2136.1,793.9z"/>
	</g>
	<g>
		<g>
			<g>
				<g>
					<path class="st5" d="M1891.6,1576.7v13.2c0,1-0.4,2-1,2.8c-0.7,0.9-1.7,1.5-2.8,1.9c-0.4,0.1-0.7,0.2-1.1,0.3
						c-0.4,0.1-0.7,0.1-1.1,0.1h-250.7c-3,0-5.6-1.9-6-4.3c0-0.2,0-0.3-0.1-0.5c0-0.1,0-0.2,0-0.3v-13.2c0-0.1,0-0.2,0-0.3
						c0-0.2,0-0.3,0.1-0.5c0.4-2.4,3-4.3,6-4.3h250.7c0.4,0,0.7,0,1.1,0.1c0.4,0.1,0.8,0.1,1.1,0.3c1.2,0.4,2.2,1,2.8,1.9
						C1891.2,1574.6,1891.6,1575.6,1891.6,1576.7z"/>
					<path class="st6" d="M1768.5,1595h-134.3c-2.5,0-4.6-1.6-5.2-3.8c-0.1-0.2-0.1-0.4-0.1-0.6c0-0.2,0-0.3-0.1-0.5
						c0-0.1,0-0.2,0-0.3v-13.2c0-0.1,0-0.2,0-0.3c0-0.2,0-0.3,0.1-0.5c0-0.2,0.1-0.4,0.1-0.6c0.6-2.2,2.7-3.8,5.2-3.8H1752
						C1753.9,1578.5,1758.3,1588,1768.5,1595z"/>
					<g>
						<rect x="1858.3" y="1571.6" class="st6" width="2.8" height="23.4"/>
						<rect x="1848.6" y="1571.6" class="st6" width="2.8" height="23.4"/>
						<rect x="1837" y="1571.6" class="st6" width="2.8" height="23.4"/>
						<rect x="1819.3" y="1571.6" class="st6" width="2.8" height="23.4"/>
						<rect x="1800.6" y="1571.6" class="st6" width="2.9" height="23.4"/>
						<rect x="1771.8" y="1571.6" class="st6" width="2.8" height="23.4"/>
						<rect x="1744.9" y="1571.6" class="st6" width="2.8" height="23.4"/>
						<rect x="1720.9" y="1571.6" class="st6" width="2.8" height="23.4"/>
						<rect x="1867.4" y="1571.6" class="st6" width="2.8" height="23.4"/>
						<rect x="1873.5" y="1571.6" class="st6" width="2.9" height="23.4"/>
						<rect x="1879.4" y="1571.6" class="st6" width="2.8" height="23.4"/>
						<path class="st6" d="M1886.6,1571.7v23.2c-0.3,0.1-0.7,0.1-1.1,0.1h-1.8v-23.4h1.8C1885.9,1571.6,1886.3,1571.6,1886.6,1571.7
							z"/>
						<path class="st6" d="M1890.6,1573.8v18.9c-0.7,0.9-1.7,1.5-2.8,1.9v-22.7C1888.9,1572.3,1889.9,1573,1890.6,1573.8z"/>
					</g>
				</g>
				<g>
					<path class="st5" d="M1864.8,1553.3v13.2c0,1.1-0.4,2-1,2.9c-0.2,0.2-0.4,0.4-0.6,0.6c-0.6,0.6-1.4,1-2.3,1.3
						c-0.4,0.1-0.7,0.2-1.1,0.3c-0.3,0.1-0.7,0.1-1.1,0.1H1608c-3,0-5.6-1.9-6-4.3c0-0.2,0-0.3-0.1-0.5c0-0.1,0-0.2,0-0.3v-13.2
						c0-0.1,0-0.2,0-0.3c0-0.2,0-0.3,0.1-0.5c0.4-2.4,3-4.3,6-4.3h250.7c0.2,0,0.3,0,0.5,0c0.1,0,0.1,0,0.2,0c0,0,0,0,0,0
						c0.1,0,0.1,0,0.2,0c0.1,0,0.1,0,0.2,0c0.4,0.1,0.8,0.1,1.1,0.3c0.2,0.1,0.4,0.1,0.6,0.2h0c0.1,0.1,0.3,0.1,0.4,0.2
						c0.1,0,0.1,0.1,0.2,0.1c0.1,0,0.1,0.1,0.2,0.1c0.3,0.2,0.5,0.3,0.7,0.5c0.1,0.1,0.1,0.1,0.2,0.2c0,0,0.1,0.1,0.1,0.1
						c0,0,0,0,0.1,0.1l0.1,0.1c0.1,0.1,0.2,0.2,0.2,0.3C1864.4,1551.2,1864.8,1552.2,1864.8,1553.3z"/>
					<path class="st6" d="M1741.7,1571.6h-134.3c-2.5,0-4.6-1.6-5.2-3.8c-0.1-0.2-0.1-0.4-0.1-0.6c0-0.2,0-0.3-0.1-0.5
						c0-0.1,0-0.2,0-0.3v-13.2c0-0.1,0-0.2,0-0.3c0-0.2,0-0.3,0.1-0.5c0-0.2,0.1-0.4,0.1-0.6c0.6-2.2,2.7-3.8,5.2-3.8h117.8
						c0,0.2,0.1,0.4,0.2,0.6C1727.3,1555.6,1731.7,1564.8,1741.7,1571.6z"/>
					<g>
						<rect x="1831.5" y="1548.2" class="st6" width="2.8" height="23.4"/>
						<rect x="1821.8" y="1548.2" class="st6" width="2.8" height="23.4"/>
						<rect x="1810.2" y="1548.2" class="st6" width="2.8" height="23.4"/>
						<rect x="1792.5" y="1548.2" class="st6" width="2.8" height="23.4"/>
						<rect x="1773.8" y="1548.2" class="st6" width="2.8" height="23.4"/>
						<rect x="1745" y="1548.2" class="st6" width="2.8" height="23.4"/>
						<rect x="1718.1" y="1548.2" class="st6" width="2.8" height="23.4"/>
						<rect x="1694.1" y="1548.2" class="st6" width="2.8" height="23.4"/>
						<rect x="1840.6" y="1548.2" class="st6" width="2.8" height="23.4"/>
						<rect x="1846.7" y="1548.2" class="st6" width="2.8" height="23.4"/>
						<rect x="1852.6" y="1548.2" class="st6" width="2.8" height="23.4"/>
						<path class="st6" d="M1859.8,1548.2v23.2c-0.3,0.1-0.7,0.1-1.1,0.1h-1.8v-23.4h1.8C1859.1,1548.2,1859.5,1548.2,1859.8,1548.2
							z"/>
						<path class="st6" d="M1863.8,1550.4v18.9c-0.7,0.9-1.7,1.5-2.8,1.9v-22.7C1862.1,1548.9,1863.1,1549.6,1863.8,1550.4z"/>
					</g>
				</g>
				<g>
					<path class="st5" d="M1877.8,1530.4v13.2c0,1-0.4,2-1,2.8c-0.7,0.9-1.7,1.5-2.8,1.9c-0.4,0.1-0.7,0.2-1.1,0.3
						c-0.3,0-0.7,0.1-1.1,0.1H1621c-1,0-2-0.2-2.8-0.6c-1.7-0.7-2.9-2.1-3.2-3.7c0-0.1,0-0.2,0-0.3c0-0.1,0-0.1,0-0.2
						c0-0.1,0-0.2,0-0.3v-13.2c0-0.1,0-0.2,0-0.3c0-0.2,0-0.3,0.1-0.5c0.4-2.5,3-4.3,6-4.3h250.7c0.4,0,0.7,0,1.1,0.1
						c0.4,0.1,0.8,0.1,1.1,0.3c1.2,0.4,2.2,1.1,2.8,1.9C1877.4,1528.4,1877.8,1529.4,1877.8,1530.4z"/>
					<path class="st6" d="M1754.6,1548.7h-134.3c-0.9,0-1.7-0.2-2.5-0.6c-1.5-0.7-2.6-2.1-2.9-3.7c0-0.1,0-0.2,0-0.3
						c0-0.1,0-0.1,0-0.2c0-0.1,0-0.2,0-0.3v-13.2c0-0.1,0-0.2,0-0.3c0-0.2,0-0.3,0.1-0.5c0-0.2,0.1-0.4,0.1-0.5
						c0.6-2.2,2.7-3.8,5.2-3.8h117.8c1.8,6.7,6,15.9,15.7,22.8C1754.1,1548.4,1754.4,1548.6,1754.6,1548.7z"/>
					<g>
						<rect x="1844.4" y="1525.3" class="st6" width="2.8" height="23.4"/>
						<rect x="1834.8" y="1525.3" class="st6" width="2.8" height="23.4"/>
						<rect x="1823.2" y="1525.3" class="st6" width="2.8" height="23.4"/>
						<rect x="1805.5" y="1525.3" class="st6" width="2.9" height="23.4"/>
						<rect x="1786.7" y="1525.3" class="st6" width="2.8" height="23.4"/>
						<rect x="1758" y="1525.3" class="st6" width="2.8" height="23.4"/>
						<rect x="1731.1" y="1525.3" class="st6" width="2.8" height="23.4"/>
						<rect x="1707" y="1525.3" class="st6" width="2.8" height="23.4"/>
						<rect x="1853.6" y="1525.3" class="st6" width="2.8" height="23.4"/>
						<rect x="1859.7" y="1525.3" class="st6" width="2.8" height="23.4"/>
						<rect x="1865.5" y="1525.3" class="st6" width="2.8" height="23.4"/>
						<path class="st6" d="M1872.8,1525.4v23.2c-0.3,0.1-0.7,0.1-1.1,0.1h-1.8v-23.4h1.8C1872.1,1525.3,1872.4,1525.4,1872.8,1525.4
							z"/>
						<path class="st6" d="M1876.7,1527.6v18.9c-0.7,0.9-1.7,1.5-2.8,1.9v-22.7C1875,1526.1,1876,1526.7,1876.7,1527.6z"/>
					</g>
				</g>
				<g>
					<path class="st5" d="M1883.8,1507v13.2c0,1.1-0.4,2-1,2.8c-0.1,0.1-0.2,0.2-0.3,0.3c-0.5,0.5-1.1,0.9-1.7,1.3
						c-0.3,0.1-0.5,0.2-0.8,0.3c-0.4,0.1-0.7,0.2-1.1,0.3c-0.2,0-0.3,0-0.5,0.1c-0.2,0-0.4,0-0.5,0H1627c-3,0-5.6-1.9-6-4.3
						c0-0.2,0-0.3-0.1-0.5v-13.7c0.2-2.5,2.4-4.5,5.3-4.8c0.2,0,0.5,0,0.7,0h250.7c0.2,0,0.4,0,0.5,0c0.2,0,0.4,0,0.5,0.1
						c0.4,0.1,0.8,0.1,1.1,0.3c1.2,0.4,2.2,1.1,2.8,1.9C1883.4,1505,1883.8,1506,1883.8,1507z"/>
					<path class="st6" d="M1760.7,1525.3h-134.3c-2.5,0-4.6-1.6-5.2-3.8c-0.1-0.2-0.1-0.4-0.1-0.6c0-0.2,0-0.3-0.1-0.5v-13.7
						c0.1-2.5,2.2-4.5,4.8-4.8c0.2,0,0.4,0,0.6,0h117.8c0,0,0,0,0,0C1746.1,1508.9,1750.4,1518.4,1760.7,1525.3z"/>
					<g>
						<rect x="1850.4" y="1501.9" class="st6" width="2.8" height="23.4"/>
						<rect x="1840.8" y="1501.9" class="st6" width="2.8" height="23.4"/>
						<rect x="1829.2" y="1501.9" class="st6" width="2.8" height="23.4"/>
						<rect x="1811.5" y="1501.9" class="st6" width="2.8" height="23.4"/>
						<rect x="1792.7" y="1501.9" class="st6" width="2.8" height="23.4"/>
						<rect x="1764" y="1501.9" class="st6" width="2.8" height="23.4"/>
						<rect x="1737.1" y="1501.9" class="st6" width="2.9" height="23.4"/>
						<rect x="1713" y="1501.9" class="st6" width="2.9" height="23.4"/>
						<rect x="1859.6" y="1501.9" class="st6" width="2.8" height="23.4"/>
						<rect x="1865.7" y="1501.9" class="st6" width="2.8" height="23.4"/>
						<rect x="1871.5" y="1501.9" class="st6" width="2.8" height="23.4"/>
						<path class="st6" d="M1878.8,1502v23.2c-0.3,0.1-0.7,0.1-1.1,0.1h-1.8v-23.4h1.8C1878.1,1501.9,1878.4,1502,1878.8,1502z"/>
						<path class="st6" d="M1882.7,1504.2v18.9c-0.7,0.9-1.7,1.5-2.8,1.9v-22.7C1881,1502.7,1882,1503.3,1882.7,1504.2z"/>
					</g>
				</g>
				<g>
					<path class="st5" d="M1865.3,1483.7v13.2c0,1.1-0.4,2-1,2.8c-0.7,0.9-1.7,1.5-2.9,1.9c-0.4,0.1-0.7,0.2-1.1,0.3
						c-0.1,0-0.2,0-0.4,0h0c-0.1,0-0.1,0-0.2,0c-0.1,0-0.1,0-0.2,0c-0.1,0-0.2,0-0.3,0h-250.7c-3.2,0-5.9-2.2-6.1-4.8
						c0-0.1,0-0.2,0-0.3v-13.2c0-0.1,0-0.2,0-0.3c0-0.1,0-0.1,0-0.2c0.2-2.2,2.1-3.9,4.6-4.5c0.1,0,0.1,0,0.2,0
						c0.4-0.1,0.9-0.1,1.3-0.1h250.7c0.2,0,0.4,0,0.5,0c0.1,0,0.2,0,0.2,0c0,0,0,0,0,0h0c0.1,0,0.2,0,0.3,0c0.4,0.1,0.8,0.1,1.1,0.3
						c1.2,0.4,2.2,1,2.9,1.9C1865,1481.6,1865.3,1482.6,1865.3,1483.7z"/>
					<path class="st6" d="M1742.2,1502h-134.3c-2.9,0-5.3-2.2-5.4-4.8c0-0.1,0-0.2,0-0.3v-13.2c0-0.1,0-0.2,0-0.3c0-0.1,0-0.1,0-0.2
						c0.2-2.2,2-4,4.2-4.5c0.1,0,0.1,0,0.2,0c0.3-0.1,0.6-0.1,1-0.1h117.8c0,0.1,0,0.1,0,0.2C1727.7,1485.6,1732.1,1495,1742.2,1502
						C1742.2,1501.9,1742.2,1502,1742.2,1502z"/>
					<g>
						<rect x="1832" y="1478.6" class="st6" width="2.8" height="23.4"/>
						<rect x="1822.3" y="1478.6" class="st6" width="2.8" height="23.4"/>
						<rect x="1810.8" y="1478.6" class="st6" width="2.8" height="23.4"/>
						<rect x="1793" y="1478.6" class="st6" width="2.8" height="23.4"/>
						<rect x="1774.3" y="1478.6" class="st6" width="2.9" height="23.4"/>
						<rect x="1745.5" y="1478.6" class="st6" width="2.8" height="23.4"/>
						<rect x="1718.6" y="1478.6" class="st6" width="2.8" height="23.4"/>
						<rect x="1694.6" y="1478.6" class="st6" width="2.8" height="23.4"/>
						<rect x="1841.2" y="1478.6" class="st6" width="2.8" height="23.4"/>
						<rect x="1847.2" y="1478.6" class="st6" width="2.9" height="23.4"/>
						<rect x="1853.1" y="1478.6" class="st6" width="2.8" height="23.4"/>
						<path class="st6" d="M1860.3,1478.6v23.2c-0.3,0.1-0.7,0.1-1.1,0.1h-1.8v-23.4h1.8C1859.6,1478.6,1860,1478.6,1860.3,1478.6z"
							/>
						<path class="st6" d="M1864.3,1480.8v18.9c-0.7,0.9-1.7,1.5-2.8,1.9v-22.7C1862.6,1479.3,1863.6,1480,1864.3,1480.8z"/>
					</g>
				</g>
				<g>
					<path class="st5" d="M1864.8,1460.4v13.2c0,1.1-0.4,2-1,2.8c-0.2,0.2-0.4,0.4-0.6,0.6c-0.6,0.6-1.4,1-2.3,1.3
						c-0.3,0.1-0.6,0.2-0.9,0.2h0c0,0,0,0,0,0c-0.1,0-0.1,0-0.2,0c-0.3,0.1-0.7,0.1-1.1,0.1H1608c-0.3,0-0.5,0-0.8,0
						c-0.1,0-0.2,0-0.3,0c-2.6-0.4-4.6-2.1-4.9-4.3c0-0.1,0-0.3,0-0.4c0-0.1,0-0.2,0-0.3v-13.2c0-0.1,0-0.2,0-0.3
						c0-0.2,0-0.3,0.1-0.5c0.4-2.4,3-4.3,6-4.3h250.7c0.2,0,0.3,0,0.5,0c0,0,0,0,0.1,0c0,0,0.1,0,0.1,0c0.1,0,0.1,0,0.2,0
						c0.1,0,0.1,0,0.2,0c0.4,0.1,0.8,0.1,1.1,0.3c0.2,0.1,0.4,0.1,0.6,0.2h0c0.8,0.3,1.5,0.8,2,1.4c0.1,0.1,0.2,0.2,0.2,0.3
						C1864.4,1458.4,1864.8,1459.4,1864.8,1460.4z"/>
					<path class="st6" d="M1741.7,1478.7h-134.3c-0.1,0-0.2,0-0.3,0c-0.1,0-0.2,0-0.3,0c-2.4-0.3-4.4-2.1-4.7-4.4c0-0.1,0-0.3,0-0.4
						c0-0.1,0-0.2,0-0.3v-13.2c0-0.1,0-0.2,0-0.3c0-0.2,0-0.3,0.1-0.5c0-0.2,0.1-0.4,0.1-0.6c0.6-2.2,2.7-3.8,5.2-3.8h117.8
						c0,0.2,0.1,0.4,0.2,0.6c2,6.8,6.3,15.9,16.1,22.7C1741.5,1478.6,1741.6,1478.7,1741.7,1478.7z"/>
					<g>
						<rect x="1831.5" y="1455.3" class="st6" width="2.8" height="23.4"/>
						<rect x="1821.8" y="1455.3" class="st6" width="2.8" height="23.4"/>
						<rect x="1810.2" y="1455.3" class="st6" width="2.8" height="23.4"/>
						<rect x="1792.5" y="1455.3" class="st6" width="2.8" height="23.4"/>
						<rect x="1773.8" y="1455.3" class="st6" width="2.8" height="23.4"/>
						<rect x="1745" y="1455.3" class="st6" width="2.8" height="23.4"/>
						<rect x="1718.1" y="1455.3" class="st6" width="2.8" height="23.4"/>
						<rect x="1694.1" y="1455.3" class="st6" width="2.8" height="23.4"/>
						<rect x="1840.6" y="1455.3" class="st6" width="2.8" height="23.4"/>
						<rect x="1846.7" y="1455.3" class="st6" width="2.8" height="23.4"/>
						<rect x="1852.6" y="1455.3" class="st6" width="2.8" height="23.4"/>
						<path class="st6" d="M1859.8,1455.4v23.2c-0.3,0.1-0.7,0.1-1.1,0.1h-1.8v-23.4h1.8C1859.1,1455.3,1859.5,1455.4,1859.8,1455.4
							z"/>
						<path class="st6" d="M1863.8,1457.6v18.9c-0.7,0.9-1.7,1.5-2.8,1.9v-22.7C1862.1,1456,1863.1,1456.7,1863.8,1457.6z"/>
					</g>
				</g>
				<g>
					<path class="st5" d="M1877.8,1437.6v13.2c0,1.1-0.4,2-1,2.9c-0.7,0.9-1.7,1.5-2.8,1.9c-0.4,0.1-0.7,0.2-1.1,0.3
						c-0.3,0.1-0.7,0.1-1.1,0.1H1621c-1,0-2-0.2-2.8-0.6c-1.7-0.7-2.9-2.1-3.2-3.7c0-0.1,0-0.2,0-0.3c0-0.1,0-0.1,0-0.2
						c0-0.1,0-0.2,0-0.3v-13.2c0-0.1,0-0.2,0-0.3c0-0.2,0-0.3,0.1-0.5c0.4-2.4,3-4.3,6-4.3h250.7c0.4,0,0.7,0,1.1,0.1
						c0.4,0.1,0.8,0.1,1.1,0.3c1.2,0.4,2.2,1,2.8,1.9C1877.4,1435.6,1877.8,1436.5,1877.8,1437.6z"/>
					<path class="st6" d="M1754.6,1455.9h-134.3c-0.9,0-1.7-0.2-2.5-0.6c-1.5-0.7-2.6-2.1-2.9-3.7c0-0.1,0-0.2,0-0.3
						c0-0.1,0-0.1,0-0.2c0-0.1,0-0.2,0-0.3v-13.2c0-0.1,0-0.2,0-0.3c0-0.2,0-0.3,0.1-0.5c0-0.2,0.1-0.4,0.1-0.5
						c0.6-2.2,2.7-3.8,5.2-3.8h117.8c1.8,6.7,6,15.9,15.7,22.8C1754.1,1455.5,1754.4,1455.7,1754.6,1455.9z"/>
					<g>
						<rect x="1844.4" y="1432.5" class="st6" width="2.8" height="23.4"/>
						<rect x="1834.8" y="1432.5" class="st6" width="2.8" height="23.4"/>
						<rect x="1823.2" y="1432.5" class="st6" width="2.8" height="23.4"/>
						<rect x="1805.5" y="1432.5" class="st6" width="2.9" height="23.4"/>
						<rect x="1786.7" y="1432.5" class="st6" width="2.8" height="23.4"/>
						<rect x="1758" y="1432.5" class="st6" width="2.8" height="23.4"/>
						<rect x="1731.1" y="1432.5" class="st6" width="2.8" height="23.4"/>
						<rect x="1707" y="1432.5" class="st6" width="2.8" height="23.4"/>
						<rect x="1853.6" y="1432.5" class="st6" width="2.8" height="23.4"/>
						<rect x="1859.7" y="1432.5" class="st6" width="2.8" height="23.4"/>
						<rect x="1865.5" y="1432.5" class="st6" width="2.8" height="23.4"/>
						<path class="st6" d="M1872.8,1432.6v23.2c-0.3,0.1-0.7,0.1-1.1,0.1h-1.8v-23.4h1.8C1872.1,1432.5,1872.4,1432.5,1872.8,1432.6
							z"/>
						<path class="st6" d="M1876.7,1434.7v18.9c-0.7,0.9-1.7,1.5-2.8,1.9v-22.7C1875,1433.2,1876,1433.9,1876.7,1434.7z"/>
					</g>
				</g>
				<g>
					<path class="st5" d="M1898.3,1414.2v13.2c0,1-0.4,2-1,2.8l0,0c-0.1,0.1-0.2,0.2-0.3,0.3c-0.4,0.4-0.8,0.8-1.3,1
						c-0.3,0.1-0.5,0.3-0.8,0.4c0,0,0,0,0,0c-0.1,0.1-0.3,0.1-0.4,0.2c-0.4,0.1-0.7,0.2-1.1,0.3c-0.3,0.1-0.7,0.1-1.1,0.1h-250.7
						c-3,0-5.6-1.9-6-4.3c0-0.2,0-0.3-0.1-0.5c0-0.1,0-0.2,0-0.3v-13.2c0-0.1,0-0.2,0-0.3c0.1-2.5,2.4-4.5,5.3-4.8
						c0.2,0,0.5,0,0.7,0h250.7c0.4,0,0.7,0,1.1,0.1c0.4,0.1,0.8,0.1,1.1,0.3c1,0.3,1.9,0.9,2.6,1.6c0.1,0.1,0.2,0.2,0.3,0.3l0,0
						C1897.9,1412.2,1898.3,1413.1,1898.3,1414.2z"/>
					<path class="st6" d="M1775.1,1432.5h-134.3c-2.5,0-4.6-1.6-5.2-3.8c-0.1-0.2-0.1-0.4-0.1-0.5c0-0.2,0-0.3-0.1-0.5
						c0-0.1,0-0.2,0-0.3v-13.2c0-0.1,0-0.2,0-0.3c0.1-2.5,2.2-4.5,4.8-4.8c0.2,0,0.4,0,0.6,0h117.8c0,0,0,0,0,0
						C1760.5,1416,1764.9,1425.5,1775.1,1432.5z"/>
					<g>
						<rect x="1864.9" y="1409.1" class="st6" width="2.8" height="23.4"/>
						<rect x="1855.3" y="1409.1" class="st6" width="2.8" height="23.4"/>
						<rect x="1843.7" y="1409.1" class="st6" width="2.8" height="23.4"/>
						<rect x="1826" y="1409.1" class="st6" width="2.8" height="23.4"/>
						<rect x="1807.2" y="1409.1" class="st6" width="2.8" height="23.4"/>
						<rect x="1778.5" y="1409.1" class="st6" width="2.8" height="23.4"/>
						<rect x="1751.6" y="1409.1" class="st6" width="2.8" height="23.4"/>
						<rect x="1727.5" y="1409.1" class="st6" width="2.8" height="23.4"/>
						<rect x="1874.1" y="1409.1" class="st6" width="2.8" height="23.4"/>
						<rect x="1880.1" y="1409.1" class="st6" width="2.8" height="23.4"/>
						<rect x="1886" y="1409.1" class="st6" width="2.8" height="23.4"/>
						<path class="st6" d="M1893.3,1409.2v23.2c-0.3,0.1-0.7,0.1-1.1,0.1h-1.8v-23.4h1.8C1892.6,1409.1,1892.9,1409.1,1893.3,1409.2
							z"/>
						<path class="st6" d="M1897.2,1411.3v18.9c-0.7,0.9-1.7,1.5-2.8,1.9v-22.7C1895.5,1409.8,1896.5,1410.5,1897.2,1411.3z"/>
					</g>
				</g>
				<g>
					<path class="st5" d="M1865.3,1390.8v13.2c0,1.1-0.4,2-1,2.8c-0.7,0.9-1.7,1.5-2.9,1.9c-0.4,0.1-0.7,0.2-1.1,0.3
						c-0.1,0-0.2,0-0.4,0h0c-0.1,0-0.2,0-0.2,0c0,0-0.1,0-0.1,0c-0.1,0-0.2,0-0.3,0h-250.7c-2.2,0-4.1-1-5.2-2.4
						c-0.5-0.7-0.8-1.5-0.9-2.4c0-0.1,0-0.2,0-0.3v-13.2c0-0.1,0-0.2,0-0.3c0.1-2.2,1.9-4,4.3-4.6c0.6-0.1,1.2-0.2,1.8-0.2h250.7
						c0.1,0,0.2,0,0.3,0c0.1,0,0.1,0,0.2,0c0.2,0,0.4,0,0.6,0.1c0.4,0.1,0.8,0.1,1.1,0.3c0.2,0.1,0.4,0.1,0.5,0.2h0
						c0.7,0.3,1.3,0.7,1.8,1.1c0,0,0,0,0,0c0,0,0,0,0.1,0.1c0.2,0.2,0.3,0.3,0.5,0.5C1865,1388.8,1865.3,1389.8,1865.3,1390.8z"/>
					<path class="st6" d="M1742.2,1409.1h-134.3c-1.9,0-3.6-0.9-4.5-2.3c-0.5-0.7-0.8-1.6-0.9-2.5c0-0.1,0-0.2,0-0.3v-13.2
						c0-0.1,0-0.2,0-0.3c0.1-2.3,1.9-4.3,4.3-4.7c0.4-0.1,0.7-0.1,1.1-0.1h117.8c0,0.2,0.1,0.4,0.2,0.5
						C1727.8,1393.1,1732.2,1402.3,1742.2,1409.1C1742.2,1409.1,1742.2,1409.1,1742.2,1409.1z"/>
					<g>
						<rect x="1832" y="1385.7" class="st6" width="2.8" height="23.4"/>
						<rect x="1822.3" y="1385.7" class="st6" width="2.8" height="23.4"/>
						<rect x="1810.8" y="1385.7" class="st6" width="2.8" height="23.4"/>
						<rect x="1793" y="1385.7" class="st6" width="2.8" height="23.4"/>
						<rect x="1774.3" y="1385.7" class="st6" width="2.9" height="23.4"/>
						<rect x="1745.5" y="1385.7" class="st6" width="2.8" height="23.4"/>
						<rect x="1718.6" y="1385.7" class="st6" width="2.8" height="23.4"/>
						<rect x="1694.6" y="1385.7" class="st6" width="2.8" height="23.4"/>
						<rect x="1841.2" y="1385.7" class="st6" width="2.8" height="23.4"/>
						<rect x="1847.2" y="1385.7" class="st6" width="2.9" height="23.4"/>
						<rect x="1853.1" y="1385.7" class="st6" width="2.8" height="23.4"/>
						<path class="st6" d="M1860.3,1385.8v23.2c-0.3,0.1-0.7,0.1-1.1,0.1h-1.8v-23.4h1.8C1859.6,1385.7,1860,1385.7,1860.3,1385.8z"
							/>
						<path class="st6" d="M1864.3,1388v18.9c-0.7,0.9-1.7,1.5-2.8,1.9v-22.7C1862.6,1386.4,1863.6,1387.1,1864.3,1388z"/>
					</g>
				</g>
				<g>
					<path class="st5" d="M1883.8,1367.9v13.2c0,1.1-0.4,2-1,2.8c-0.7,0.9-1.7,1.5-2.8,1.9c-0.4,0.1-0.7,0.2-1.1,0.3
						c-0.3,0.1-0.7,0.1-1.1,0.1H1627c-1,0-1.9-0.2-2.7-0.5c-1.8-0.8-3.1-2.3-3.3-4.1c0-0.1,0-0.1,0-0.2c0-0.1,0-0.2,0-0.3v-13.2
						c0-0.1,0-0.2,0-0.3c0.2-2.5,2.4-4.5,5.3-4.8c0.2,0,0.5,0,0.7,0h250.7c0.4,0,0.7,0,1.1,0.1c0.4,0.1,0.8,0.1,1.1,0.3
						c1.2,0.4,2.2,1.1,2.8,1.9C1883.4,1365.9,1883.8,1366.9,1883.8,1367.9z"/>
					<path class="st6" d="M1760.7,1386.3h-134.3c-0.9,0-1.7-0.2-2.4-0.5c-1.6-0.8-2.8-2.3-3-4.1c0-0.1,0-0.1,0-0.2
						c0-0.1,0-0.2,0-0.3v-13.2c0-0.1,0-0.2,0-0.3c0.1-2.5,2.2-4.5,4.8-4.8c0.2,0,0.4,0,0.6,0h117.8c0,0,0,0,0,0
						c1.8,6.7,6.1,15.9,15.7,22.8C1760.1,1385.9,1760.4,1386.1,1760.7,1386.3z"/>
					<g>
						<rect x="1850.4" y="1362.9" class="st6" width="2.8" height="23.4"/>
						<rect x="1840.8" y="1362.9" class="st6" width="2.8" height="23.4"/>
						<rect x="1829.2" y="1362.9" class="st6" width="2.8" height="23.4"/>
						<rect x="1811.5" y="1362.9" class="st6" width="2.8" height="23.4"/>
						<rect x="1792.7" y="1362.9" class="st6" width="2.8" height="23.4"/>
						<rect x="1764" y="1362.9" class="st6" width="2.8" height="23.4"/>
						<rect x="1737.1" y="1362.9" class="st6" width="2.9" height="23.4"/>
						<rect x="1713" y="1362.9" class="st6" width="2.9" height="23.4"/>
						<rect x="1859.6" y="1362.9" class="st6" width="2.8" height="23.4"/>
						<rect x="1865.7" y="1362.9" class="st6" width="2.8" height="23.4"/>
						<rect x="1871.5" y="1362.9" class="st6" width="2.8" height="23.4"/>
						<path class="st6" d="M1878.8,1362.9v23.2c-0.3,0.1-0.7,0.1-1.1,0.1h-1.8v-23.4h1.8C1878.1,1362.9,1878.4,1362.9,1878.8,1362.9
							z"/>
						<path class="st6" d="M1882.7,1365.1v18.9c-0.7,0.9-1.7,1.5-2.8,1.9v-22.7C1881,1363.6,1882,1364.2,1882.7,1365.1z"/>
					</g>
				</g>
				<g>
					<path class="st5" d="M1891.6,1344.6v13.2c0,1.1-0.4,2-1,2.8c-0.7,0.9-1.7,1.5-2.8,1.9c-0.4,0.1-0.7,0.2-1.1,0.3
						c-0.1,0-0.2,0-0.4,0c-0.1,0-0.1,0-0.2,0c-0.1,0-0.1,0-0.2,0c-0.1,0-0.2,0-0.3,0h-250.7c-3.2,0-5.9-2.2-6.1-4.8
						c0-0.1,0-0.2,0-0.3v-13.2c0-0.1,0-0.2,0-0.3c0.2-2.7,2.8-4.8,6.1-4.8h250.7c0.4,0,0.7,0,1.1,0.1c0.4,0.1,0.8,0.1,1.1,0.3
						c1.2,0.4,2.2,1.1,2.8,1.9C1891.2,1342.5,1891.6,1343.5,1891.6,1344.6z"/>
					<path class="st6" d="M1768.5,1362.9h-134.3c-2.9,0-5.3-2.2-5.4-4.8c0-0.1,0-0.2,0-0.3v-13.2c0-0.1,0-0.2,0-0.3
						c0.1-2.7,2.5-4.8,5.4-4.8H1752C1753.9,1346.4,1758.3,1355.9,1768.5,1362.9C1768.5,1362.9,1768.5,1362.9,1768.5,1362.9z"/>
					<g>
						<rect x="1858.3" y="1339.5" class="st6" width="2.8" height="23.4"/>
						<rect x="1848.6" y="1339.5" class="st6" width="2.8" height="23.4"/>
						<rect x="1837" y="1339.5" class="st6" width="2.8" height="23.4"/>
						<rect x="1819.3" y="1339.5" class="st6" width="2.8" height="23.4"/>
						<rect x="1800.6" y="1339.5" class="st6" width="2.8" height="23.4"/>
						<rect x="1771.8" y="1339.5" class="st6" width="2.8" height="23.4"/>
						<rect x="1744.9" y="1339.5" class="st6" width="2.8" height="23.4"/>
						<rect x="1720.9" y="1339.5" class="st6" width="2.8" height="23.4"/>
						<rect x="1867.4" y="1339.5" class="st6" width="2.8" height="23.4"/>
						<rect x="1873.5" y="1339.5" class="st6" width="2.8" height="23.4"/>
						<rect x="1879.4" y="1339.5" class="st6" width="2.8" height="23.4"/>
						<path class="st6" d="M1886.6,1339.6v23.2c-0.3,0.1-0.7,0.1-1.1,0.1h-1.8v-23.4h1.8C1885.9,1339.5,1886.3,1339.5,1886.6,1339.6
							z"/>
						<path class="st6" d="M1890.6,1341.7v18.9c-0.7,0.9-1.7,1.5-2.8,1.9v-22.7C1888.9,1340.2,1889.9,1340.9,1890.6,1341.7z"/>
					</g>
				</g>
			</g>
			<g>
				<path class="st16" d="M1812.1,1206.1c0,0-13.2,18.5-25.2,18.8s-30.4-8.6-30.4-8.6s-11.1-24.7-3.6-34.4c0,0,7.5-3.3,15.4,2.5
					c1.4,1,2.7,2.3,4.1,3.9c1.9,2.3,4.1,3.6,6.3,4.3c8.6,2.6,18.8-3.5,22.7,2.4c2.2,3.5,4.7,6.1,6.7,7.9
					C1810.4,1205.1,1812.1,1206.1,1812.1,1206.1z"/>
				<path class="st16" d="M1640.5,1339.8c0,0,46.5-112.8,130.3-114.9c0,0,77.3,8.6,81.6,114.9H1640.5z"/>
				<path class="st17" d="M1747.8,1228.3c0,0,33.6,7.5,43.9,3.1c0,0,1.6-14-12.6-12.1c-9.7,1.3-16-3.3-19.7-5.2
					C1754.3,1211.5,1746.4,1222.5,1747.8,1228.3z"/>
				<path class="st18" d="M1777.1,1207.2c-2.1,1.6-8.7-22.7-8.7-22.7c1.4,1,2.7,2.3,4.1,3.9c1.9,2.3,4.1,3.6,6.3,4.3
					C1778.8,1193.4,1779.1,1205.6,1777.1,1207.2z"/>
				<path class="st18" d="M1808.1,1203c-0.5,0.3-16,9.6-18.1,9.6c-2.1,0,11.5-17.5,11.5-17.5
					C1803.6,1198.5,1806.1,1201.1,1808.1,1203z"/>
				<path class="st19" d="M1685.9,1308.3c-0.9-0.7,32.9-49.8,42.2-50.1c9.3-0.4,30.2,10.7,45.4,12.2c15.1,1.4,29.8-2.9,32.7,6.1
					c2.9,9,10.7,40.7,5.9,45.8C1807.3,1327.3,1704.5,1324.2,1685.9,1308.3z"/>
			</g>
		</g>
		<path class="st20" d="M1717.8,1478.6c0,0.1,0,0.1,0,0.2c-0.4,7.9-1.7,15.6-3.8,23.2c0,0,0,0,0,0c-0.3,1.1-0.6,2.2-0.9,3.3
			c-2.1,6.9-4.9,13.6-8.3,20.1c-4.3,8.1-9.5,15.8-15.8,22.8c-0.2,0.2-0.3,0.4-0.5,0.6c-7.8,8.7-17,16.4-27.5,22.8
			c-2.2,1.4-4.5,2.6-6.8,3.9c-1.6,0.8-3.2,1.6-4.8,2.4c-1.5,0.9-3.1,1.6-4.7,2.6c-4.4,2.7-9.9,4.8-15.9,6.6v-10.3c0-0.1,0-0.2,0-0.3
			c0-0.2,0-0.3,0.1-0.5c0-0.2,0.1-0.4,0.1-0.6c0.6-2.2,2.7-3.8,5.2-3.8h-26.8c-2.5,0-4.6-1.6-5.2-3.8c-0.1-0.2-0.1-0.4-0.1-0.6
			c0-0.2,0-0.3-0.1-0.5c0-0.1,0-0.2,0-0.3v-13.2c0-0.1,0-0.2,0-0.3c0-0.2,0-0.3,0.1-0.5c0-0.2,0.1-0.4,0.1-0.6
			c0.6-2.2,2.7-3.8,5.2-3.8h10.5c-1.5-0.7-2.6-2.1-2.9-3.7c0-0.1,0-0.2,0-0.3c0-0.1,0-0.1,0-0.2c0-0.1,0-0.2,0-0.3v-13.2
			c0-0.1,0-0.2,0-0.3c0-0.2,0-0.3,0.1-0.5c0-0.2,0.1-0.4,0.1-0.5c0.6-2.2,2.7-3.8,5.2-3.8h6c-2.5,0-4.6-1.6-5.2-3.8
			c-0.1-0.2-0.1-0.4-0.1-0.6c0-0.2,0-0.3-0.1-0.5v-13.7c0.1-2.5,2.2-4.5,4.8-4.8h-17.8c-2.9,0-5.3-2.2-5.4-4.8c0-0.1,0-0.2,0-0.3
			v-13.2c0-0.1,0-0.2,0-0.3c0-0.1,0-0.1,0-0.2c0.2-2.2,2-4,4.2-4.5c-2.4-0.3-4.4-2.1-4.7-4.4c0-0.1,0-0.3,0-0.4c0-0.1,0-0.2,0-0.3
			v-13.2c0-0.1,0-0.2,0-0.3c0-0.2,0-0.3,0.1-0.5c0-0.2,0.1-0.4,0.1-0.6c0.6-2.2,2.7-3.8,5.2-3.8h10.5c-1.5-0.7-2.6-2.1-2.9-3.7
			c0-0.1,0-0.2,0-0.3c0-0.1,0-0.1,0-0.2c0-0.1,0-0.2,0-0.3v-13.2c0-0.1,0-0.2,0-0.3c0-0.2,0-0.3,0.1-0.5c0-0.2,0.1-0.4,0.1-0.5
			c0.6-2.2,2.7-3.8,5.2-3.8h20.5c-2.5,0-4.6-1.6-5.2-3.8c-0.1-0.2-0.1-0.4-0.1-0.5c0-0.2,0-0.3-0.1-0.5c0-0.1,0-0.2,0-0.3v-13.2
			c0-0.1,0-0.2,0-0.3c0.1-2.5,2.2-4.5,4.8-4.8h-32.3c-1.9,0-3.6-0.9-4.5-2.3l0-0.1l3.4-20.8l0-0.1l4.8-29.6
			c5.6,0.8,11.2,1.9,16.6,3.3c0.3,0.1,0.6,0.2,1,0.3c0,0,0,0,0.1,0c3.2,0.9,6.3,1.9,9.4,3c0,0,0.1,0,0.1,0
			c14.2,5.2,27.4,12.9,38.9,22.8c0.2,0.2,0.4,0.4,0.6,0.5c6,5.2,11.5,11.1,16.3,17.6c1,1.3,1.9,2.6,2.8,3.9c0.3,0.4,0.6,0.9,0.9,1.3
			c0,0,0,0,0,0c1.5,2.2,2.9,4.4,4.2,6.7c3.1,5.4,5.8,11,7.9,16.6c2.9,7.5,4.9,15.1,6.1,22.8c0,0.2,0.1,0.4,0.1,0.6
			C1717.8,1463.5,1718.2,1471,1717.8,1478.6z"/>
		<g>
			<path class="st21" d="M1458.8,1526c-32.9-59.6-11.2-134.7,48.5-167.5c59.6-32.9,134.7-11.2,167.5,48.5
				c32.9,59.6,11.2,134.7-48.5,167.5C1566.7,1607.4,1491.7,1585.7,1458.8,1526z"/>
			<path class="st5" d="M1621.5,1577c-1.5,0.9-3.1,1.8-4.6,2.7c-0.5,0.3-1.1,0.6-1.6,0.9c-1.2,0.6-2.4,1.3-3.7,1.9
				c-58.7,28.8-130.4,6.7-162.3-51.2c-30.5-55.2-14.1-123.7,35.9-159.6c4-2.9,8.2-5.5,12.6-8c1.6-0.9,3.2-1.7,4.8-2.5
				c1.6-0.8,3.1-1.5,4.7-2.2c4.8-2.2,9.7-4,14.7-5.4c7.4-2.2,14.8-3.7,22.3-4.5c23.2-2.5,46.6,1.8,67.3,11.9
				c22,10.8,41,28.1,53.7,51.2C1697.4,1470.2,1677.6,1542.9,1621.5,1577z"/>
			<g>
				<path class="st6" d="M1558.2,1583.5c-10.3,0-20.7-1.5-30.9-4.4c-28.4-8.2-51.8-27-66.1-52.8c-14.2-25.8-17.6-55.7-9.4-84.1
					c8.2-28.4,27-51.8,52.8-66.1c53.4-29.4,120.7-9.9,150.1,43.4c29.4,53.4,9.9,120.7-43.4,150.1
					C1594.8,1578.9,1576.6,1583.5,1558.2,1583.5z M1557.9,1365.4c-17.5,0-35.3,4.3-51.7,13.3c-25.2,13.9-43.4,36.7-51.4,64.3
					c-8,27.6-4.7,56.6,9.1,81.8c13.9,25.2,36.7,43.4,64.3,51.4c27.6,8,56.6,4.7,81.8-9.1c51.9-28.6,70.9-94.1,42.3-146.1
					C1632.7,1385.5,1595.8,1365.4,1557.9,1365.4z"/>
			</g>
			<g>
				<path class="st6" d="M1612.4,1483.7c-0.2-0.6-0.5-1.2-0.8-1.8c-2-4.4-4.5-8-7.5-10.7c-3.4-3.1-7.3-5.4-11.8-6.9
					c-4.5-1.5-9.5-2.5-15-2.8c-5.5-0.3-11.5-0.4-18-0.2c-4,0.1-7.4,0-10.3-0.2c-2.8-0.3-5.2-0.8-7.2-1.6c-2-0.8-3.6-1.9-4.8-3.3
					c-1.2-1.4-2.3-3.1-3.1-5.1c-0.8-2-1.3-4-1.4-5.9c-0.1-2,0.2-3.8,0.9-5.6c0.7-1.8,1.8-3.4,3.4-4.9c1.6-1.5,3.7-2.8,6.3-3.8
					c4.8-2,9.3-1.9,13.5,0.1c4.2,2,7.6,6.3,10.2,12.7l25.1-10.2c-2.2-5.4-4.9-9.9-8.2-13.6c-3.3-3.7-7-6.6-11.1-8.6
					c-4.1-2-8.6-3.2-13.5-3.5c-4.9-0.3-9.9,0.2-15.2,1.5l-7.1-17.5l-13.9,5.6l7,17.3c-5,2.6-9.3,5.6-12.8,9.1
					c-3.5,3.5-6.2,7.2-8,11.2c-1.9,4-2.9,8.2-3,12.7c-0.1,4.4,0.8,8.9,2.6,13.5c2.1,5.3,4.9,9.5,8.3,12.5c3.4,3.1,7.3,5.4,11.8,6.9
					c4.5,1.5,9.4,2.4,15,2.7c5.5,0.3,11.5,0.3,18,0c3.8-0.2,7-0.2,9.8,0.1c2.8,0.3,5.2,0.8,7.2,1.6c2,0.8,3.7,1.9,5,3.4
					c1.3,1.5,2.5,3.3,3.4,5.6c0.8,2,1.2,4,1.2,6c0,2-0.5,3.9-1.3,5.7c-0.9,1.8-2.2,3.5-4,5c-1.8,1.5-4,2.9-6.7,4
					c-2.4,1-4.8,1.6-7.4,1.9c-2.5,0.3-5,0.1-7.4-0.7c-2.4-0.8-4.7-2.3-6.8-4.4c-2.1-2.1-3.9-5.1-5.5-8.9l-25.1,10.2
					c2.6,6.5,5.9,11.6,9.9,15.4c4,3.8,8.3,6.5,13,8.1c4.7,1.6,9.6,2.3,14.8,2.1c5.1-0.2,10.2-1,15.2-2.5l6.5,16l13.8-5.6l-6.5-16.1
					c5-2.6,9.3-5.6,12.9-9c3.3-3.1,5.9-6.5,7.8-10.2c0.2-0.3,0.3-0.6,0.4-0.9c1.9-4,2.9-8.2,3-12.6
					C1615.2,1493,1614.3,1488.4,1612.4,1483.7z"/>
			</g>
		</g>
	</g>
	<g class="st22">
		<g>
			<path class="st23" d="M2438.3,1458.8c0,0,23.7-27.6,1.5-45.2c0,0-16.2-9.8-29.5-9c0,0,18.8,31.5,12.7,34.6
				c-6.1,3.1-18.4-36.6-18.4-36.6s-37-3.6-48.9,2.1c0,0,31.6,25.9,24.9,27.4c-6.7,1.5-40.8-23.8-40.8-23.8s-34.4,5.9-32.6,26.8
				c1.8,21,13.7,27.5,18.9,26.9c5.2-0.6,35.7-12.2,36.3-7.9c0.7,4.3-17.7,18.2-30.5,18.9c0,0,24.3,26.7,40.4,19
				c16.1-7.7,17.5-20,27.5-24.5c10-4.6,18.6-4.6,14.5,0.1c-4.1,4.7-22.3,9.2-28.1,19.4c-5.7,10.2-10.9,17,5.8,14.5
				c16.7-2.5,43.8-14.7,45-28.7C2438.3,1458.8,2438.3,1458.8,2438.3,1458.8z"/>
			<g>
				<path class="st23" d="M2324.2,1435.7c0,0,93.4-3.6,114.1,23.1c0,0,4.6,13.7,18.6,26.1l2.2,6c0,0-16.2-17.1-22-18.1
					C2437.1,1472.8,2446.2,1439.6,2324.2,1435.7z"/>
				<path class="st23" d="M2456.9,1484.9c0,0,20.1,14.8,21.4,41.3l-3.6,0.3c0,0-6.4-27.4-18-38.1
					C2445.2,1477.7,2456.9,1484.9,2456.9,1484.9z"/>
			</g>
		</g>
		<g>
			<path class="st23" d="M2511.4,1436.2c0,0-33.2-18.6-17.7-43.9c0,0,12.4-15.5,25.7-19.5c0,0-7.1,37.7,0,38.5
				c7.1,0.9,4.9-42.5,4.9-42.5s35-16.8,48.7-15.5c0,0-21.7,36.8-14.6,35.9c7.1-0.9,31.5-38.1,31.5-38.1s35.9-6.6,41.7,14.6
				c5.8,21.3-3.5,31.9-8.9,33.2c-5.3,1.3-39.4,0.9-38.5,5.3c0.9,4.4,23.9,11.5,36.8,7.5c0,0-14.2,35-32.8,33.2
				c-18.6-1.8-24.4-13.3-35.9-14.2c-11.5-0.9-19.9,2.2-14.2,5.3c5.8,3.1,25.3,1,34.6,8.9c9.3,7.9,16.8,12.8-0.4,16.3
				c-17.3,3.5-48.3,1.3-54.5-12C2511.4,1436.2,2511.4,1436.2,2511.4,1436.2z"/>
			<g>
				<path class="st23" d="M2615.1,1372.4c0,0-93.1,30.1-103.7,63.8c0,0,0.4,15.1-8.9,32.3v6.6c0,0,9.7-22.6,15.1-25.7
					C2517.6,1449.5,2496.8,1420.2,2615.1,1372.4z"/>
				<path class="st23" d="M2502.5,1468.5c0,0-14.3,21.8-6.2,48.3l3.7-1c0,0-3.6-29.2,3.9-43.9
					C2511.5,1457.2,2502.5,1468.5,2502.5,1468.5z"/>
			</g>
		</g>
		<g>
			<path class="st24" d="M2461.2,1394.9c0,0,49.7-27.8,26.5-65.6c0,0-18.6-23.2-38.4-29.2c0,0,10.6,56.3,0,57.6
				c-10.6,1.3-7.3-63.6-7.3-63.6s-52.3-25.2-72.9-23.2c0,0,32.5,55,21.9,53.7s-47-57-47-57s-53.7-9.9-62.3,21.9
				c-8.6,31.8,5.3,47.7,13.3,49.7c8,2,59,1.3,57.6,8c-1.3,6.6-35.8,17.2-55,11.3c0,0,21.2,52.3,49,49.7s36.4-19.9,53.7-21.2
				c17.2-1.3,29.8,3.3,21.2,8c-8.6,4.6-37.8,1.5-51.7,13.3s-25.2,19.1,0.7,24.4c25.8,5.3,72.2,2,81.5-17.9
				C2461.2,1394.9,2461.2,1394.9,2461.2,1394.9z"/>
			<g>
				<path class="st24" d="M2306.2,1299.5c0,0,139.1,45.1,155,95.4c0,0-0.7,22.5,13.3,48.4v9.9c0,0-14.6-33.8-22.5-38.4
					C2451.9,1414.8,2483.1,1371,2306.2,1299.5z"/>
				<path class="st24" d="M2474.5,1443.3c0,0,21.5,32.6,9.2,72.3l-5.5-1.5c0,0,5.4-43.7-5.9-65.7
					C2461.1,1426.4,2474.5,1443.3,2474.5,1443.3z"/>
			</g>
		</g>
		<path class="st24" d="M2460,1592.6c-47.4,0-85.8-38.4-85.8-85.8h171.6C2545.8,1554.2,2507.4,1592.6,2460,1592.6z"/>
		
			<rect x="2372.2" y="1506.8" transform="matrix(-1 -1.224647e-16 1.224647e-16 -1 4920.8809 3016.3027)" class="st23" width="176.4" height="2.6"/>
		<path class="st23" d="M2496.7,1592.6h-80.3l0,0c0-3.8,3.1-6.9,6.9-6.9h66.6C2493.6,1585.8,2496.7,1588.8,2496.7,1592.6
			L2496.7,1592.6z"/>
	</g>
	<g>
		<path class="st4" d="M1937,1016.5c-110.4,89.9-242.7,159-393.2,205.4c-122.2,37.7-257.6,60.8-402.5,68.6c-39.5,2.1-78,3.1-115,3.1
			c-74.9,0-143.9-3.8-204.1-9.1l24.4-115.2c83,6.8,182.1,10.3,289.2,4.5c136.3-7.4,263.3-29,377.4-64.1
			c137.2-42.3,257.3-104.8,356.8-185.8L1937,1016.5z"/>
	</g>
	<g>
		<path class="st8" d="M1113.8,786.8c-15.4-8-27.7-3-27.7-3c-47-5.5-60.7,49.3-60,68.1c0.6,18.8,2.8,39.1-18.2,63.6
			c-60.6,70.7,66.3,73.9,66.3,73.9c1.1-56.5,68.8-35.9,65.9-30.2C1226.9,980.1,1148.7,804.9,1113.8,786.8z"/>
		<path class="st13" d="M932.5,1022.4c0,0-8.3-12.6-14.9-12.8c-6.7-0.2-19-3.7-18-1.2c1,2.5,8.6,2.7,9.4,4.2
			c0.7,1.5-11.3,3.7-14.8,3.9c-3.5,0.2-11.6,0-11.3,1.7c0.2,1.7,14.7,8.9,24.8,7.9c10.2-1,22.8,3,22.8,3L932.5,1022.4z"/>
		<path class="st14" d="M1052,1026.5c0,0-4.5,8.9-12.6,19.1c-9.8,12.3-25,26.5-44,29.3c-9.1,1.3-18-0.6-26.1-4.2c0,0,0,0,0,0
			c-23.1-10.2-40.4-33.8-40.4-33.8c-4.1-11.1,2.6-18.6,2.6-18.6s46.6,10.5,51,8.3c4.4-2.2,30.3-76.8,36.5-86.2
			c6.2-9.4,27.2-14.2,27.2-14.2L1052,1026.5z"/>
		<path class="st9" d="M1039.4,1045.6c-9.8,12.3-25,26.5-44,29.3c-9.1,1.3-18-0.6-26.1-4.2c0.9,0.1,24,3,33.1-13.5
			c9.4-16.8,19.5-43.4,33.4-34.5C1041.9,1026.5,1041.6,1036,1039.4,1045.6z"/>
		<path class="st25" d="M1225.9,1529.6c0,0,14.2,13,11.4,22.2c-2.8,9.2-15.6,15.4-17.3,26.6c-1.7,11.3-8.7,17.4-14.9,17.4
			c-6.2,0-29.8,0-29.8,0s-4.6-7.9,6.5-10.3c11.1-2.4,15.3-15.6,14.6-27.9c-0.7-12.3,1-28.7,1-28.7l23.6-5.5L1225.9,1529.6z"/>
		<path class="st26" d="M1105.5,1535.1c0,0,5.1,55-1.1,58.1l-79.9-0.2c0,0,0-9.2,12.8-11.3c12.8-2,35.4-9.6,39.2-26.3
			C1080.3,1538.7,1105.5,1535.1,1105.5,1535.1z"/>
		<path class="st13" d="M1162.5,1140.6c-16.4-36.9-26.5-47.5-24.6-58.9c1.4-8.5-4.4-158.8-4.4-158.8c-2-0.6-5.9-1.1-8-1.6
			c-6.7-1.5-12.3-6.2-14.7-12.7c-2.8-7.8-5-19.4-5-33.9l-2.1,0.4l-35.4,7c0,0,0.8,11.1,0.8,21.6c0,0.1,0,0.2,0,0.3
			c0,9.1-5.9,17.2-14.7,19.7c-4.5,1.3-8.4,2.4-8.4,2.4s-13,37.1-15.5,75.3c-2.5,38.1,23.6,54.7-0.2,130.9
			C1006.1,1210.1,1171.6,1161,1162.5,1140.6z"/>
		<path class="st27" d="M1068.4,882.1c0,0,0.8,11.1,0.8,21.6c19.8-0.6,30.3-18.6,34.6-28.7L1068.4,882.1z"/>
		<path class="st13" d="M1061.8,892c0,0,46.9,0.8,46.9-28.4c0-29.2,6.1-48.8-23.8-50.5c-29.9-1.7-35.8,9.4-38.1,19.2
			C1044.3,842,1049.6,891.1,1061.8,892z"/>
		<path class="st8" d="M1063.5,812.3c0,0,12.8,34.3,32.5,39.3c19.7,5.1,28.2-0.2,28.2-0.2s-15.1-12-18.2-33
			C1106,818.5,1073.2,796,1063.5,812.3z"/>
		<path class="st8" d="M1066.7,815.1c0,0-9.5,3.6-13.4,10.5c-3.8,6.8-7.1,15.8-6.3,26.8c0,0-9.7-23.3,1.2-36.5
			C1059.6,802,1066.7,815.1,1066.7,815.1z"/>
		<path class="st1" d="M1072,873.9c0,0-3.2,4.3-9.7,4c-5.2-0.2-7.2-4.8-7.2-4.8S1064.6,870.8,1072,873.9z"/>
		<path class="st14" d="M1167,989.4c0,0,1.2,16.8,0,36.9c-0.8,13.4-14.3,31.2-16.2,35.7c-4.8,11.1-10.2,12.9-10.2,12.9l-42,10.3
			l-14.8,3.6l-46.5-13.9c0,0-21.2-59.1-12.7-92.4c8.5-33.3,21.5-56.4,21.5-56.4s38,37.2,87.4-3.2L1167,989.4z"/>
		<path class="st28" d="M1040.3,1083.9c0,0-23,71.7-24.5,96.1c-1.5,24.4,44,346.8,45.9,358.1c1.7,10.6,14.9,17.4,14.9,17.4
			s6.1,3.6,14.7,1.1c12-3.4,15.8-7.4,15.8-7.4s17.9-229.9,6.8-312.1c-11.1-82.1-11.2-153.2-11.2-153.2H1040.3z"/>
		<path class="st26" d="M1137.9,1081.7c0,0,35.1,47.2,38.4,79c3.3,31.9,5.1,143.8,12.1,174.9c7,31.1,32.6,90.9,32.6,187.8
			c0,0-2.7,5.6-10.9,8.5c-2.6,0.9-6.2,1.9-9.6,2.6c-6.8,1.6-13.8-1.8-16.8-8c-17.3-34.9-72.6-147.5-75.4-170.9
			c-2-16.5-19.4-126-57.5-190.2c-9.1-15.4,5.6-76.7,5.6-76.7L1137.9,1081.7z"/>
		<path class="st29" d="M1070.9,874.7c0,0-0.8,3.4-9.4,2.9c0,0-7.2-0.4-7-4.2C1054.6,873.3,1061.6,870.7,1070.9,874.7z"/>
		<path class="st28" d="M1036.6,1072.8c0,0,9.2,7.3,27.6,7.7c21.9,0.4,76.3-5.6,76.3-5.6s2.4,6.8,2.3,13.9c0,0-66.4,16.8-104.9,2.4
			C1038,1091.2,1033,1081.9,1036.6,1072.8z"/>
		<g>
			<path class="st29" d="M1059,1099.4c-5.5,0-10-5.1-10-11.3c0-6.2,4.5-11.3,10-11.3s10,5.1,10,11.3
				C1069,1094.3,1064.5,1099.4,1059,1099.4z M1059,1080.1c-3.7,0-6.7,3.6-6.7,8c0,4.4,3,8,6.7,8c3.7,0,6.7-3.6,6.7-8
				C1065.7,1083.7,1062.6,1080.1,1059,1080.1z"/>
		</g>
		
			<rect x="1092.4" y="1007.1" transform="matrix(0.7542 -0.6567 0.6567 0.7542 -422.2593 1009.7406)" class="st30" width="90.2" height="123.5"/>
		<path class="st13" d="M1125.2,1086c0,0-24.9,2.9-24.9,8.8c0.1,5.9,6.2,18.1,9.3,18.6c3.1,0.5,20.3-16.4,20.3-16.4L1125.2,1086z"/>
		<path class="st14" d="M1133.5,922.9c0,0,33.3,2.3,46,33.4c12.8,31,37,83.1,37,91.9c0,8.8-13.5,35.8-86.1,51.3
			c0,0-7.5-7.9-7.1-14.2c0,0,45.3-38.9,45.2-43.5c-0.2-8.6-7.4-20-47.2-59.8C1110.5,971.2,1133.5,922.9,1133.5,922.9z"/>
	</g>
	<g>
		<g>
			<g>
				<g>
					<path class="st31" d="M413.5,1595.8h-0.3c-1.9,0-3.5-1.6-3.5-3.5l5.2-226.9l15.4-1.8l-13.1,228.7
						C417.1,1594.2,415.5,1595.8,413.5,1595.8z"/>
				</g>
				<g>
					<path class="st32" d="M661.5,1595.8h0.3c1.9,0,3.5-1.6,3.5-3.5l-5.2-226.9l-15.4-1.8l13.1,228.7
						C657.9,1594.2,659.5,1595.8,661.5,1595.8z"/>
				</g>
				<path class="st32" d="M403.3,1351.3v-155.5c0-27.4,22.2-49.5,49.5-49.5h112c27.4,0,49.5,22.2,49.5,49.5v161.4L403.3,1351.3z"/>
				<path class="st31" d="M634.4,1375.9H418.2c-8.2,0-14.9-6.7-14.9-14.9v-9.7h231.1V1375.9z"/>
				<path class="st32" d="M660.4,1375.9H496.8c-6.1,0-11-4.9-11-11v-2.5c0-6.1,4.9-11,11-11h163.6c6.1,0,11,4.9,11,11v2.5
					C671.4,1370.9,666.4,1375.9,660.4,1375.9z"/>
			</g>
			<g>
				<path class="st28" d="M654,1312.6c-16,27.9-36.2,38.7-36.2,38.7h-84C533.8,1351.3,666.3,1291.3,654,1312.6z"/>
				<g>
					<path class="st13" d="M589.5,1528.7c-2.2,2.5-2.5,5.3-1.4,8.3c0,0,0,0,0,0c2,5.5,8.6,11.7,16.3,17.9c1,0.8,1.9,1.5,2.6,2.2
						c0.2,0.2,0.4,0.4,0.6,0.5c0.2,0.1,0.3,0.3,0.5,0.4c7.2,6.6,4.5,8.1,17.3,21.5c14.7,15.3,24.8,15.5,27.7,14.2
						c2.4-1.2-2.5-9.3-8-18.4c-0.3-0.4-0.5-0.9-0.8-1.3c-0.7-1.2-1.5-2.4-2.2-3.7c-6.4-11-4.8-16.1-3.2-32.4
						c1.2-13.3,20.6-74,20.6-74l-28.1-4.8c0,0-8.5,48.4-17.8,55.9c-5,4-10.6,4-15.4,7c-0.3,0.2-0.7,0.4-1,0.6
						C594.5,1524.3,591.7,1526.1,589.5,1528.7z"/>
					<path class="st28" d="M589.5,1528.7c-2.2,2.5-2.5,5.3-1.4,8.3c0,0,0,0,0,0c2.5,5.5,8.9,11.7,16.3,17.8c1,0.8,1.8,1.5,2.6,2.2
						c0.2,0.2,0.4,0.4,0.6,0.5c0.2,0.1,0.3,0.3,0.5,0.4c7.2,6.6,4.5,8.1,17.3,21.5c14.7,15.3,24.8,15.5,27.7,14.2
						c2.4-1.2-2.5-9.3-8-18.4c-2.9-1-16.1-6.4-26.2-19.3c-8.8-11.3-14.7-25.8-20.8-34.2c-0.3,0.2-0.7,0.4-1,0.6
						C594.5,1524.3,591.7,1526.1,589.5,1528.7z"/>
					<path class="st13" d="M816.4,1511.1c1.7,8.7,14.1,7.2,27.9,3.9c13.8-3.4,10.5,0.6,30.2-1.5c19.7-2.2,25.6-9.5,26.2-12.4
						c0.5-2.6-9.2-3.5-19.6-4.7c-1.3-0.1-2.6-0.3-3.9-0.5c-11.8-1.5-20.4-9.1-31.1-15.3c-10.1-5.9-25.3-30-25.3-30l-27,2.1
						c0,0,14.2,21.5,19.6,30.9c3.2,5.5,3.1,12.8,2.6,18.4C815.9,1504.9,815.7,1508,816.4,1511.1z"/>
					<path class="st28" d="M844.3,1514.9c13.8-3.4,10.5,0.6,30.2-1.5c19.7-2.2,25.6-9.5,26.2-12.4c0.5-2.6-9.2-3.5-19.6-4.7
						l-0.1,0.2c0,0-11.8,8.4-28.2,8.8c-13.4,0.3-27.5-3.5-36.7-3.4c-0.2,3.1-0.4,6.2,0.2,9.2
						C818.1,1519.8,830.5,1518.3,844.3,1514.9z"/>
					<path class="st28" d="M712.9,1338.5l-25.2,67.9l-32.9,88.7c0,0-8.9,0.9-17.5-1.6c-7.9-2.3-16.9-8.2-16.9-8.2
						s9.1-95.2,26.2-149.8c4.4-14,9.3-25.4,14.7-31.8C687.7,1272.4,712.9,1338.5,712.9,1338.5z"/>
					<path class="st26" d="M687.3,1230.7c-16.5-5.3-63.7,1.5-111,10.8l-9.9-16.4l-102.3-8c0,0-33.8,74.9-15.3,122.6
						c2.7,7,8.1,11.5,17.3,11.7c0,0,1.5,0,1.5,0c0,0,60.9,0,80.7,0c50.9,0,107.7-35,115-36.4c12-2.4,16.8,21.6,28.9,46.9
						c12,25.3,113,111.8,113,111.8s15.5,0.2,21.9-2.3c6.9-2.6,9.4-5.9,9.4-5.9S724.6,1242.7,687.3,1230.7z"/>
					<path class="st30" d="M562.3,927.2c-13.1-6.9-33-7.8-36.3-8.2c-38.8-5.2-62.1,51.1-63.5,68.2c-2.5,31.5-19.2,36.3-42.6,56
						c-47,39.5-33.2,85.4-7.5,102.5c15.4,10.2,42.6,0,42.6,0c0.4,0.3,74.3-41.3,110.7-61.4C620.3,1076.5,595.7,944.8,562.3,927.2z"
						/>
					<path class="st13" d="M535.2,1067.1c0.2,0.1-17.9,6.3-30,0.9c-11.4-5-20-23.7-19.8-23.8c5.2-0.2,10.9-4.8,15.2-34.4l2.2,0.8
						l37,13.3c0,0-2.7,11.9-4.4,23.2C533.9,1056.7,533.2,1065.8,535.2,1067.1z"/>
					<path class="st33" d="M539.8,1024c0,0-2.7,11.9-4.4,23.2c-21.3-3.8-29.6-25-32.6-36.5L539.8,1024z"/>
					<path class="st13" d="M545.3,1035.8c0,0-50.7-6.8-46-38.3c4.7-31.5,1.4-53.6,33.9-50.6c32.6,3,37,16,38,26.9
						C572.3,984.7,558.7,1036.7,545.3,1035.8z"/>
					<path class="st30" d="M569.5,956.5c0,0-32.4,28-54.5,30.2c-22.1,2.3-30.4-4.8-30.4-4.8s13-10.8,20.8-28.2
						c2.3-5.1,7.2-8.7,12.8-9.1C533.9,943.1,563.8,942.5,569.5,956.5z"/>
					<path class="st30" d="M549.2,954c0,0,10.9,10.5,14.3,18.3c3.3,7.5,4.3,25.5,1.7,32.6c0,0,16.9-32.9,7.3-48.9
						C562.3,939.1,549.2,954,549.2,954z"/>
					<path class="st2" d="M577.9,1141.8c-1.5,102.6-0.4,81.2-11.6,90.9c-2.7,2.3-10.3,3.7-20.3,4.4c-31.5,2.1-86.8-3.1-88.9-8.9
						c-7.3-20.1-2.1-26.4-8.2-57.2c-0.6-3.3-1.4-6.8-2.3-10.7c-5-21.2-10-28.4,7.9-62.3c16.2-30.8,33.1-55.8,34.6-54.9
						c42.9,25.4,46.3,4.1,46.3,4.1S578.6,1091.8,577.9,1141.8z"/>
					<path class="st26" d="M687.7,1406.4l-32.9,88.7c0,0-8.9,0.9-17.5-1.6c-7.9-2.3-16.9-8.2-16.9-8.2s9.1-95.2,26.2-149.8
						L687.7,1406.4z"/>
					<path class="st2" d="M535.4,1047.2c0,0,44.1,7.5,49.3,26.5c5.2,19,35.6,130.6,35.6,130.6s-22.4,4-32.8-6.3
						c-10.4-10.4-36-96.1-36-96.1L535.4,1047.2z"/>
					<path class="st34" d="M545.9,1237.1c-31.5,2.1-86.8-3.1-88.9-8.9c-7.3-20.1-2.1-26.4-8.2-57.2l15.2-42.7
						c0,0-2.5,47.6,11.5,60.1c14,12.5,57.5,24.2,64.3,34.6C543.1,1228,545.3,1233.1,545.9,1237.1z"/>
					<path class="st13" d="M509.9,1217.1c0,0,31-6.9,36-4.2c5,2.8,17.2,12.8,18.8,16.3c1.5,3.5-11.1-2.7-15.3-3.8
						c-2.7-0.7-9.7,1.7-13.2,2.9c-14.6,4.9-23.6,2.4-23.6,2.4L509.9,1217.1z"/>
					<path class="st2" d="M489.1,1043.1c0,0-41.7,2.6-56.1,22.7c-20.3,28.3-60.6,149.1-37.5,165.2c26,18.1,118.4,4.7,118.4,4.7
						s3.1-14.4-1.2-21.3c-4.3-6.9-73.8-18.2-77-21.4c-3.2-3.2,40.1-62.5,40.1-72.2C475.7,1111.2,489.1,1043.1,489.1,1043.1z"/>
					<path class="st13" d="M547.4,1221.6c0,0,6.5,8.4,8.6,9.4c2.1,1,3.5,0.8,3.5,0.8l-4.4-7.9L547.4,1221.6z"/>
					<path class="st13" d="M545.9,1212.9l18.9,9.2c0,0-0.8,1.3-3.1,1.2c-2.3-0.1-8.2-2.3-8.2-2.3L545.9,1212.9z"/>
				</g>
				<g>
					<g>
						<polygon class="st4" points="549.2,1243.8 708.7,1243.8 756.7,1131.9 597.4,1131.9 						"/>
						<polygon class="st4" points="710.6,1236.6 499.9,1236.6 499.9,1243.6 708.7,1243.6 						"/>
					</g>
					<path class="st1" d="M668.5,1187.9c1.2-3.9-1.2-7.1-5.4-7.1c-4.2,0-8.6,3.2-9.8,7.1c-1.2,3.9,1.2,7.1,5.4,7.1
						C662.9,1195,667.3,1191.8,668.5,1187.9z"/>
				</g>
			</g>
		</g>
		<g>
			<g>
				<path class="st28" d="M944.6,1598.9h0.4c2.6,0,4.6-2.3,4.6-5.2l-6.9-331l-20.4-2.6l17.4,333.7
					C939.9,1596.7,942,1598.9,944.6,1598.9z"/>
			</g>
			<g>
				<path class="st28" d="M514.8,1598.9h-0.4c-2.6,0-4.6-2.3-4.6-5.2l6.9-331l20.4-2.6l-17.4,333.7
					C519.6,1596.7,517.4,1598.9,514.8,1598.9z"/>
			</g>
			<path class="st28" d="M952.7,1267.5H488.2c-4.1,0-7.4-3.3-7.4-7.4v-8.8c0-4.1,3.3-7.4,7.4-7.4h464.5c4.1,0,7.4,3.3,7.4,7.4v8.8
				C960.1,1264.2,956.8,1267.5,952.7,1267.5z"/>
		</g>
	</g>
	<path class="st35" d="M2650.6,1603.4H132.8c-2,0-3.6-1.6-3.6-3.6v-3.5c0-2,1.6-3.6,3.6-3.6h2517.8c2,0,3.6,1.6,3.6,3.6v3.5
		C2654.2,1601.8,2652.6,1603.4,2650.6,1603.4z"/>
</g>
</svg>
