<?xml version="1.0" encoding="utf-8"?>
<!-- Generator: Adobe Illustrator 22.0.0, SVG Export Plug-In . SVG Version: 6.00 Build 0)  -->
<svg version="1.1" id="Слой_1" xmlns="http://www.w3.org/2000/svg" xmlns:xlink="http://www.w3.org/1999/xlink" x="0px" y="0px"
	 viewBox="0 0 3200 2000" style="enable-background:new 0 0 3200 2000;" xml:space="preserve">
<style type="text/css">
	.st0{display:none;fill:#EBF3FA;}
	.st1{fill:#DCE9FB;}
	.st2{fill:#C0D8FB;}
	.st3{fill:#DFEBFD;}
	.st4{fill:#B7D3F3;}
	.st5{fill:#FFFFFF;}
	.st6{fill:#ABC8F7;}
	.st7{fill:#FFA561;}
	.st8{fill:#AEC3FF;}
	.st9{fill:#EBF3FA;}
	.st10{fill:#CDE0FB;}
	.st11{fill:#E2884B;}
	.st12{opacity:0.5;fill:#C0D8FB;}
	.st13{fill:#AFCDFB;}
	.st14{opacity:0.5;fill:#AFCDFB;}
	.st15{fill:#F99746;}
	.st16{fill:#EF7E29;}
	.st17{fill:#E6F1FF;}
	.st18{fill:#163560;}
	.st19{fill:#1C468A;}
	.st20{fill:#2A4E96;}
	.st21{fill:#77A4E5;}
	.st22{fill:#9FC1F4;}
	.st23{fill:#233862;}
	.st24{fill:#ABDDDA;}
	.st25{fill:#2B478B;}
	.st26{fill:#FFB27D;}
	.st27{fill:#E2915A;}
	.st28{fill:#91CECF;}
	.st29{fill:#7DA8F4;}
	.st30{fill:#E8945B;}
	.st31{fill:#466AA5;}
	.st32{fill:#225399;}
	.st33{fill:#174884;}
	.st34{fill:#2E3552;}
	.st35{fill:#ED985F;}
	.st36{fill:#2C3A64;}
</style>
<rect class="st0" width="3200" height="2000"/>
<g>
	<rect x="359.9" y="699.3" class="st1" width="678.8" height="1088.5"/>
	<g>
		<path class="st2" d="M1316,735.2h-136.7c-6.3,0-11.4-5.1-11.4-11.4v-132c0-6.3,5.1-11.4,11.4-11.4H1316c6.3,0,11.4,5.1,11.4,11.4
			v132C1327.5,730.1,1322.3,735.2,1316,735.2z"/>
		<path class="st3" d="M1310.1,728.5h-124.9c-5.7,0-10.4-4.7-10.4-10.4V597.6c0-5.7,4.7-10.4,10.4-10.4h124.9
			c5.7,0,10.4,4.7,10.4,10.4v120.5C1320.5,723.8,1315.8,728.5,1310.1,728.5z"/>
		<g>
			<g>
				<path class="st4" d="M1244.4,601.3c0-1.8,1.5-3.3,3.3-3.3s3.3,1.5,3.3,3.3c0,1.8-1.5,3.3-3.3,3.3S1244.4,603.1,1244.4,601.3z"/>
				<path class="st4" d="M1271,605.9c0.9-1.6,2.9-2.2,4.5-1.3c1.6,0.9,2.2,2.9,1.3,4.5s-2.9,2.2-4.5,1.3
					C1270.7,609.5,1270.2,607.5,1271,605.9z"/>
				<path class="st4" d="M1293.9,624.1c1.5-1,3.6-0.5,4.6,1c1,1.5,0.5,3.6-1,4.6c-1.5,1-3.6,0.5-4.6-1
					C1291.9,627.1,1292.4,625.1,1293.9,624.1z"/>
				<path class="st4" d="M1305.2,652.2c1.8,0,3.3,1.5,3.3,3.3s-1.5,3.3-3.3,3.3c-1.8,0-3.3-1.5-3.3-3.3S1303.4,652.2,1305.2,652.2z"
					/>
				<path class="st4" d="M1299.4,684.8c1.3,1.3,1.3,3.4,0,4.7c-1.3,1.3-3.4,1.3-4.7,0c-1.3-1.3-1.3-3.4,0-4.7
					C1296,683.5,1298.1,683.5,1299.4,684.8z"/>
				<path class="st4" d="M1278.7,705.6c1.3,1.3,1.3,3.4,0,4.7c-1.3,1.3-3.4,1.3-4.7,0c-1.3-1.3-1.3-3.4,0-4.7
					C1275.3,704.3,1277.4,704.3,1278.7,705.6z"/>
				<path class="st4" d="M1244.4,716.3c0-1.8,1.5-3.3,3.3-3.3s3.3,1.5,3.3,3.3c0,1.8-1.5,3.3-3.3,3.3S1244.4,718.1,1244.4,716.3z"/>
			</g>
			<g>
				<path class="st4" d="M1224.2,605.9c-0.9-1.6-2.9-2.2-4.5-1.3c-1.6,0.9-2.2,2.9-1.3,4.5c0.9,1.6,2.9,2.2,4.5,1.3
					C1224.5,609.5,1225.1,607.5,1224.2,605.9z"/>
				<path class="st4" d="M1201.4,624.1c-1.5-1-3.6-0.5-4.6,1c-1,1.5-0.5,3.6,1,4.6c1.5,1,3.6,0.5,4.6-1
					C1203.3,627.1,1202.9,625.1,1201.4,624.1z"/>
				<path class="st4" d="M1190.1,652.2c-1.8,0-3.3,1.5-3.3,3.3s1.5,3.3,3.3,3.3s3.3-1.5,3.3-3.3S1191.9,652.2,1190.1,652.2z"/>
				<path class="st4" d="M1195.8,684.8c-1.3,1.3-1.3,3.4,0,4.7c1.3,1.3,3.4,1.3,4.7,0c1.3-1.3,1.3-3.4,0-4.7
					C1199.2,683.5,1197.1,683.5,1195.8,684.8z"/>
				<path class="st4" d="M1216.6,705.6c-1.3,1.3-1.3,3.4,0,4.7c1.3,1.3,3.4,1.3,4.7,0c1.3-1.3,1.3-3.4,0-4.7
					C1220,704.3,1217.9,704.3,1216.6,705.6z"/>
			</g>
		</g>
		<g>
			<path class="st4" d="M1246.8,655.5c0-1.8,1.5-3.3,3.3-3.3c1.8,0,3.3,1.5,3.3,3.3s-1.5,3.3-3.3,3.3
				C1248.3,658.8,1246.8,657.3,1246.8,655.5z"/>
			<g>
				<rect x="1249.6" y="614.2" class="st4" width="0.9" height="41.3"/>
			</g>
			<g>
				
					<rect x="1246.7" y="645.5" transform="matrix(0.7866 -0.6174 0.6174 0.7866 -130.3888 916.37)" class="st4" width="27.8" height="2.7"/>
			</g>
		</g>
	</g>
	<rect x="359.9" y="513.1" class="st5" width="678.8" height="148.8"/>
	<rect x="359.9" y="869.4" class="st6" width="678.8" height="14.9"/>
	<rect x="1476.6" y="700.4" class="st1" width="678.8" height="1088.5"/>
	<rect x="1471.3" y="513.1" class="st5" width="678.8" height="148.8"/>
	<rect x="1476.6" y="865" class="st6" width="678.8" height="14.9"/>
	<rect x="1476.6" y="1066.5" class="st6" width="678.8" height="14.9"/>
	<rect x="1471.3" y="1244.5" class="st6" width="678.8" height="14.9"/>
	<rect x="1476.6" y="1438.1" class="st6" width="678.8" height="14.9"/>
	<rect x="1476.6" y="1629.9" class="st6" width="678.8" height="14.9"/>
	<rect x="2308.8" y="699.3" class="st1" width="678.8" height="1088.5"/>
	<g>
		<rect x="796.1" y="812.6" class="st7" width="70.7" height="56.8"/>
		<rect x="796.1" y="822.4" class="st5" width="38.4" height="8.1"/>
	</g>
	<g>
		<rect x="912.2" y="812.6" class="st7" width="70.7" height="56.8"/>
		<rect x="912.2" y="822.4" class="st5" width="38.4" height="8.1"/>
	</g>
	<g>
		<g>
			<rect x="383.5" y="823.8" class="st8" width="83" height="45.6"/>
			<rect x="383.5" y="831.7" class="st5" width="45.1" height="6.5"/>
		</g>
		<g>
			<polygon class="st5" points="498.3,798.1 498.1,802.2 495.1,864.7 483.3,864.7 478.2,802.2 477.9,798.1 			"/>
			<polygon class="st9" points="498.3,798.1 498.1,802.2 478.2,802.2 477.9,798.1 			"/>
			<rect x="482.8" y="859.1" class="st8" width="12.5" height="10.3"/>
			<rect x="488.4" y="841.7" class="st10" width="0.9" height="13.9"/>
		</g>
	</g>
	<g>
		<g>
			<rect x="521" y="823.8" class="st7" width="83" height="45.6"/>
			<rect x="521" y="831.7" class="st5" width="45.1" height="6.5"/>
		</g>
		<g>
			<polygon class="st7" points="635.9,798.1 635.7,802.2 632.7,864.7 620.8,864.7 615.8,802.2 615.4,798.1 			"/>
			<polygon class="st11" points="635.9,798.1 635.7,802.2 615.8,802.2 615.4,798.1 			"/>
			<rect x="620.4" y="859.1" class="st5" width="12.5" height="10.3"/>
		</g>
	</g>
	<g>
		<g>
			<rect x="656.4" y="823.8" class="st8" width="83" height="45.6"/>
			<rect x="656.4" y="831.7" class="st5" width="45.1" height="6.5"/>
		</g>
		<g>
			<polygon class="st5" points="771.3,798.1 771.1,802.2 768.1,864.7 756.2,864.7 751.2,802.2 750.9,798.1 			"/>
			<polygon class="st9" points="771.3,798.1 771.1,802.2 751.2,802.2 750.9,798.1 			"/>
			<rect x="755.8" y="859.1" class="st8" width="12.5" height="10.3"/>
			<rect x="761.3" y="841.7" class="st10" width="0.9" height="13.9"/>
		</g>
	</g>
	<g>
		<rect x="1996.2" y="1020.9" class="st7" width="83" height="45.6"/>
		<rect x="1996.2" y="1028.8" class="st5" width="45.1" height="6.5"/>
		<g>
			<polygon class="st5" points="2111.1,995.3 2110.9,999.4 2107.9,1061.8 2096.1,1061.8 2091,999.4 2090.7,995.3 			"/>
			<polygon class="st9" points="2111.1,995.3 2110.9,999.4 2091,999.4 2090.7,995.3 			"/>
			<rect x="2095.6" y="1056.3" class="st8" width="12.5" height="10.3"/>
			<rect x="2101.1" y="1038.9" class="st10" width="0.9" height="13.9"/>
		</g>
	</g>
	<g>
		<g>
			<rect x="1849.4" y="1020.9" class="st8" width="83" height="45.6"/>
			<rect x="1849.4" y="1028.8" class="st5" width="45.1" height="6.5"/>
		</g>
		<g>
			<polygon class="st5" points="1964.3,995.3 1964.1,999.4 1961.1,1061.8 1949.2,1061.8 1944.2,999.4 1943.8,995.3 			"/>
			<polygon class="st9" points="1964.3,995.3 1964.1,999.4 1944.2,999.4 1943.8,995.3 			"/>
			<rect x="1948.8" y="1056.3" class="st8" width="12.5" height="10.3"/>
			<rect x="1954.3" y="1038.9" class="st10" width="0.9" height="13.9"/>
		</g>
	</g>
	<g>
		<g>
			<rect x="1996.2" y="1584.1" class="st8" width="83" height="45.6"/>
			<rect x="1996.2" y="1592" class="st5" width="45.1" height="6.5"/>
		</g>
		<g>
			<polygon class="st5" points="2111.1,1558.5 2110.9,1562.5 2107.9,1625 2096.1,1625 2091,1562.5 2090.7,1558.5 			"/>
			<polygon class="st9" points="2111.1,1558.5 2110.9,1562.5 2091,1562.5 2090.7,1558.5 			"/>
			<rect x="2095.6" y="1619.4" class="st8" width="12.5" height="10.3"/>
			<rect x="2101.1" y="1602" class="st10" width="0.9" height="13.9"/>
		</g>
	</g>
	<g>
		<g>
			<rect x="1849.4" y="1584.1" class="st8" width="83" height="45.6"/>
			<rect x="1849.4" y="1592" class="st5" width="45.1" height="6.5"/>
		</g>
		<g>
			<polygon class="st5" points="1964.3,1558.5 1964.1,1562.5 1961.1,1625 1949.2,1625 1944.2,1562.5 1943.8,1558.5 			"/>
			<polygon class="st9" points="1964.3,1558.5 1964.1,1562.5 1944.2,1562.5 1943.8,1558.5 			"/>
			<rect x="1948.8" y="1619.4" class="st8" width="12.5" height="10.3"/>
			<rect x="1954.3" y="1602" class="st10" width="0.9" height="13.9"/>
		</g>
	</g>
	<g>
		<g>
			<rect x="1704.1" y="1020.9" class="st8" width="83" height="45.6"/>
			<rect x="1704.1" y="1028.8" class="st5" width="45.1" height="6.5"/>
		</g>
		<g>
			<polygon class="st5" points="1819,995.3 1818.8,999.4 1815.8,1061.8 1803.9,1061.8 1798.9,999.4 1798.6,995.3 			"/>
			<polygon class="st9" points="1819,995.3 1818.8,999.4 1798.9,999.4 1798.6,995.3 			"/>
			<rect x="1803.5" y="1056.3" class="st8" width="12.5" height="10.3"/>
			<rect x="1809" y="1038.9" class="st10" width="0.9" height="13.9"/>
		</g>
	</g>
	<rect x="566.5" y="562.8" class="st10" width="230.6" height="18.1"/>
	<rect x="543.6" y="593.9" class="st10" width="276.3" height="18.1"/>
	<rect x="1695.4" y="562.8" class="st10" width="230.6" height="18.1"/>
	<rect x="1672.5" y="593.9" class="st10" width="276.3" height="18.1"/>
	<g>
		<rect x="2296.7" y="513.1" class="st5" width="678.8" height="148.8"/>
		<rect x="2520.8" y="562.8" class="st10" width="230.6" height="18.1"/>
		<rect x="2497.9" y="593.9" class="st10" width="276.3" height="18.1"/>
	</g>
	<rect x="428.6" y="869.4" class="st5" width="45.1" height="25.2"/>
	<rect x="566.1" y="869.4" class="st5" width="45.1" height="25.2"/>
	<g>
		<g>
			<g>
				<path class="st12" d="M410.1,1068.7l-14.7,0l-7.8,0c-3,0-5.5-2.5-5.5-5.5l0-54.2c0-3,2.5-5.5,5.5-5.5l6.9,0l15.5,0
					c3,0,5.5,2.5,5.5,5.5l0,54.2C415.6,1066.2,413.1,1068.7,410.1,1068.7z"/>
				<path class="st13" d="M413.2,1053.3l-0.4-2.9l0,0l-0.4-2.9c-0.1-0.7-0.5-1.3-1-1.8c-0.5-0.4-1.2-0.6-2-0.5c-0.1,0-0.2,0-0.2,0
					c0.3-0.4,0.4-0.8,0.5-1.3c0.5,1.2,1.8,1.9,3.1,1.6c1.4-0.3,2.3-1.8,2-3.2l-0.7-2.8l0,0l-0.7-2.8c-0.2-0.7-0.6-1.3-1.2-1.7
					c-0.6-0.4-1.3-0.5-2-0.3c-1.4,0.3-2.3,1.8-2,3.2l1,4.2c-0.2-0.2-0.3-0.4-0.6-0.6c-0.5-0.4-1-0.5-1.5-0.5
					c0.3-0.3,0.4-0.7,0.5-1.2c0.1-0.5,0-1.1-0.2-1.6c0.3-1,0-2.1-0.9-2.8l-4.4-3.7c-1.1-0.9-2.8-0.8-3.8,0.4c-0.9,1-0.8,2.6,0.1,3.5
					c-0.2,0-0.5,0-0.7,0.1l-2.8,0.8l0,0l-2.8,0.8c-1,0.3-1.7,1-1.9,1.9l-0.3-0.7l0,0l-1.1-2.7c-0.6-1.4-2.1-2-3.5-1.4
					c-1.4,0.6-2,2.1-1.4,3.5l1.1,2.7l0,0l0.7,1.7c-0.9,0.4-1.6,1.3-1.7,2.3l-0.1,2.9l0,0l-0.1,2.9c0,0.7,0.2,1.4,0.7,1.9
					c0.5,0.5,1.1,0.8,1.8,0.9c0.3,0,0.6,0,0.9-0.1c-0.3,0.6-0.4,1.2-0.2,1.8c-0.5,0.3-0.9,0.7-1.1,1.3l-1.1,2.7l0,0l-1.1,2.7
					c-0.3,0.7-0.3,1.4,0,2c0.3,0.6,0.8,1.2,1.4,1.4c1.1,0.4,2.2,0.1,3-0.7c0.2,0.4,0.5,0.8,0.8,1.1c1.2,0.9,2.9,0.7,3.7-0.5l1.7-2.3
					l0,0l1.8-2.3c0.2-0.3,0.4-0.7,0.5-1c0.6,0.1,1.2-0.1,1.8-0.5l0.5-0.3l-0.6,0.8l0,0l-1.7,2.3c-0.9,1.2-0.7,2.9,0.5,3.7
					s2.9,0.7,3.7-0.5l1.7-2.3l0,0l1.8-2.3c0,0,0-0.1,0.1-0.1c0.1,0.2,0.3,0.4,0.5,0.6l-0.6,0.8c-0.9,1.2-0.7,2.9,0.5,3.7
					c1.2,0.9,2.9,0.7,3.7-0.5l3.5-4.6c0.4-0.6,0.6-1.3,0.5-2c-0.1-0.7-0.4-1.3-1-1.8c-0.2-0.2-0.4-0.3-0.6-0.4c0,0,0.1,0,0.1,0
					C412.4,1056.1,413.4,1054.8,413.2,1053.3z M389.1,1050.8l0-1c0.2,0.3,0.4,0.5,0.7,0.8c0.1,0.1,0.2,0.1,0.3,0.2l-1.2,0.8
					C389,1051.3,389.1,1051.1,389.1,1050.8z M407.1,1048.3l0.5,3.8c-0.2-0.5-0.6-0.8-1-1.1c-0.5-0.3-1.1-0.5-1.8-0.4
					c0.3-0.2,0.5-0.4,0.7-0.7l1.5-2C407.1,1048.2,407.1,1048.2,407.1,1048.3z M401.1,1038l0.7,0.6l-0.7,0.5
					C401.1,1038.7,401.1,1038.3,401.1,1038z M401.6,1046.4c-0.1-0.4-0.2-0.8-0.5-1.1c0.2-0.1,0.4-0.2,0.6-0.3l2.1-1.5L401.6,1046.4z
					 M403.4,1051.4c-0.6-0.5-1.3-0.7-2-0.6l0.1-0.7c0.1,0.2,0.3,0.3,0.4,0.4c0.6,0.5,1.3,0.6,2,0.5
					C403.7,1051.2,403.5,1051.3,403.4,1051.4z M398,1041.3c-0.6,0.9-0.6,2.1,0,3c0,0,0,0,0,0c-0.2,0.1-0.4,0.2-0.5,0.3
					c0.1-0.4,0.2-0.8,0.1-1.2c-0.1-0.7-0.4-1.3-1-1.8c0,0,0,0,0,0L398,1041.3z M395.3,1047.8l1-1.3c0,0.1,0,0.2,0,0.3l-0.2,2.5
					c-0.4-0.3-0.9-0.6-1.4-0.7L395.3,1047.8L395.3,1047.8z M390.5,1059l0.3-0.7c0.2-0.5,0.3-1.1,0.1-1.6c0.1,0,0.1-0.1,0.2-0.1
					l4.7-3.3c0,0,0.1,0,0.1-0.1c0.1,0.3,0.2,0.5,0.3,0.7l-0.8,0.6c-0.6,0.4-0.9,1-1.1,1.6c-0.9-0.1-1.8,0.3-2.4,1L390.5,1059z
					 M403.1,1055.8l0.1,0.6c-0.2-0.1-0.5-0.2-0.7-0.2L403.1,1055.8z M408.7,1056.4l-0.2-0.9l0,0l0-0.2c0.3,0.4,0.7,0.6,1.1,0.8
					C409.3,1056.2,409,1056.3,408.7,1056.4z M392.5,1042.6l-1.5,1.9l0,0l-1.8,2.3c0,0,0,0,0,0l0.1-1.8c0,0,0-0.1,0-0.1
					c0.1,0,0.2-0.1,0.2-0.1c1.1-0.5,1.7-1.6,1.6-2.7C391.7,1042.4,392.1,1042.6,392.5,1042.6z"/>
				<path class="st14" d="M395.4,1068.7l-7.8,0c-3,0-5.5-2.5-5.5-5.5l0-54.2c0-3,2.5-5.5,5.5-5.5l6.9,0c0.6,1,0.9,2.1,0.9,3.4
					l0,61.2C395.5,1068.3,395.4,1068.5,395.4,1068.7z"/>
				<path class="st15" d="M415.2,1006.1l-20.8,0l-11.8,0c-0.6,0-1.1-0.5-1.1-1.1l0-5.1c0-0.6,0.5-1.1,1.1-1.1l11.8,0c0,0,0,0,0,0
					l20.8,0c0.6,0,1.1,0.5,1.1,1.1l0,5.1C416.3,1005.6,415.8,1006.1,415.2,1006.1z"/>
				<path class="st16" d="M394.4,1006.1l-11.8,0c-0.6,0-1.1-0.5-1.1-1.1l0-5.1c0-0.6,0.5-1.1,1.1-1.1l11.8,0c0,0,0,0,0,0
					c0.6,0,1.1,0.5,1.1,1.1l0,5.1C395.4,1005.6,395,1006.1,394.4,1006.1z"/>
			</g>
		</g>
		<g>
			<g>
				<path class="st12" d="M467.5,1068.7l-14.7,0l-7.8,0c-3,0-5.5-2.5-5.5-5.5l0-54.2c0-3,2.5-5.5,5.5-5.5l6.9,0l15.5,0
					c3,0,5.5,2.5,5.5,5.5l0,54.2C473,1066.2,470.5,1068.7,467.5,1068.7z"/>
				<path class="st13" d="M470.6,1053.3l-0.4-2.9l0,0l-0.4-2.9c-0.1-0.7-0.5-1.3-1-1.8c-0.5-0.4-1.2-0.6-2-0.5c-0.1,0-0.2,0-0.2,0
					c0.3-0.4,0.4-0.8,0.5-1.3c0.5,1.2,1.8,1.9,3.1,1.6c1.4-0.3,2.3-1.8,2-3.2l-0.7-2.8l0,0l-0.7-2.8c-0.2-0.7-0.6-1.3-1.2-1.7
					c-0.6-0.4-1.3-0.5-2-0.3c-1.4,0.3-2.3,1.8-2,3.2l1,4.2c-0.2-0.2-0.3-0.4-0.6-0.6c-0.5-0.4-1-0.5-1.5-0.5
					c0.3-0.3,0.4-0.7,0.5-1.2c0.1-0.5,0-1.1-0.2-1.6c0.3-1,0-2.1-0.9-2.8l-4.4-3.7c-1.1-0.9-2.8-0.8-3.8,0.4c-0.9,1-0.8,2.6,0.1,3.5
					c-0.2,0-0.5,0-0.7,0.1l-2.8,0.8l0,0l-2.8,0.8c-1,0.3-1.7,1-1.9,1.9l-0.3-0.7l0,0l-1.1-2.7c-0.6-1.4-2.1-2-3.5-1.4
					c-1.4,0.6-2,2.1-1.4,3.5l1.1,2.7l0,0l0.7,1.7c-0.9,0.4-1.6,1.3-1.7,2.3l-0.1,2.9l0,0l-0.1,2.9c0,0.7,0.2,1.4,0.7,1.9
					c0.5,0.5,1.1,0.8,1.8,0.9c0.3,0,0.6,0,0.9-0.1c-0.3,0.6-0.4,1.2-0.2,1.8c-0.5,0.3-0.9,0.7-1.1,1.3l-1.1,2.7l0,0l-1.1,2.7
					c-0.3,0.7-0.3,1.4,0,2c0.3,0.6,0.8,1.2,1.4,1.4c1.1,0.4,2.2,0.1,3-0.7c0.2,0.4,0.5,0.8,0.8,1.1c1.2,0.9,2.9,0.7,3.7-0.5l1.7-2.3
					l0,0l1.8-2.3c0.2-0.3,0.4-0.7,0.5-1c0.6,0.1,1.2-0.1,1.8-0.5l0.5-0.3l-0.6,0.8l0,0l-1.7,2.3c-0.9,1.2-0.7,2.9,0.5,3.7
					c1.2,0.9,2.9,0.7,3.7-0.5l1.7-2.3l0,0l1.8-2.3c0,0,0-0.1,0.1-0.1c0.1,0.2,0.3,0.4,0.5,0.6l-0.6,0.8c-0.9,1.2-0.7,2.9,0.5,3.7
					c1.2,0.9,2.9,0.7,3.7-0.5l3.5-4.6c0.4-0.6,0.6-1.3,0.5-2c-0.1-0.7-0.4-1.3-1-1.8c-0.2-0.2-0.4-0.3-0.6-0.4c0,0,0.1,0,0.1,0
					C469.8,1056.1,470.8,1054.8,470.6,1053.3z M446.5,1050.8l0-1c0.2,0.3,0.4,0.5,0.7,0.8c0.1,0.1,0.2,0.1,0.3,0.2l-1.2,0.8
					C446.5,1051.3,446.5,1051.1,446.5,1050.8z M464.6,1048.3l0.5,3.8c-0.2-0.5-0.6-0.8-1-1.1c-0.5-0.3-1.1-0.5-1.8-0.4
					c0.3-0.2,0.5-0.4,0.7-0.7l1.5-2C464.5,1048.2,464.5,1048.2,464.6,1048.3z M458.5,1038l0.7,0.6l-0.7,0.5
					C458.5,1038.7,458.5,1038.3,458.5,1038z M459.1,1046.4c-0.1-0.4-0.2-0.8-0.5-1.1c0.2-0.1,0.4-0.2,0.6-0.3l2.1-1.5L459.1,1046.4z
					 M460.8,1051.4c-0.6-0.5-1.3-0.7-2-0.6l0.1-0.7c0.1,0.2,0.3,0.3,0.4,0.4c0.6,0.5,1.3,0.6,2,0.5
					C461.1,1051.2,460.9,1051.3,460.8,1051.4z M455.4,1041.3c-0.6,0.9-0.6,2.1,0,3c0,0,0,0,0,0c-0.2,0.1-0.4,0.2-0.5,0.3
					c0.1-0.4,0.2-0.8,0.1-1.2c-0.1-0.7-0.4-1.3-1-1.8c0,0,0,0,0,0L455.4,1041.3z M452.8,1047.8l1-1.3c0,0.1,0,0.2,0,0.3l-0.2,2.5
					c-0.4-0.3-0.9-0.6-1.4-0.7L452.8,1047.8L452.8,1047.8z M447.9,1059l0.3-0.7c0.2-0.5,0.3-1.1,0.1-1.6c0.1,0,0.1-0.1,0.2-0.1
					l4.7-3.3c0,0,0.1,0,0.1-0.1c0.1,0.3,0.2,0.5,0.3,0.7l-0.8,0.6c-0.6,0.4-0.9,1-1.1,1.6c-0.9-0.1-1.8,0.3-2.4,1L447.9,1059z
					 M460.5,1055.8l0.1,0.6c-0.2-0.1-0.5-0.2-0.7-0.2L460.5,1055.8z M466.2,1056.4l-0.2-0.9l0,0l0-0.2c0.3,0.4,0.7,0.6,1.1,0.8
					C466.7,1056.2,466.4,1056.3,466.2,1056.4z M450,1042.6l-1.5,1.9l0,0l-1.7,2.3c0,0,0,0,0,0l0.1-1.8c0,0,0-0.1,0-0.1
					c0.1,0,0.2-0.1,0.2-0.1c1.1-0.5,1.7-1.6,1.6-2.7C449.1,1042.4,449.5,1042.6,450,1042.6z"/>
				<path class="st14" d="M452.9,1068.7l-7.8,0c-3,0-5.5-2.5-5.5-5.5l0-54.2c0-3,2.5-5.5,5.5-5.5l6.9,0c0.6,1,0.9,2.1,0.9,3.4
					l0,61.2C452.9,1068.3,452.9,1068.5,452.9,1068.7z"/>
				<path class="st15" d="M472.6,1006.1l-20.8,0l-11.8,0c-0.6,0-1.1-0.5-1.1-1.1l0-5.1c0-0.6,0.5-1.1,1.1-1.1l11.8,0c0,0,0,0,0,0
					l20.8,0c0.6,0,1.1,0.5,1.1,1.1l0,5.1C473.7,1005.6,473.2,1006.1,472.6,1006.1z"/>
				<path class="st16" d="M451.8,1006.1l-11.8,0c-0.6,0-1.1-0.5-1.1-1.1l0-5.1c0-0.6,0.5-1.1,1.1-1.1l11.8,0c0,0,0,0,0,0
					c0.6,0,1.1,0.5,1.1,1.1l0,5.1C452.9,1005.6,452.4,1006.1,451.8,1006.1z"/>
			</g>
		</g>
		<rect x="359.9" y="1068.9" class="st6" width="678.8" height="14.9"/>
		<g>
			<rect x="499.9" y="1012.1" class="st7" width="70.7" height="56.8"/>
			<rect x="499.9" y="1021.9" class="st5" width="38.4" height="8.1"/>
		</g>
		<g>
			<rect x="600.3" y="1012.1" class="st8" width="103.3" height="56.7"/>
			<rect x="600.3" y="1021.9" class="st5" width="56.2" height="8.1"/>
		</g>
		<g>
			<rect x="734" y="1042.3" class="st8" width="70.6" height="26.5"/>
			<rect x="734" y="1046.9" class="st5" width="38.4" height="3.8"/>
		</g>
		<g>
			<rect x="831.5" y="1042.3" class="st8" width="70.6" height="26.5"/>
			<rect x="831.5" y="1046.9" class="st5" width="38.4" height="3.8"/>
		</g>
		<g>
			<path class="st9" d="M970.9,1068.9H955c-4.6,0-8.3-3.7-8.3-8.3v-38c0-4.6,3.7-8.3,8.3-8.3h15.9c4.6,0,8.3,3.7,8.3,8.3v38
				C979.2,1065.2,975.5,1068.9,970.9,1068.9z"/>
			<rect x="955.7" y="1009.6" class="st7" width="13" height="4.7"/>
			<rect x="946.8" y="1032.4" class="st5" width="32.4" height="14.5"/>
		</g>
		<g>
			<path class="st9" d="M1011.6,1068.9h-9.5c-2.8,0-5-2.2-5-5V1041c0-2.8,2.2-5,5-5h9.5c2.8,0,5,2.2,5,5v22.9
				C1016.6,1066.6,1014.3,1068.9,1011.6,1068.9z"/>
			<rect x="1002.4" y="1033.2" class="st7" width="7.8" height="2.8"/>
			<rect x="997" y="1046.9" class="st5" width="19.5" height="8.7"/>
		</g>
		<rect x="400.8" y="1069.2" class="st5" width="45.1" height="25.2"/>
		<rect x="532.5" y="1069.2" class="st5" width="45.1" height="25.2"/>
		<rect x="629.3" y="1069.2" class="st5" width="45.1" height="25.2"/>
		<rect x="773.5" y="1069.2" class="st5" width="45.1" height="25.2"/>
		<rect x="956.6" y="1069.2" class="st5" width="45.1" height="25.2"/>
	</g>
	<g>
		<rect x="359.9" y="1274.7" class="st6" width="678.8" height="14.9"/>
		<g>
			<g>
				<rect x="396.5" y="1229.1" class="st8" width="83" height="45.6"/>
				<rect x="396.5" y="1237" class="st5" width="45.1" height="6.5"/>
			</g>
			<g>
				<polygon class="st5" points="463.4,1219.9 463.4,1229.1 398.8,1229.1 401.8,1209 428.7,1213.7 				"/>
				<polygon class="st9" points="463.4,1219.9 463.4,1229.1 428.7,1229.1 428.7,1213.7 				"/>
				<polygon class="st17" points="405.8,1209.7 402.8,1229.1 398.8,1229.1 401.8,1209 				"/>
				<polygon class="st7" points="457.1,1218.8 465.8,1219.6 465.8,1229.1 457.1,1229.1 				"/>
			</g>
		</g>
		<g>
			<g>
				<rect x="517.2" y="1229.1" class="st8" width="83" height="45.6"/>
				<rect x="517.2" y="1237" class="st5" width="45.1" height="6.5"/>
			</g>
			<g>
				<polygon class="st5" points="589.8,1219.9 589.8,1229.1 525.2,1229.1 528.2,1209 555.1,1213.7 				"/>
				<polygon class="st9" points="589.8,1219.9 589.8,1229.1 555.1,1229.1 555.1,1213.7 				"/>
				<polygon class="st17" points="532.2,1209.7 529.2,1229.1 525.2,1229.1 528.2,1209 				"/>
				<polygon class="st7" points="583.5,1218.8 592.2,1219.6 592.2,1229.1 583.5,1229.1 				"/>
			</g>
		</g>
		<rect x="569.7" y="1274.6" class="st5" width="45.1" height="25.2"/>
	</g>
	<rect x="699.3" y="869.4" class="st5" width="45.1" height="25.2"/>
	<rect x="2009.3" y="865" class="st5" width="45.1" height="25.2"/>
	<rect x="2009.3" y="1066.5" class="st5" width="45.1" height="25.2"/>
	<rect x="1854.6" y="1066.5" class="st5" width="45.1" height="25.2"/>
	<rect x="2313.1" y="1066.5" class="st6" width="678.8" height="14.9"/>
	<g>
		<g>
			<rect x="2832.7" y="1020.9" class="st8" width="83" height="45.6"/>
			<rect x="2832.7" y="1028.8" class="st5" width="45.1" height="6.5"/>
		</g>
		<g>
			<polygon class="st5" points="2947.6,995.3 2947.4,999.4 2944.4,1061.8 2932.5,1061.8 2927.5,999.4 2927.1,995.3 			"/>
			<polygon class="st9" points="2947.6,995.3 2947.4,999.4 2927.5,999.4 2927.1,995.3 			"/>
			<rect x="2932.1" y="1056.3" class="st8" width="12.5" height="10.3"/>
			<rect x="2937.6" y="1038.9" class="st10" width="0.9" height="13.9"/>
		</g>
	</g>
	<g>
		<g>
			<rect x="2568.9" y="1020.9" class="st8" width="83" height="45.6"/>
			<rect x="2568.9" y="1028.8" class="st5" width="45.1" height="6.5"/>
		</g>
		<g>
			<polygon class="st5" points="2683.8,995.3 2683.6,999.4 2680.6,1061.8 2668.8,1061.8 2663.7,999.4 2663.4,995.3 			"/>
			<polygon class="st9" points="2683.8,995.3 2683.6,999.4 2663.7,999.4 2663.4,995.3 			"/>
			<rect x="2668.3" y="1056.3" class="st8" width="12.5" height="10.3"/>
			<rect x="2673.8" y="1038.9" class="st10" width="0.9" height="13.9"/>
		</g>
	</g>
	<g>
		<g>
			<rect x="2349.6" y="1020.9" class="st8" width="83" height="45.6"/>
			<rect x="2349.6" y="1028.8" class="st5" width="45.1" height="6.5"/>
		</g>
	</g>
	<rect x="2845.7" y="1066.5" class="st5" width="45.1" height="25.2"/>
	<rect x="2368.6" y="1066.5" class="st5" width="45.1" height="25.2"/>
	<rect x="2607.2" y="1066.5" class="st5" width="45.1" height="25.2"/>
	<rect x="1847" y="865" class="st5" width="45.1" height="25.2"/>
	<rect x="831.4" y="869.4" class="st5" width="45.1" height="25.2"/>
	<rect x="950.7" y="869.4" class="st5" width="45.1" height="25.2"/>
	<g>
		<polygon class="st18" points="943.1,1182.4 754.8,1182.4 729,1039.1 917.3,1039.1 		"/>
		<polygon class="st19" points="940.1,1182.4 751.8,1182.4 725.9,1039.1 914.3,1039.1 		"/>
		<polygon class="st18" points="842.9,1218.4 799.5,1218.4 809,1123.8 852.3,1123.8 		"/>
		<rect x="802.8" y="1215.7" class="st18" width="61.1" height="2.7"/>
	</g>
	<g>
		<path class="st8" d="M2087.2,1199.3v45.3h-45.7v-45.5c0-0.4,0-0.9,0.1-1.3c0.5-5.2,3.8-9.6,8.4-11.5c3.3-1.4,5.6-4.4,5.8-8
			l0.3-6.5h16.8l0.1,6.5c0.1,3.6,2.3,6.6,5.6,8c4.6,2,8,6.3,8.5,11.5C2087.1,1198.3,2087.2,1198.8,2087.2,1199.3z"/>
		<polygon class="st20" points="2074,1174.7 2054.5,1174.7 2055,1169.5 2073.5,1169.5 		"/>
		<path class="st5" d="M2087.2,1199.3v29.2h-45.7v-29.4c0-0.4,0-0.9,0.1-1.3h45.6C2087.1,1198.3,2087.2,1198.8,2087.2,1199.3z"/>
	</g>
	<g>
		<g>
			<path class="st8" d="M2118.5,819.7V865h-45.7v-45.5c0-0.4,0-0.9,0.1-1.3c0.5-5.2,3.8-9.6,8.4-11.5c3.3-1.4,5.6-4.4,5.8-8l0.3-6.6
				h16.8l0.1,6.5c0.1,3.6,2.3,6.6,5.6,8c4.6,2,8,6.3,8.5,11.5C2118.4,818.7,2118.5,819.2,2118.5,819.7z"/>
			<polygon class="st20" points="2105.4,795.1 2085.8,795.1 2086.3,790 2104.8,790 			"/>
			<path class="st5" d="M2118.5,819.7v29.2h-45.7v-29.4c0-0.4,0-0.9,0.1-1.3h45.6C2118.4,818.7,2118.5,819.2,2118.5,819.7z"/>
		</g>
		<g>
			<path class="st8" d="M2034,819.7V865h-45.7v-45.5c0-0.4,0-0.9,0.1-1.3c0.5-5.2,3.8-9.6,8.4-11.5c3.3-1.4,5.6-4.4,5.8-8l0.3-6.6
				h16.8l0.1,6.5c0.1,3.6,2.3,6.6,5.6,8c4.6,2,8,6.3,8.5,11.5C2034,818.7,2034,819.2,2034,819.7z"/>
			<polygon class="st20" points="2020.9,795.1 2001.3,795.1 2001.8,790 2020.4,790 			"/>
			<path class="st5" d="M2034,819.7v29.2h-45.7v-29.4c0-0.4,0-0.9,0.1-1.3h45.6C2034,818.7,2034,819.2,2034,819.7z"/>
		</g>
		<g>
			<path class="st8" d="M1951.5,819.7V865h-45.7v-45.5c0-0.4,0-0.9,0.1-1.3c0.5-5.2,3.8-9.6,8.4-11.5c3.3-1.4,5.6-4.4,5.8-8l0.3-6.6
				h16.8l0.1,6.5c0.1,3.6,2.3,6.6,5.6,8c4.6,2,8,6.3,8.5,11.5C1951.5,818.7,1951.5,819.2,1951.5,819.7z"/>
			<polygon class="st20" points="1938.4,795.1 1918.8,795.1 1919.4,790 1937.9,790 			"/>
			<path class="st5" d="M1951.5,819.7v29.2h-45.7v-29.4c0-0.4,0-0.9,0.1-1.3h45.6C1951.5,818.7,1951.5,819.2,1951.5,819.7z"/>
		</g>
		<g>
			<path class="st8" d="M1875.4,819.7V865h-45.7v-45.5c0-0.4,0-0.9,0.1-1.3c0.5-5.2,3.8-9.6,8.4-11.5c3.3-1.4,5.6-4.4,5.8-8l0.3-6.6
				h16.8l0.1,6.5c0.1,3.6,2.3,6.6,5.6,8c4.6,2,8,6.3,8.5,11.5C1875.3,818.7,1875.4,819.2,1875.4,819.7z"/>
			<polygon class="st20" points="1862.2,795.1 1842.7,795.1 1843.2,790 1861.7,790 			"/>
			<path class="st5" d="M1875.4,819.7v29.2h-45.7v-29.4c0-0.4,0-0.9,0.1-1.3h45.6C1875.3,818.7,1875.4,819.2,1875.4,819.7z"/>
		</g>
		<g>
			<path class="st8" d="M1803.5,830.8V865h-34.6v-34.4c0-0.3,0-0.7,0.1-1c0.4-3.9,2.9-7.2,6.4-8.7c2.5-1.1,4.2-3.3,4.4-6l0.3-5h12.7
				l0.1,4.9c0.1,2.7,1.8,5,4.2,6c3.5,1.5,6,4.8,6.4,8.7C1803.5,830,1803.5,830.4,1803.5,830.8z"/>
			<polygon class="st20" points="1793.6,812.1 1778.8,812.1 1779.2,808.3 1793.2,808.3 			"/>
			<path class="st5" d="M1803.5,830.8v22.1h-34.6v-22.2c0-0.3,0-0.7,0.1-1h34.5C1803.5,830,1803.5,830.4,1803.5,830.8z"/>
		</g>
		<g>
			<path class="st8" d="M1728.8,830.8V865h-34.6v-34.4c0-0.3,0-0.7,0.1-1c0.4-3.9,2.9-7.2,6.4-8.7c2.5-1.1,4.2-3.3,4.4-6l0.3-5h12.7
				l0.1,4.9c0.1,2.7,1.8,5,4.2,6c3.5,1.5,6,4.8,6.4,8.7C1728.8,830,1728.8,830.4,1728.8,830.8z"/>
			<polygon class="st20" points="1718.9,812.1 1704.1,812.1 1704.5,808.3 1718.5,808.3 			"/>
			<path class="st5" d="M1728.8,830.8v22.1h-34.6v-22.2c0-0.3,0-0.7,0.1-1h34.5C1728.8,830,1728.8,830.4,1728.8,830.8z"/>
		</g>
		<g>
			<path class="st8" d="M1643.1,830.8V865h-34.6v-34.4c0-0.3,0-0.7,0.1-1c0.4-3.9,2.9-7.2,6.4-8.7c2.5-1.1,4.2-3.3,4.4-6l0.3-5h12.7
				l0.1,4.9c0.1,2.7,1.8,5,4.2,6c3.5,1.5,6,4.8,6.4,8.7C1643.1,830,1643.1,830.4,1643.1,830.8z"/>
			<polygon class="st20" points="1633.2,812.1 1618.4,812.1 1618.8,808.3 1632.8,808.3 			"/>
			<path class="st5" d="M1643.1,830.8v22.1h-34.6v-22.2c0-0.3,0-0.7,0.1-1h34.5C1643.1,830,1643.1,830.4,1643.1,830.8z"/>
		</g>
		<g>
			<path class="st8" d="M1551.4,830.8V865h-34.6v-34.4c0-0.3,0-0.7,0.1-1c0.4-3.9,2.9-7.2,6.4-8.7c2.5-1.1,4.2-3.3,4.4-6l0.3-5h12.7
				l0.1,4.9c0.1,2.7,1.8,5,4.2,6c3.5,1.5,6,4.8,6.4,8.7C1551.3,830,1551.4,830.4,1551.4,830.8z"/>
			<polygon class="st20" points="1541.5,812.1 1526.6,812.1 1527,808.3 1541.1,808.3 			"/>
			<path class="st5" d="M1551.4,830.8v22.1h-34.6v-22.2c0-0.3,0-0.7,0.1-1h34.5C1551.3,830,1551.4,830.4,1551.4,830.8z"/>
		</g>
	</g>
	<g>
		<g>
			<path class="st8" d="M2951.3,1584.5v45.3h-45.7v-45.5c0-0.4,0-0.9,0.1-1.3c0.5-5.2,3.8-9.6,8.4-11.5c3.3-1.4,5.6-4.4,5.8-8
				l0.3-6.5h16.8l0.1,6.5c0.1,3.6,2.3,6.6,5.6,8c4.6,2,8,6.3,8.5,11.5C2951.2,1583.5,2951.3,1584,2951.3,1584.5z"/>
			<polygon class="st20" points="2938.2,1559.9 2918.6,1559.9 2919.1,1554.8 2937.6,1554.8 			"/>
			<path class="st5" d="M2951.3,1584.5v29.2h-45.7v-29.4c0-0.4,0-0.9,0.1-1.3h45.6C2951.2,1583.5,2951.3,1584,2951.3,1584.5z"/>
		</g>
		<g>
			<path class="st8" d="M2866.8,1584.5v45.3h-45.7v-45.5c0-0.4,0-0.9,0.1-1.3c0.5-5.2,3.8-9.6,8.4-11.5c3.3-1.4,5.6-4.4,5.8-8
				l0.3-6.5h16.8l0.1,6.5c0.1,3.6,2.3,6.6,5.6,8c4.6,2,8,6.3,8.5,11.5C2866.8,1583.5,2866.8,1584,2866.8,1584.5z"/>
			<polygon class="st20" points="2853.7,1559.9 2834.1,1559.9 2834.7,1554.8 2853.2,1554.8 			"/>
			<path class="st5" d="M2866.8,1584.5v29.2h-45.7v-29.4c0-0.4,0-0.9,0.1-1.3h45.6C2866.8,1583.5,2866.8,1584,2866.8,1584.5z"/>
		</g>
		<g>
			<path class="st8" d="M2784.3,1584.5v45.3h-45.7v-45.5c0-0.4,0-0.9,0.1-1.3c0.5-5.2,3.8-9.6,8.4-11.5c3.3-1.4,5.6-4.4,5.8-8
				l0.3-6.5h16.8l0.1,6.5c0.1,3.6,2.3,6.6,5.6,8c4.6,2,8,6.3,8.5,11.5C2784.3,1583.5,2784.3,1584,2784.3,1584.5z"/>
			<polygon class="st20" points="2771.2,1559.9 2751.6,1559.9 2752.2,1554.8 2770.7,1554.8 			"/>
			<path class="st5" d="M2784.3,1584.5v29.2h-45.7v-29.4c0-0.4,0-0.9,0.1-1.3h45.6C2784.3,1583.5,2784.3,1584,2784.3,1584.5z"/>
		</g>
		<g>
			<path class="st8" d="M2708.2,1584.5v45.3h-45.7v-45.5c0-0.4,0-0.9,0.1-1.3c0.5-5.2,3.8-9.6,8.4-11.5c3.3-1.4,5.6-4.4,5.8-8
				l0.3-6.5h16.8l0.1,6.5c0.1,3.6,2.3,6.6,5.6,8c4.6,2,8,6.3,8.5,11.5C2708.1,1583.5,2708.2,1584,2708.2,1584.5z"/>
			<polygon class="st20" points="2695.1,1559.9 2675.5,1559.9 2676,1554.8 2694.5,1554.8 			"/>
			<path class="st5" d="M2708.2,1584.5v29.2h-45.7v-29.4c0-0.4,0-0.9,0.1-1.3h45.6C2708.1,1583.5,2708.2,1584,2708.2,1584.5z"/>
		</g>
		<g>
			<path class="st8" d="M2636.3,1595.6v34.3h-34.6v-34.4c0-0.3,0-0.7,0.1-1c0.4-3.9,2.9-7.2,6.4-8.7c2.5-1.1,4.2-3.3,4.4-6l0.3-5
				h12.7l0.1,4.9c0.1,2.7,1.8,5,4.2,6c3.5,1.5,6,4.8,6.4,8.7C2636.3,1594.8,2636.3,1595.2,2636.3,1595.6z"/>
			<polygon class="st20" points="2626.4,1576.9 2611.6,1576.9 2612,1573.1 2626,1573.1 			"/>
			<path class="st5" d="M2636.3,1595.6v22.1h-34.6v-22.2c0-0.3,0-0.7,0.1-1h34.5C2636.3,1594.8,2636.3,1595.2,2636.3,1595.6z"/>
		</g>
		<g>
			<path class="st8" d="M2561.6,1595.6v34.3h-34.6v-34.4c0-0.3,0-0.7,0.1-1c0.4-3.9,2.9-7.2,6.4-8.7c2.5-1.1,4.2-3.3,4.4-6l0.3-5
				h12.7l0.1,4.9c0.1,2.7,1.8,5,4.2,6c3.5,1.5,6,4.8,6.4,8.7C2561.6,1594.8,2561.6,1595.2,2561.6,1595.6z"/>
			<polygon class="st20" points="2551.7,1576.9 2536.9,1576.9 2537.3,1573.1 2551.3,1573.1 			"/>
			<path class="st5" d="M2561.6,1595.6v22.1h-34.6v-22.2c0-0.3,0-0.7,0.1-1h34.5C2561.6,1594.8,2561.6,1595.2,2561.6,1595.6z"/>
		</g>
		<g>
			<path class="st8" d="M2475.9,1595.6v34.3h-34.6v-34.4c0-0.3,0-0.7,0.1-1c0.4-3.9,2.9-7.2,6.4-8.7c2.5-1.1,4.2-3.3,4.4-6l0.3-5
				h12.7l0.1,4.9c0.1,2.7,1.8,5,4.2,6c3.5,1.5,6,4.8,6.4,8.7C2475.9,1594.8,2475.9,1595.2,2475.9,1595.6z"/>
			<polygon class="st20" points="2466,1576.9 2451.2,1576.9 2451.6,1573.1 2465.6,1573.1 			"/>
			<path class="st5" d="M2475.9,1595.6v22.1h-34.6v-22.2c0-0.3,0-0.7,0.1-1h34.5C2475.9,1594.8,2475.9,1595.2,2475.9,1595.6z"/>
		</g>
		<g>
			<path class="st8" d="M2384.2,1595.6v34.3h-34.6v-34.4c0-0.3,0-0.7,0.1-1c0.4-3.9,2.9-7.2,6.4-8.7c2.5-1.1,4.2-3.3,4.4-6l0.3-5
				h12.7l0.1,4.9c0,2.7,1.8,5,4.2,6c3.5,1.5,6,4.8,6.4,8.7C2384.2,1594.8,2384.2,1595.2,2384.2,1595.6z"/>
			<polygon class="st20" points="2374.3,1576.9 2359.5,1576.9 2359.8,1573.1 2373.9,1573.1 			"/>
			<path class="st5" d="M2384.2,1595.6v22.1h-34.6v-22.2c0-0.3,0-0.7,0.1-1h34.5C2384.2,1594.8,2384.2,1595.2,2384.2,1595.6z"/>
		</g>
	</g>
	<g>
		<rect x="1976.7" y="1156.8" class="st8" width="50" height="87.7"/>
		
			<rect x="1968.6" y="1213.2" transform="matrix(-1.836970e-16 1 -1 -1.836970e-16 3213.1343 -770.7983)" class="st5" width="46.7" height="15.9"/>
	</g>
	<g>
		<path class="st8" d="M1922.6,1199.3v45.3h-45.7v-45.5c0-0.4,0-0.9,0.1-1.3c0.5-5.2,3.8-9.6,8.4-11.5c3.3-1.4,5.6-4.4,5.8-8
			l0.3-6.5h16.8l0.1,6.5c0.1,3.6,2.3,6.6,5.6,8c4.6,2,8,6.3,8.5,11.5C1922.6,1198.3,1922.6,1198.8,1922.6,1199.3z"/>
		<polygon class="st20" points="1909.5,1174.7 1889.9,1174.7 1890.4,1169.5 1909,1169.5 		"/>
		<path class="st5" d="M1922.6,1199.3v29.2h-45.7v-29.4c0-0.4,0-0.9,0.1-1.3h45.6C1922.6,1198.3,1922.6,1198.8,1922.6,1199.3z"/>
	</g>
	<g>
		<rect x="1814.7" y="1156.8" class="st8" width="50" height="87.7"/>
	</g>
	<rect x="2308.8" y="1244.5" class="st6" width="678.8" height="14.9"/>
	<g>
		<path class="st8" d="M2621.2,1199.3v45.3h-45.7v-45.5c0-0.4,0-0.9,0.1-1.3c0.5-5.2,3.8-9.6,8.4-11.5c3.3-1.4,5.6-4.4,5.8-8
			l0.3-6.5h16.8l0.1,6.5c0.1,3.6,2.3,6.6,5.6,8c4.6,2,8,6.3,8.5,11.5C2621.2,1198.3,2621.2,1198.8,2621.2,1199.3z"/>
		<polygon class="st20" points="2608.1,1174.7 2588.5,1174.7 2589,1169.5 2607.6,1169.5 		"/>
		<path class="st5" d="M2621.2,1199.3v29.2h-45.7v-29.4c0-0.4,0-0.9,0.1-1.3h45.6C2621.2,1198.3,2621.2,1198.8,2621.2,1199.3z"/>
	</g>
	<g>
		<rect x="2510.7" y="1156.8" class="st8" width="50" height="87.7"/>
		
			<rect x="2502.7" y="1213.2" transform="matrix(-1.836970e-16 1 -1 -1.836970e-16 3747.1733 -1304.8374)" class="st5" width="46.7" height="15.9"/>
	</g>
	<g>
		<path class="st8" d="M2466.5,1199.3v45.3h-45.7v-45.5c0-0.4,0-0.9,0.1-1.3c0.5-5.2,3.8-9.6,8.4-11.5c3.3-1.4,5.6-4.4,5.8-8
			l0.3-6.5h16.8l0.1,6.5c0.1,3.6,2.3,6.6,5.6,8c4.6,2,8,6.3,8.5,11.5C2466.4,1198.3,2466.5,1198.8,2466.5,1199.3z"/>
		<polygon class="st20" points="2453.4,1174.7 2433.8,1174.7 2434.3,1169.5 2452.8,1169.5 		"/>
		<path class="st5" d="M2466.5,1199.3v29.2h-45.7v-29.4c0-0.4,0-0.9,0.1-1.3h45.6C2466.4,1198.3,2466.5,1198.8,2466.5,1199.3z"/>
	</g>
	<g>
		<rect x="2351.6" y="1156.8" class="st8" width="50" height="87.7"/>
		
			<rect x="2343.6" y="1213.2" transform="matrix(-1.836970e-16 1 -1 -1.836970e-16 3588.0474 -1145.7114)" class="st5" width="46.7" height="15.9"/>
	</g>
	<g>
		<path class="st9" d="M2095.2,1438.1h-30.4c-8.8,0-15.9-7.1-15.9-15.9v-72.8c0-8.8,7.1-15.9,15.9-15.9h30.4
			c8.8,0,15.9,7.1,15.9,15.9v72.8C2111.1,1431,2104,1438.1,2095.2,1438.1z"/>
		<rect x="2066.1" y="1324.6" class="st7" width="24.9" height="9"/>
		<rect x="2049" y="1368.3" class="st5" width="62.2" height="27.9"/>
	</g>
	<g>
		<path class="st9" d="M1999,1438.1h-18.7c-5.4,0-9.8-4.4-9.8-9.8v-44.8c0-5.4,4.4-9.8,9.8-9.8h18.7c5.4,0,9.8,4.4,9.8,9.8v44.8
			C2008.8,1433.8,2004.4,1438.1,1999,1438.1z"/>
		<rect x="1981.1" y="1368.3" class="st7" width="15.3" height="5.5"/>
		<rect x="1970.6" y="1395.2" class="st5" width="38.2" height="17.1"/>
	</g>
	<g>
		<path class="st9" d="M1928.8,1438.1h-12.6c-3.6,0-6.6-3-6.6-6.6v-30.3c0-3.6,3-6.6,6.6-6.6h12.6c3.6,0,6.6,3,6.6,6.6v30.3
			C1935.4,1435.2,1932.4,1438.1,1928.8,1438.1z"/>
		<rect x="1916.7" y="1390.9" class="st7" width="10.3" height="3.7"/>
		<rect x="1909.5" y="1409.1" class="st5" width="25.8" height="11.6"/>
	</g>
	<g>
		<path class="st9" d="M1869.2,1438.1h-18.7c-5.4,0-9.8-4.4-9.8-9.8v-44.8c0-5.4,4.4-9.8,9.8-9.8h18.7c5.4,0,9.8,4.4,9.8,9.8v44.8
			C1878.9,1433.8,1874.5,1438.1,1869.2,1438.1z"/>
		<rect x="1851.2" y="1368.3" class="st7" width="15.3" height="5.5"/>
		<rect x="1840.7" y="1395.2" class="st5" width="38.2" height="17.1"/>
	</g>
	<g>
		<path class="st9" d="M1798.9,1438.1h-12.6c-3.6,0-6.6-3-6.6-6.6v-30.3c0-3.6,3-6.6,6.6-6.6h12.6c3.6,0,6.6,3,6.6,6.6v30.3
			C1805.5,1435.2,1802.5,1438.1,1798.9,1438.1z"/>
		<rect x="1786.8" y="1390.9" class="st7" width="10.3" height="3.7"/>
		<rect x="1779.6" y="1409.1" class="st5" width="25.8" height="11.6"/>
	</g>
	<g>
		<rect x="719.5" y="365" class="st5" width="581.5" height="52"/>
		<rect x="802.2" y="226.4" class="st5" width="5.4" height="138.6"/>
		<rect x="1213.5" y="226.4" class="st5" width="5.4" height="138.6"/>
	</g>
	<g>
		<rect x="1938.4" y="365" class="st5" width="581.5" height="52"/>
		<rect x="2021.2" y="226.4" class="st5" width="5.4" height="138.6"/>
		<rect x="2432.4" y="226.4" class="st5" width="5.4" height="138.6"/>
	</g>
	<rect x="359.9" y="699.3" class="st5" width="674.7" height="17"/>
	<rect x="342.6" y="699.3" class="st5" width="17.3" height="1088.5"/>
	<rect x="1030.1" y="699.3" class="st5" width="17.3" height="1088.5"/>
	<rect x="1486.9" y="699.3" class="st5" width="674.7" height="17"/>
	<rect x="1469.6" y="699.3" class="st5" width="17.3" height="1088.5"/>
	<rect x="2157" y="699.3" class="st5" width="17.3" height="1088.5"/>
	<rect x="2313.1" y="699.3" class="st5" width="674.7" height="17"/>
	<rect x="2295.8" y="699.3" class="st5" width="17.3" height="1088.5"/>
	<rect x="2983.2" y="699.3" class="st5" width="17.3" height="1088.5"/>
	<g>
		<g>
			<g>
				<path class="st21" d="M471.7,1594.9c0,0-30.8-36-1.9-58.8c0,0,21.1-12.8,38.4-11.8c0,0-24.4,40.9-16.5,45s23.9-47.6,23.9-47.6
					s48.1-4.7,63.5,2.8c0,0-41.1,33.6-32.4,35.6c8.7,2,53.1-31,53.1-31s44.7,7.6,42.4,34.9c-2.4,27.3-17.8,35.7-24.6,35
					c-6.8-0.7-46.4-15.9-47.3-10.3c-0.9,5.6,23,23.7,39.7,24.5c0,0-31.5,34.8-52.5,24.8s-22.8-26-35.8-31.9c-13.1-6-24.2-6-18.8,0.1
					c5.4,6.1,29,12,36.5,25.2c7.5,13.2,14.2,22.1-7.5,18.9c-21.7-3.3-57-19.1-58.5-37.3C471.7,1594.9,471.7,1594.9,471.7,1594.9z"/>
				<g>
					<path class="st21" d="M620,1564.8c0,0-121.5-4.7-148.4,30.1c0,0-5.9,17.8-24.2,34l-2.8,7.8c0,0,21.1-22.2,28.6-23.5
						C473.2,1613,461.4,1570,620,1564.8z"/>
					<path class="st21" d="M447.5,1628.8c0,0-26.1,19.3-27.9,53.8l4.7,0.4c0,0,8.3-35.6,23.4-49.6
						C462.7,1619.5,447.5,1628.8,447.5,1628.8z"/>
				</g>
			</g>
			<g>
				<path class="st21" d="M363.9,1549.6c0,0,49-27.5,26.2-64.7c0,0-18.3-22.9-37.9-28.8c0,0,10.5,55.6,0,56.9
					c-10.5,1.3-7.2-62.8-7.2-62.8s-51.6-24.8-71.9-22.9c0,0,32,54.3,21.6,53c-10.5-1.3-46.4-56.2-46.4-56.2s-53-9.8-61.5,21.6
					c-8.5,31.4,5.2,47.1,13.1,49c7.8,2,58.2,1.3,56.9,7.8c-1.3,6.5-35.3,17-54.3,11.1c0,0,20.9,51.6,48.4,49
					c27.5-2.6,36-19.6,53-20.9s29.4,3.3,20.9,7.8c-8.5,4.6-37.3,1.5-51,13.2s-24.8,18.9,0.7,24.1c25.5,5.2,71.3,2,80.4-17.7
					C363.9,1549.6,363.9,1549.6,363.9,1549.6z"/>
				<g>
					<path class="st21" d="M210.9,1455.5c0,0,137.3,44.5,153,94.1c0,0-0.7,22.2,13.1,47.7v9.8c0,0-14.4-33.3-22.2-37.9
						C354.7,1569.3,385.5,1526.1,210.9,1455.5z"/>
					<path class="st21" d="M377,1597.4c0,0,21.2,32.2,9.1,71.3l-5.4-1.5c0,0,5.3-43.1-5.8-64.8C363.8,1580.7,377,1597.4,377,1597.4z
						"/>
				</g>
			</g>
			<g>
				<path class="st22" d="M441.9,1511.8c0,0-64.6-36.2-34.5-85.3c0,0,24.1-30.2,50-37.9c0,0-13.8,73.3,0,75
					c13.8,1.7,9.5-82.7,9.5-82.7s68.1-32.7,94.8-30.2c0,0-42.2,71.5-28.4,69.8c13.8-1.7,61.2-74.1,61.2-74.1s69.8-12.9,81,28.4
					c11.2,41.4-6.9,62.1-17.2,64.6s-76.7,1.7-75,10.3c1.7,8.6,46.5,22.4,71.5,14.7c0,0-27.6,68.1-63.8,64.6s-47.4-25.9-69.8-27.6
					c-22.4-1.7-38.8,4.3-27.6,10.3c11.2,6,49.1,2,67.2,17.4c18.1,15.4,32.7,24.9-0.9,31.8c-33.6,6.9-93.9,2.6-106-23.3
					C441.9,1511.8,441.9,1511.8,441.9,1511.8z"/>
				<g>
					<path class="st22" d="M643.6,1387.7c0,0-181,58.6-201.7,124.1c0,0,0.9,29.3-17.2,62.9v12.9c0,0,19-44,29.3-50
						C454,1537.6,413.5,1480.7,643.6,1387.7z"/>
					<path class="st22" d="M424.7,1574.7c0,0-27.9,42.4-12,94l7.2-1.9c0,0-7-56.8,7.6-85.4C442.1,1552.7,424.7,1574.7,424.7,1574.7z
						"/>
				</g>
			</g>
			<path class="st22" d="M439.7,1780.5c69.9,0,126.6-56.7,126.6-126.6H313.1C313.1,1723.8,369.8,1780.5,439.7,1780.5z"/>
			<path class="st13" d="M470.9,1779.6c-5.1,0.6-10.4,1-15.7,1c-69.9,0-126.6-56.7-126.6-126.6H360
				C360,1718.5,408.4,1771.8,470.9,1779.6z"/>
			<rect x="308.9" y="1653.9" class="st22" width="260.3" height="3.9"/>
		</g>
		<rect x="396.6" y="1772.6" class="st22" width="80.4" height="14.5"/>
	</g>
	<g>
		<path class="st23" d="M1201,1736h51c-0.4-2.7-1.7-10.8-4.1-18.3c-0.8-2.6-1.8-5.1-2.9-7.3c-5-9.9-36.5-3.6-36.5-3.6
			s-2.9,2.5-5.2,12.1C1202.4,1723,1201.5,1728.6,1201,1736z"/>
		<path class="st24" d="M1294.6,957.1c0,0,40.6,7.1,49.8,31.1c9.2,24,61.1,411.4,61.1,411.4s-25.7,20.4-80.9,13.1
			C1269.5,1405.3,1294.6,957.1,1294.6,957.1z"/>
		<path class="st23" d="M1355.1,1719.9c0.1,6.9,1,13.5,3.5,16.1h100.9c-1.3-3.6-4.9-9.1-15.3-10.8c-11.8-1.9-30.1-7.6-40.8-18.9
			c-3.8-4-6.7-8.8-7.9-14.3c-4.7-21.1-39.2,6.5-39.2,6.5S1354.9,1709.6,1355.1,1719.9z"/>
		<path class="st23" d="M1398.5,1709.6c-11.3,3.6-32.8,14.6-46.5,9.4c-8.8-3.3-58.3-146.3-61.5-208.9c-0.2-4.5-1.1-10.9-2.5-18.6
			c-2.9-16.1-8-38.3-13.9-62.8c-15.8-65.6-37.2-147.6-36.8-173.9c0.7-40.7,121.3-8.5,121.3-8.5s8.3,33.4,9.9,81.7
			c3.3,96,12.3,258,36.8,370.6C1406.4,1703.4,1403.2,1708.1,1398.5,1709.6z"/>
		<path class="st25" d="M1314.9,1255l-63.7,462c0,0-28,6.8-49.8,1.4c0,0-18.7-245.7-17.1-305.1c1.6-59.4-13.4-159,3.4-169.9
			C1204.4,1232.3,1314.9,1255,1314.9,1255z"/>
		<path class="st5" d="M1179.6,978.2c0,0,67-43.3,115-21.2c7.7,3.5,16.4,13.4,22.6,20.3c17.4,19.1,51.3,323.2,51.3,323.2
			s-96.3,32.6-189-11.1V978.2z"/>
		<path class="st24" d="M1298.4,956c0,0,67.8,27.8,77,49.2c9.2,21.4,55.6,213.7,55.6,229.1s-40.4,49.9-48.7,25.1
			c-6.9-20.6-58.5-191.6-70.9-231.6L1298.4,956z"/>
		<g>
			<path class="st26" d="M1284.4,977.2c-14.8,2.9-36.6-0.2-52.5-10.7c7.2-17.2,10.1-30.7,11.2-39.5c0.1-0.5,0.1-0.9,0.2-1.4
				c0.5-4.5,0.4-7.6,0.2-9h38.3c0,0,10.5,4.8,10.5,8.1c0,1.8,0,3.5,0,5.1c0.1,4.4,0.3,8.2,0.5,11.5c0.7,10.7,2,15.8,2,15.8
				S1299.3,974.2,1284.4,977.2z"/>
			<path class="st27" d="M1292.7,941.3c-29,5.6-45.8-10.2-49.6-14.3c-0.5-0.6-0.8-0.9-0.8-0.9c0.3-0.2,0.6-0.3,1-0.4
				c10.8-4.4,35.3-0.9,49,4.1C1292.3,934.1,1292.4,938,1292.7,941.3z"/>
			<path class="st26" d="M1233.6,910.3c5.2,27.9,41.2,27,56.7,25.2c4.4-0.5,7.1-1,7.1-1c4.9-1.3,7.7-9.1,9-19.3
				c2.5-20.1-0.7-49.7-4.1-57.3c-5.1-11.4-14.8-23.7-51-14.8C1215.1,852,1226.9,874.5,1233.6,910.3z"/>
			<path class="st23" d="M1303.7,842.3c-5-6.9-15.5-15.2-25-20.4c-20.5-11.1-46.7,0.3-46.8,0.4c-29.6,13-37.3,35.7-21.6,70.9
				c16.6,37.3,32.4,33.1,32.4,33.1s-3.4-2.1-3.1-13.7c0-0.7,0-1.2,0.1-1.7c0.2-2.4-0.7-4.8-2.5-6.4c-3.7-3.3-5.5-13.2-2.4-16
				c3.7-3.3,8.9,0.7,10.6,3.8c1.5,2.2,4.1,3,6.5,1.4c9.2-5.8,3.2-17.5,12-24.6c8.8-7.1,26.7-1.1,39.9-6.8
				C1321.1,856,1307.4,847.5,1303.7,842.3z"/>
		</g>
		<path class="st24" d="M1307.8,1428.1c-5.8,1.5-11.6,2.7-17.3,3.7c-5.1,0.9-10.1,1.5-15.2,1.9c-28.7,2.5-57.5-1.5-91.1-11.2
			c-7.6-2.2-15.4-4.6-23.5-7.4c-0.9-0.3,2.2-89.3,5.8-181.1c0.4-9.5,0.7-19,1.1-28.5c0.2-4,0.3-8,0.5-12
			c3.2-81.2,6.4-154.5,7.1-158.5c1.5-8.9,3-16.6,4.5-23.1c4.6-19.2,10.3-29.8,22.7-38.9c1.2-0.9,11.1-5.9,19.9-10.3
			c7.3-3.6,13.7-6.8,13.7-6.8c0,0,0,0,0,0c2.9,1.4,6.4,8,10,17.3c6.7,17.1,13.9,43.3,18.9,62.9c0,0,0,0.1,0,0.1c0,0,0,0,0,0
			c3.2,12.6,5.5,22.5,6.2,25.3c1.1,4.8,2.6,14,4.3,26.5c2.4,17,5.2,40.1,8.2,66.4c0.3,2.7,0.6,5.4,0.9,8.2c0.3,3.1,0.7,6.3,1.1,9.5
			c0.1,1,0.2,2.1,0.3,3.1C1286.9,1185.9,1308.2,1422.8,1307.8,1428.1z"/>
		<path class="st28" d="M1285.4,1172.4c-19.3-0.8-112.7-5.1-114.4-7.8c-1.9-3.1,37.9-96.7,37.9-96.7c0,0.2-7.8,75.7,53.9,85.7
			c6.4,1-1,9.2,3.4,10.1C1266.6,1166.8,1285.1,1169.1,1285.4,1172.4z"/>
		<path class="st28" d="M1280.1,1189.7c0,0-21,12.2-21.1,12.2c-9.4,6-38.8,17.9-79.4,28.9c-4.3,1.2-8.7,2.3-13.2,3.3
			c0.4-9.5,0.7-19,1.1-28.4c-5.4-0.4-10.5-1.1-15.3-2.1c0.2-1.2,0.3-2.5,0.5-3.7c5.2-2.1,10.3-4.2,15.3-6.1c4-1.6,7.9-3.1,11.6-4.5
			c16.7-6.3,29.1-10.6,29.1-10.6l49.4,15.6L1280.1,1189.7z"/>
		<path class="st28" d="M1293.3,948.2c3.9,1.5,11.2,9,12.9,13.2l5.2,66.3c0,0-11.1-48.7-16.8-70.7
			C1293.2,951.5,1293.5,949.8,1293.3,948.2z"/>
		<path class="st5" d="M1283,918c0,0,3.8,4.9,8.9,4.3c5.1-0.6,8.9-2.2,9.5-4.5c0.6-2.3,1-4,1-4S1295.3,912.2,1283,918z"/>
		<path class="st26" d="M1270.6,1162.3c0,0,12.3-5.8,15.6-7.3c3.3-1.5,14.9-4.2,14.9-4.2l-0.5,6.3l-11.5,7.9l-17.6,9.1
			L1270.6,1162.3z"/>
		<g>
			
				<rect x="1296.5" y="1130.7" transform="matrix(0.9736 -0.2282 0.2282 0.9736 -229.6783 335.0221)" class="st7" width="74.8" height="60.1"/>
			
				<rect x="1293.5" y="1145.4" transform="matrix(0.9736 -0.2282 0.2282 0.9736 -227.6954 330.151)" class="st5" width="40.7" height="8.6"/>
		</g>
		<path class="st26" d="M1278.8,1183.1c0,0,18.7,0.6,29.1-0.5s22.6-11.4,23.3-14c0.7-2.6-0.9-7.2-12.9-7.9c-10.2-0.5-22.5,0-22.5,0
			l-24.9,5.7L1278.8,1183.1z"/>
		<path class="st24" d="M1280.1,1189.7c0,0-12.3,5.7-22.4,7.7c0,0-0.1,0-0.1,0c-18.6,3.7-50,9-77.9,8.7c-4.1,0-8.2-0.2-12.1-0.5
			c-5.4-0.4-10.5-1.1-15.3-2.1c-10.2-2.2-18.8-5.8-24.4-11.5c-41.6-42.4,22.7-194.6,36.2-209.4c15.8-17.3,44.6-23.3,60.5-25.4
			c0.7-0.1,1.3-0.2,1.9-0.2c5.6-0.7,9.2-0.8,9.4-0.8c0,0,0,0,0,0s-1.2,4-3.3,10.8c-0.8,2.6-1.8,5.7-2.8,9.1
			c-9.8,32-28.6,94.9-37,130.4c-3,13-4.7,22.3-3.9,25.1c3.2,12.1,36.9,18.3,58.2,21.1c8.9,1.1,14.3,0.8,15.8,1
			C1275.8,1151.6,1280.1,1189.7,1280.1,1189.7z"/>
		<path class="st28" d="M1238.8,947.1c0,0-13.2,2.3-19.1,10.7c0,0,45.3,79.3,45.1,78.6C1264.6,1035.7,1250,956.9,1238.8,947.1z"/>
	</g>
	<g>
		<rect x="736" y="1248.9" class="st7" width="1069.3" height="538.9"/>
		<rect x="701.6" y="1218.4" class="st5" width="1138.1" height="44.1"/>
		<g>
			<path class="st5" d="M987,1366.1h20.1c11.9,0,19.4,6.8,19.4,17.2c0,11.4-9.2,17.4-20.4,17.4h-10.1v16.4h-9V1366.1z
				 M1006.3,1392.6c6.8,0,11-3.8,11-9.3c0-6-4.3-9.1-11-9.1h-10.4v18.4H1006.3z"/>
			<path class="st5" d="M1035.7,1366.1h9v21.2h24.4v-21.2h9v51h-9v-21.5h-24.4v21.5h-9V1366.1z"/>
			<path class="st5" d="M1109.2,1365.7h8.3l22.5,51.4h-9.5l-5.2-12.3h-24.1l-5.2,12.3h-9.2L1109.2,1365.7z M1122,1396.8l-8.8-20.4
				l-8.7,20.4H1122z"/>
			<path class="st5" d="M1148.7,1366.1h22.7c12,0,19,6.4,19,16.3c0,8.4-5,13.4-12.2,15.5l13.8,19.3h-10.6l-12.7-17.8h-11.1v17.8h-9
				V1366.1z M1170.8,1391.4c6.4,0,10.5-3.4,10.5-8.7c0-5.5-3.9-8.5-10.6-8.5h-13.1v17.1H1170.8z"/>
			<path class="st5" d="M1201.4,1366.1h9.6l15.5,24.1l15.5-24.1h9.6v51h-9v-36.6l-16.1,24.1h-0.3l-16-23.9v36.5h-8.8V1366.1z"/>
			<path class="st5" d="M1282.8,1365.7h8.3l22.5,51.4h-9.5l-5.2-12.3h-24.1l-5.3,12.3h-9.2L1282.8,1365.7z M1295.6,1396.8l-8.8-20.4
				l-8.7,20.4H1295.6z"/>
			<path class="st5" d="M1316.9,1391.6c0-14.5,10.9-26.4,26.3-26.4c9.4,0,15.1,3.3,20,7.9l-5.8,6.6c-4.1-3.8-8.5-6.3-14.3-6.3
				c-9.8,0-16.8,8-16.8,18.2c0,10,7.1,18.2,16.8,18.2c6.3,0,10.3-2.6,14.7-6.6l5.8,5.8c-5.3,5.5-11.2,9-20.7,9
				C1328,1418,1316.9,1406.4,1316.9,1391.6z"/>
			<path class="st5" d="M1387.2,1397l-20.3-30.9h10.6l14.3,22.6l14.4-22.6h10.3l-20.3,30.7v20.3h-9V1397z"/>
		</g>
		<rect x="736" y="1605.4" class="st5" width="1069.3" height="87"/>
		<g>
			<g>
				<path class="st5" d="M856,1459c-18,0-34.9-7-47.7-19.7c-12.7-12.7-19.7-29.7-19.7-47.7s7-34.9,19.7-47.7
					c12.7-12.7,29.7-19.7,47.7-19.7c18,0,34.9,7,47.7,19.7c12.7,12.7,19.7,29.7,19.7,47.7s-7,34.9-19.7,47.7
					C890.9,1452,874,1459,856,1459z M856,1330.4c-16.3,0-31.7,6.4-43.3,17.9c-11.6,11.6-17.9,26.9-17.9,43.3s6.4,31.7,17.9,43.3
					c11.6,11.6,26.9,17.9,43.3,17.9c16.4,0,31.7-6.4,43.3-17.9c11.6-11.6,17.9-26.9,17.9-43.3s-6.4-31.7-17.9-43.3
					C887.7,1336.7,872.3,1330.4,856,1330.4z"/>
			</g>
			<polygon class="st5" points="899.5,1380.6 866.9,1380.6 866.9,1348 845,1348 845,1380.6 812.4,1380.6 812.4,1402.6 845,1402.6 
				845,1435.1 866.9,1435.1 866.9,1402.6 899.5,1402.6 			"/>
		</g>
	</g>
	<rect x="2313.1" y="865" class="st6" width="670.2" height="14.9"/>
	<rect x="2413.5" y="865" class="st5" width="45.1" height="25.2"/>
	<rect x="2579.2" y="865" class="st5" width="45.1" height="25.2"/>
	<rect x="2844.3" y="865" class="st5" width="45.1" height="25.2"/>
	<rect x="2313.1" y="1438.1" class="st6" width="670.2" height="14.9"/>
	<rect x="2313.1" y="1629.9" class="st6" width="670.2" height="14.9"/>
	<rect x="2358.9" y="1385.8" class="st15" width="74.9" height="52.3"/>
	<rect x="2464.3" y="1363.3" class="st8" width="74.9" height="74.9"/>
	<rect x="2569.6" y="1363.3" class="st15" width="74.9" height="74.9"/>
	<rect x="2358.9" y="1400.7" class="st5" width="36.4" height="7"/>
	<rect x="2464.3" y="1375.9" class="st5" width="36.4" height="7"/>
	<rect x="2569.6" y="1375.9" class="st5" width="36.4" height="7"/>
	<rect x="2343.9" y="806.1" class="st8" width="50.9" height="58.9"/>
	<rect x="2343.9" y="816.9" class="st9" width="31.4" height="18.7"/>
	<rect x="2434.6" y="806.1" class="st8" width="50.9" height="58.9"/>
	<rect x="2434.6" y="816.9" class="st9" width="31.4" height="18.7"/>
	<rect x="2506.9" y="828.7" class="st7" width="31.4" height="36.3"/>
	<rect x="2506.9" y="835.3" class="st9" width="19.4" height="11.5"/>
	<rect x="2565.9" y="828.7" class="st7" width="31.4" height="36.3"/>
	<rect x="2565.9" y="835.3" class="st9" width="19.4" height="11.5"/>
	<rect x="2632.5" y="828.7" class="st7" width="31.4" height="36.3"/>
	<rect x="2632.5" y="835.3" class="st9" width="19.4" height="11.5"/>
	<g>
		<rect x="2809.5" y="811.5" class="st8" width="46.3" height="53.6"/>
		<rect x="2809.5" y="821.2" class="st9" width="28.6" height="17"/>
	</g>
	<g>
		<rect x="2904" y="811.5" class="st8" width="46.3" height="53.6"/>
		<rect x="2904" y="821.2" class="st9" width="28.6" height="17"/>
	</g>
	<g>
		<rect x="2724.9" y="811.5" class="st8" width="46.3" height="53.6"/>
		<rect x="2724.9" y="821.2" class="st9" width="28.6" height="17"/>
	</g>
	<g>
		<g>
			<path class="st7" d="M1894.8,1472.8v45.3h-45.7v-45.5c0-0.4,0-0.9,0.1-1.3c0.5-5.2,3.8-9.6,8.4-11.5c3.3-1.4,5.6-4.4,5.8-8
				l0.3-6.5h16.8l0.1,6.5c0.1,3.6,2.3,6.6,5.6,8c4.6,2,8,6.3,8.5,11.5C1894.8,1471.8,1894.8,1472.3,1894.8,1472.8z"/>
			<polygon class="st20" points="1881.7,1448.1 1862.1,1448.1 1862.7,1443 1881.2,1443 			"/>
			<g>
				
					<rect x="1911.1" y="1449.4" transform="matrix(0.6393 -0.769 0.769 0.6393 -427.6963 2032.6459)" class="st29" width="83" height="45.6"/>
			</g>
			<g>
				<polygon class="st7" points="2010.9,1450.7 2009.6,1454.6 1989.3,1513.8 1977.9,1510.5 1990.4,1449 1991.3,1445 				"/>
				<polygon class="st9" points="2010.9,1450.7 2009.6,1454.6 1990.4,1449 1991.3,1445 				"/>
				
					<rect x="1977.3" y="1506.5" transform="matrix(0.9604 0.2785 -0.2785 0.9604 499.5299 -492.6672)" class="st8" width="12.5" height="10.3"/>
				
					<rect x="1987.2" y="1489.7" transform="matrix(0.9606 0.2779 -0.2779 0.9606 494.1782 -493.4059)" class="st10" width="0.9" height="13.9"/>
			</g>
		</g>
		<path class="st26" d="M1896.4,1328.9c0,0,19,12.6,21.9,17.9c2.9,5.3,2,16.7,2,16.7s-18.9,8.4-16.6-1.5c2.2-9.5-6.2-5.8-11.5-10.4
			c-5.3-4.6-11.5-18.1-11.5-18.1L1896.4,1328.9z"/>
		<g>
			<path class="st23" d="M1706.5,917.3c0,0,46.8-56.2,71.6-20.2c0,0,18.5,7.7,25.2,39.1c6.8,32.1-14.5,56.5-25.6,50.5
				c-7.1-3.9-12.4,8.5-12.4,8.5L1706.5,917.3z"/>
			<path class="st26" d="M1648.5,1216.4c-37.2-13.7-73-77.4-73-77.4l11.7-8.2c9.8,14.3,53.7,41.7,53.7,41.7c1-12,2.5-23,4.3-32.9
				c12.2-67.3,40.1-87.2,47.6-91.4c1.2-0.7,1.9-1,1.9-1s0,0.5-0.1,1.4c-0.1,2-0.3,6.1-0.7,11.7
				C1691,1102.1,1679.6,1227.9,1648.5,1216.4z"/>
			<path class="st23" d="M1773,891.3c0,0,6.3-25.2,43.2-17.3c0,0-17.7-2.2-22.5,4.6c0,0,14-6.4,22.8-1s10.2,23.5,8.9,29
				s-11,21.9-17.4,21.9s-14-5.6-14-5.6L1773,891.3z"/>
			<path class="st26" d="M1828.3,1285.1c-18.4-41.2-27.2-52.9-27.5-65.8c-0.2-10.3,4.8-21.3,14.6-48.4c2.3-6.4,3.9-13,4.9-19.6
				c7.8-52.3-22.5-108.8-41.3-112.7c-5.2-1.4-14.1-20.3-14-50.7l-2.4,0.5l-39.6,7.8c0,0,0.9,12.5,0.9,24.2c0,9.8-0.6,19-2.8,20.2
				c-2.9,0.3-4.5,0.4-4.5,0.4s-33,45.8-35.8,88.5c-2.8,42.6,26.4,61.1-0.2,146.3C1653.5,1362.8,1838.4,1307.9,1828.3,1285.1z"/>
			<path class="st30" d="M1723.1,996.1c0,0,0.9,12.5,0.9,24.2c22.1-0.6,33.9-20.8,38.7-32L1723.1,996.1z"/>
			<path class="st23" d="M1766.8,984c0,0,11.6-18.3,14.4-34c2-11.2-3.7-52.7-45.4-46.7c0,0-12.1,1.2-23.5,8.9
				c-9.1,6.1-22.1,19.3-7.5,55.5l3.8,12.2L1766.8,984z"/>
			<path class="st26" d="M1715.7,1007.2c0,0,52.4,0.9,52.4-31.8s6.8-54.5-26.6-56.4c-33.5-1.9-40,10.5-42.6,21.4
				C1696.2,951.3,1702.1,1006.2,1715.7,1007.2z"/>
			<path class="st23" d="M1717.7,918.2c0,0,14.3,38.3,36.4,44c22,5.7,31.6-0.2,31.6-0.2s-16.9-13.4-20.4-36.8
				C1765.2,925.1,1728.5,900,1717.7,918.2z"/>
			<path class="st23" d="M1721.2,921.3c0,0-10.7,8.5-13.3,16.9s-3.8,25.4-8.8,24.8c0,0-10.8-26,1.3-40.8
				C1713.3,906.7,1721.2,921.3,1721.2,921.3z"/>
			<path class="st18" d="M1781.9,1680.6c-13.2,52.4-33,92.7-33,92.7l-17.3-1.2c0,0,8.5-40.3,8-94.8c-0.3-38.1-5.1-83.1-20.1-126.1
				c-51.7-147.7-43.3-255.1-43.3-255.1l97.2,11.4l4.5,0.5c0.4,44.7,1.6,105.3,2.6,152.7c0.9,42.6,1.7,74.6,1.7,74.6
				C1800.8,1575.5,1794,1632.3,1781.9,1680.6z"/>
			<path class="st26" d="M1896.4,1328.9l-15.7,4.7c0,0-51.9-86.1-56.6-108.5c-1.5-7.3-5.3-21.9-9.7-38.2
				c-9.1-33.9-20.9-75.3-20.9-75.3l-3.9-16.8l-13.2-57.2c0,0,25.3,2.6,40.1,8.8c4.9,2,8.6,4.5,9.9,7.3
				c10.9,23.9,21.7,84.2,29.3,127.2c4.3,24,7.5,42.6,9.2,46.5C1869.7,1238.5,1884.1,1299,1896.4,1328.9z"/>
			<path class="st19" d="M1837.6,1672.2c-5.6,59.7-30.2,98.2-30.2,98.2l-8.3,6c0,0-7.8-42-13.3-92.1c-5.3-47.5-12.5-97.8-20.7-113.2
				c-32.4-60.9-42.2-290.8-42.2-290.8l98.6-4.9c9.9,16.7,14.2,44,15.3,75.1c2.6,78.5-15.8,180.7-18.6,195.5c0,0,0,0,0,0
				c-0.2,1.1,0.1,2.3,0.6,3.3C1838.5,1588.4,1841.3,1632.8,1837.6,1672.2z"/>
			<path class="st23" d="M1719.2,922.6c0,0,10.2,40.1,38,52.9c0,0-27.8-24.6-30.1-51.1C1724.7,898,1719.2,922.6,1719.2,922.6z"/>
			<path class="st26" d="M1587.2,1130.9c0-1.6,1.4-25-2.8-29.9c-4.2-4.9-12.7-11.9-15.4-11.7c-2.7,0.2-13.1,14.1-10,24.8
				s16.4,25.1,16.4,25.1L1587.2,1130.9z"/>
			<path class="st26" d="M1837.6,1672.2c-5.6,59.7-30.2,98.2-30.2,98.2l-8.4,7.7c0,0-7.7-43.7-13.2-93.7
				C1791.7,1684.8,1817.3,1685.8,1837.6,1672.2z"/>
			<path class="st26" d="M1781.9,1680.6c-13.2,52.4-33,92.7-33,92.7l-17.3-1.2c0,0,8.5-40.3,8-94.8
				C1745.4,1680.2,1757.5,1683.2,1781.9,1680.6z"/>
			<g>
				<path class="st23" d="M1758.8,1787.7h-11c-3.7-0.6-6.4-1.7-10.2-2.1c-5.8-0.8-8.4,1.6-8.9,2.1c-0.1,0.1-0.1,0.1-0.1,0.1h-46.9
					c-1.2-1.7,0-5.6,1.1-8.5c0.7-2,2.4-3.4,4.4-4c5-1.4,14.8-2.7,23.7-10.8c5-4.6,24.4-16.8,24.4-16.8l0.1,0c0.4,0,2.4,0.6,11.2,8.1
					c4.5,3.8,12.3-5.4,12.3-5.4s1.5,1.2,2.5,3.4c0.9,1.8,1.5,4.2,1,7.2c-0.7,4.2,1.6,12.1,3.4,17.4c1.1,3.2,2,5.5,2,5.5
					S1768.3,1786.5,1758.8,1787.7z"/>
				<path class="st31" d="M1761.4,1753.8c-2.6,1.9-8.2,5.5-11.9,6c-5,0.7-14.3-12.1-14.3-12.1l0.1,0c0.4,0,2.4,0.6,11.2,8.1
					c4.5,3.8,12.3-5.4,12.3-5.4S1760.3,1751.6,1761.4,1753.8z"/>
				<path class="st31" d="M1758.8,1787.7h-11c-3.7-0.6-6.4-1.7-10.2-2.1c-5.8-0.8-8.4,1.6-8.9,2.1c-0.1,0.1-0.1,0.1-0.1,0.1h-46.9
					c-1.2-1.7,0-5.6,1.1-8.5c1.4-1.3,1.8,5.5,2.6,6.6c0.8,1.1,38.2,0.4,40.4-1.2c2.2-1.6,8.6-4.3,17.7-2.2
					c7.9,1.9,19.5-2.9,22.3-4.2c1.1,3.2,2,5.5,2,5.5S1768.3,1786.5,1758.8,1787.7z"/>
			</g>
			<g>
				<path class="st23" d="M1817.7,1787.7h-11c-3.7-0.6-6.4-1.7-10.2-2.1c-5.8-0.8-8.4,1.6-8.9,2.1c-0.1,0.1-0.1,0.1-0.1,0.1h-46.9
					c-1.2-1.7,0-5.6,1.1-8.5c0.7-2,2.4-3.4,4.4-4c5-1.4,14.8-2.7,23.7-10.8c5-4.6,24.4-16.8,24.4-16.8l0.1,0c0.4,0,2.4,0.6,11.2,8.1
					c4.5,3.8,12.3-5.4,12.3-5.4s1.5,1.2,2.5,3.4c0.9,1.8,1.5,4.2,1,7.2c-0.7,4.2,1.6,12.1,3.4,17.4c1.1,3.2,2,5.5,2,5.5
					S1827.1,1786.5,1817.7,1787.7z"/>
				<path class="st31" d="M1820.2,1753.8c-2.6,1.9-8.2,5.5-11.9,6c-5,0.7-14.3-12.1-14.3-12.1l0.1,0c0.4,0,2.4,0.6,11.2,8.1
					c4.5,3.8,12.3-5.4,12.3-5.4S1819.2,1751.6,1820.2,1753.8z"/>
				<path class="st31" d="M1817.7,1787.7h-11c-3.7-0.6-6.4-1.7-10.2-2.1c-5.8-0.8-8.4,1.6-8.9,2.1c-0.1,0.1-0.1,0.1-0.1,0.1h-46.9
					c-1.2-1.7,0-5.6,1.1-8.5c1.4-1.3,1.8,5.5,2.6,6.6c0.8,1.1,38.2,0.4,40.4-1.2c2.2-1.6,8.6-4.3,17.7-2.2
					c7.9,1.9,19.5-2.9,22.3-4.2c1.1,3.2,2,5.5,2,5.5S1827.1,1786.5,1817.7,1787.7z"/>
			</g>
			<path class="st32" d="M1864.7,1110c-19.6-34.4-20.5-48.2-39.7-60.1c-21.4-9.8-37.5-10.9-37.5-10.9s-7.5,33.1-12.2,37.4
				c-4.7,4.3-73.1,11.4-74.7,3.5c-1.5-7.5,17.8-36.7,19.2-39.3c0.1-0.1-3.1,0.2-3.1,0.2c-7.8,1-13.3,1.8-17.3,2.5
				c-5.3,0.9-7.9,1.6-9.6,2.5c-4.7,0.8-27.5,7.8-51.5,72.9c0,0,19.5,24.5,34.6,28.8c0.4,0.1,0.8,0.2,1.2,0.3
				c-2.6,43.7-18.7,116.5-12.9,158.6c5.6,40.5,90.7,30.1,107.6,26.4c11.6-2.6,20.5-14.8,26.9-36.6c2.1,15.2,6.9,33.1,17.5,34.2
				c17.4,1.8,24.6-1.2,26.7-7.8c0.6-1.9,0.8-4.6,0.6-7.9c-0.8-15.9-11.8-70.9-22.3-117c-4.5-19.6-10.7-34.2-13-49.1
				C1826.2,1148.8,1854.6,1132.3,1864.7,1110z"/>
			<path class="st26" d="M1559,1105.5c0.5-1.9,3-39,4-35.5c1.1,3.5,3.6,23,3.6,23L1559,1105.5z"/>
			<polygon class="st32" points="1569.8,1051.9 1571.2,1055.7 1593.7,1114.1 1582.8,1118.8 1553,1063.7 1551.1,1060.1 			"/>
			<polygon class="st33" points="1569.8,1051.9 1571.2,1055.7 1553,1063.7 1551.1,1060.1 			"/>
			
				<rect x="1581.7" y="1110.9" transform="matrix(0.9151 -0.4031 0.4031 0.9151 -315.1791 734.8857)" class="st5" width="12.5" height="10.3"/>
			<path class="st26" d="M1566.5,1091c0,0,10.1-15.5,12.6-14.7c3.5,1.2-9.2,21-9.2,21s9.4-14.7,10.9-13.6c3.3,2.5-2,11.8-7.3,18.9
				c0,0,9.4-8.7,9.8-7.1c1.1,5.5-10.4,18.7-10.4,18.7l-6.4-14.6V1091z"/>
			<path class="st5" d="M1726,987.9c0,0-0.9,3.8-10.5,3.3c0,0-8-0.5-7.8-4.7C1707.7,986.4,1715.5,983.4,1726,987.9z"/>
		</g>
		<g>
			<g>
				<path class="st5" d="M2023.5,1430.8h-228c-2.2,0-3.9-1.8-3.9-3.9l0,0c0-2.2,1.8-3.9,3.9-3.9h228c2.2,0,3.9,1.8,3.9,3.9l0,0
					C2027.4,1429,2025.7,1430.8,2023.5,1430.8z"/>
				<rect x="1813.5" y="1474" class="st5" width="192.9" height="6.6"/>
				<rect x="1822.5" y="1518.7" class="st5" width="175.3" height="8.8"/>
				<g>
					
						<rect x="1808.7" y="1423.6" transform="matrix(0.9657 -0.2596 0.2596 0.9657 -320.9991 520.9324)" class="st5" width="6.9" height="104.8"/>
				</g>
				<g>
					<rect x="1906.5" y="1430.8" class="st5" width="6.9" height="92.3"/>
				</g>
				<g>
					
						<rect x="1854.8" y="1430.4" transform="matrix(0.9918 -0.1281 0.1281 0.9918 -173.8945 250.1479)" class="st5" width="6.9" height="93.8"/>
				</g>
				<g>
					
						<rect x="1955.7" y="1472.6" transform="matrix(0.2595 -0.9657 0.9657 0.2595 61.512 3032.2429)" class="st5" width="104.8" height="6.9"/>
				</g>
				<g>
					
						<rect x="1915.1" y="1473.8" transform="matrix(0.1282 -0.9917 0.9917 0.1282 245.3878 3233.6814)" class="st5" width="93.8" height="6.9"/>
				</g>
			</g>
			<path class="st16" d="M1793.8,1427.6L1793.8,1427.6c-0.8-1.2-0.4-2.8,0.8-3.6l114.8-74.8c1.2-0.8,2.8-0.4,3.6,0.8l0,0
				c0.8,1.2,0.4,2.8-0.8,3.6l-114.8,74.8C1796.2,1429.1,1794.5,1428.8,1793.8,1427.6z"/>
			<path class="st16" d="M2023.3,1427.6L2023.3,1427.6c0.8-1.2,0.4-2.8-0.8-3.6l-114.8-74.8c-1.2-0.8-2.8-0.4-3.6,0.8l0,0
				c-0.8,1.2-0.4,2.8,0.8,3.6l114.8,74.8C2020.9,1429.1,2022.6,1428.8,2023.3,1427.6z"/>
		</g>
		<path class="st26" d="M1882.7,1337.8c0,0,3.2,14.9,7,19.2c3.9,4.4,9.2,11.6,11.4,9.7c2.2-1.9-2.4-18.1-2.4-18.1L1882.7,1337.8z"/>
	</g>
	<path class="st34" d="M3103.9,1795.1H70.5c-1.9,0-3.4-1.6-3.4-3.4v-1.2c0-1.9,1.6-3.4,3.4-3.4h3033.4c1.9,0,3.4,1.6,3.4,3.4v1.2
		C3107.3,1793.5,3105.8,1795.1,3103.9,1795.1z"/>
	<g>
		<path class="st26" d="M2504.1,1057.6c0,0-8.8-28.5-13.9-31.6c-5-3.1-25.9-13.4-27.2-10.6c-1.2,2.8,11.3,16.3,14.1,20.8
			c2.8,4.5,4.2,9,2.2,7c-2-2-12.5-8.5-13.7-7c-1.1,1.5,5.3,7,8.4,11.5c3.1,4.5,6.4,12,17.3,13.7
			C2502.2,1063.1,2504.1,1057.6,2504.1,1057.6z"/>
		<g>
			<polygon class="st5" points="2484.9,998.2 2484.2,1002.2 2473.4,1063.9 2461.6,1062.4 2464.5,999.7 2464.7,995.7 			"/>
			<polygon class="st9" points="2484.9,998.2 2484.2,1002.2 2464.5,999.7 2464.7,995.7 			"/>
			
				<rect x="2461.2" y="1057.5" transform="matrix(0.992 0.1264 -0.1264 0.992 154.1157 -303.3701)" class="st8" width="12.5" height="10.3"/>
			
				<rect x="2468.7" y="1040.2" transform="matrix(0.9919 0.1267 -0.1267 0.9919 152.6234 -304.4869)" class="st10" width="0.9" height="13.9"/>
		</g>
		<path class="st16" d="M2760.3,1058.4c0,0-24.6,102.7-164.3,117.9c-38.1,4.1-108.6-105.8-108.6-105.8s-1.7-23.6,16.7-21
			c0,0,77.9,69.6,88.2,75.4c9.1,5.2,90.3-53.1,117.5-64.7S2760.3,1058.4,2760.3,1058.4z"/>
		<path class="st23" d="M2900.9,1718.9c0,0,14.6,13.3,11.8,22.8c-2.9,9.5-16,15.8-17.8,27.4c-1.8,11.6-8.9,17.9-15.3,17.9
			s-30.6,0-30.6,0s-4.7-8.2,6.7-10.6c11.4-2.5,15.7-16.1,15-28.7c-0.7-12.6,1.1-29.5,1.1-29.5l24.2-5.6L2900.9,1718.9z"/>
		<path class="st23" d="M2721.6,1753.4c0,0,2.6,30.4-3.8,33.5l-82.1-0.2c0,0,0-9.5,13.2-11.6c13.2-2.1,36.4-9.8,40.3-27
			C2693.1,1731,2721.6,1753.4,2721.6,1753.4z"/>
		<path class="st20" d="M2652.3,1324.7c0,0,4.3,53.2,9.4,117.2c6.9,86.9,15.2,193.6,16.1,213.8c1.4,35.1,7.1,91.3,7.1,91.3
			s13.5,13.3,40.6,7.7c0,0,24.1-80.2,31-165c0.1-1.4,0.2-2.8,0.3-4.2c6.4-86.3,16.4-268.2,16.4-268.2L2652.3,1324.7z"/>
		<path class="st23" d="M2652.3,1324.7c0,0,4.3,53.2,9.4,117.2l94.9,147.8c0.1-1.4,0.2-2.8,0.3-4.2c6.4-86.3,16.4-268.2,16.4-268.2
			L2652.3,1324.7z"/>
		<path class="st20" d="M2672.1,1331c0,0,78.1,192.7,129.4,283.2c51.3,90.6,67.4,115.8,67.4,115.8s29.4-11.6,32.1-19.5
			c0,0-19.6-174.8-54-217.4c-19.4-24.1-42.2-96.3-43.3-121.6s-7-75.3-7-75.3L2672.1,1331z"/>
		<path class="st26" d="M2774.8,1034c0,0-52.8,25.5-83.3,16c0,0,7.5-9.5,20.6-16.5c-1.1-6.1-1.9-11.4-2.3-15.9
			c-1.3-10.4-1.3-16.3-1.3-16.3l20.4-16l19.3-15.3C2746.7,1013.2,2774.8,1034,2774.8,1034z"/>
		<path class="st15" d="M2802.6,1306.1c0.1,3.2-6.8,6.9-9.8,8.3c-22.6,9.9-43.7,16.8-67.6,19.1c-28.2,2.9-61.6-3.5-73.1-3.2
			c-1.2,0-2.2-0.5-3.2-1.3c-0.8-0.6-1.4-34.6-0.8-77.4c0-1.7,0-3.5,0.1-5.2v-0.6c0.2-16.7,0.8-34.3,1.6-51.8
			c1.6-38.5,4.7-75.6,9.8-96.2c6.2-24.2,20.3-40.2,33-51.9l10.5-9.2c10.5,2.1,21.7,1.5,32.8-3.9c12.2-5.9,25.3-12.2,27.4-10.6
			c15.9,11.6,26.7,37.8,32.4,71.3c0,0.2,0.1,0.3,0.1,0.5c3.2,19.1,4.8,40.5,4.7,62.9c0,8.3-0.2,16.8-0.7,25.3
			c-2.3,38.1-0.8,72.1,0.8,95.6c0.3,4.6,0.6,8.9,0.9,12.7C2802.1,1297.2,2802.5,1302.4,2802.6,1306.1z"/>
		<path class="st16" d="M2800.8,1277.9c-87.6-101.1-33.2-174.6-33.2-174.6l28.5-9.2c3.2,19.1,4.8,40.5,4.7,62.9
			c0,8.3-0.2,16.8-0.7,25.3C2797.7,1220.4,2799.2,1254.3,2800.8,1277.9z"/>
		<path class="st35" d="M2748.5,986.5c0,0-13.4,24.3-38.8,31.1c-1.3-10.4-1.3-16.3-1.3-16.3l20.4-16L2748.5,986.5z"/>
		<path class="st26" d="M2699.2,1000.7c0,0,50.4,8.2,55.1-22.7c4.7-31,14.4-50.8-17.6-57.3c-32-6.6-40,4.3-44.2,14.3
			C2688.4,944.9,2686.2,997.8,2699.2,1000.7z"/>
		<path class="st36" d="M2772.6,916.9c0.5-0.5,1.5-0.9,3.9-1.1c0,0-1.9-1.2-4.4-1.2c-0.5-3.3-2.2-9-7.8-10.4c0,0,3,1.6,3.4,5.1
			c-6.5-6.7-20.5-11.5-59.1-8.5c-50.9,4-34.1,36.6-27.5,40.5c6.6,3.9,23.2-6.8,35.4-5.8c12.3,1,14.6,18.7,18.8,21.1
			c4.2,2.4,2.5-1.9,8.2-4.4c5.6-2.5,6.2,6.8,4.5,12.9c-1.6,6.1,6.1,14.1,6.1,14.1s0,0,7.8-8.4c7.8-8.4,15.2-44.1,11.6-51.7
			C2773.3,918.3,2772.9,917.6,2772.6,916.9z"/>
		<path class="st26" d="M2476.7,1051.9c0,0-8.7-13.9-7.7-16.7c1-2.7,11.7,9,14.5,8.3C2486.3,1042.8,2476.7,1051.9,2476.7,1051.9z"/>
		<g>
			<g>
				<path class="st5" d="M2934.7,1427h-228c-2.2,0-3.9-1.8-3.9-3.9l0,0c0-2.2,1.8-3.9,3.9-3.9h228c2.2,0,3.9,1.8,3.9,3.9l0,0
					C2938.6,1425.3,2936.9,1427,2934.7,1427z"/>
				<rect x="2724.7" y="1470.2" class="st5" width="192.9" height="6.6"/>
				<rect x="2733.7" y="1514.9" class="st5" width="175.3" height="8.8"/>
				<g>
					
						<rect x="2719.9" y="1419.9" transform="matrix(0.9657 -0.2596 0.2596 0.9657 -288.8028 757.3024)" class="st5" width="6.9" height="104.8"/>
				</g>
				<g>
					<rect x="2817.7" y="1427" class="st5" width="6.9" height="92.3"/>
				</g>
				<g>
					
						<rect x="2765.9" y="1426.6" transform="matrix(0.9918 -0.1281 0.1281 0.9918 -165.9112 366.8101)" class="st5" width="6.9" height="93.8"/>
				</g>
				<g>
					
						<rect x="2866.8" y="1468.8" transform="matrix(0.2595 -0.9657 0.9657 0.2595 739.8647 3909.4607)" class="st5" width="104.8" height="6.9"/>
				</g>
				<g>
					
						<rect x="2826.3" y="1470.1" transform="matrix(0.1282 -0.9917 0.9917 0.1282 1043.4257 4134.0703)" class="st5" width="93.8" height="6.9"/>
				</g>
			</g>
			<path class="st16" d="M2704.9,1423.8L2704.9,1423.8c-0.8-1.2-0.4-2.8,0.8-3.6l114.8-74.8c1.2-0.8,2.8-0.4,3.6,0.8l0,0
				c0.8,1.2,0.4,2.8-0.8,3.6l-114.8,74.8C2707.3,1425.4,2705.7,1425,2704.9,1423.8z"/>
			<path class="st16" d="M2934.5,1423.8L2934.5,1423.8c0.8-1.2,0.4-2.8-0.8-3.6l-114.8-74.8c-1.2-0.8-2.8-0.4-3.6,0.8l0,0
				c-0.8,1.2-0.4,2.8,0.8,3.6l114.8,74.8C2932.1,1425.4,2933.7,1425,2934.5,1423.8z"/>
		</g>
		<path class="st26" d="M2841,1322.6c0,0-3.8,25.2-5.6,30.6c-2.8,8.5-16.9,13-31.2,9.1c0,0,13.4-7.8,12.8-10.7
			c-0.8-4.6-7.4,2.1-9.7,2.4c0,0,1.3-5.1,1.3-9.4c-0.1-4.2,11.3-14.7,15.3-23.7C2827.9,1311.9,2841,1322.6,2841,1322.6z"/>
		<path class="st15" d="M2763.5,1022.1c0,0,31.9,15.1,47.2,38.3c23.7,36,51.2,167.2,51.7,179.3s-20.1,97.9-20.1,97.9
			s-20.9-1.4-26.2-11.9c0,0,4.2-88.1,1.5-93.8c-2.6-5.7-87-118.2-77.5-142.2C2749.6,1065.7,2763.5,1022.1,2763.5,1022.1z"/>
	</g>
</g>
</svg>
