<?xml version="1.0" encoding="utf-8"?>
<!-- Generator: Adobe Illustrator 22.0.0, SVG Export Plug-In . SVG Version: 6.00 Build 0)  -->
<svg version="1.1" xmlns="http://www.w3.org/2000/svg" xmlns:xlink="http://www.w3.org/1999/xlink" x="0px" y="0px"
	 viewBox="0 0 500 500" style="enable-background:new 0 0 500 500;" xml:space="preserve">
<style type="text/css">
	.st0{fill:#EBEBEB;}
	.st1{fill:#F0F0F0;}
	.st2{fill:#F5F5F5;}
	.st3{fill:#FAFAFA;}
	.st4{display:none;}
	.st5{display:inline;}
	.st6{fill:#407BFF;}
	.st7{opacity:0.9;}
	.st8{fill:#FFFFFF;}
	.st9{opacity:0.2;fill:#FFFFFF;}
	.st10{opacity:0.4;fill:#FFFFFF;}
	.st11{opacity:0.7;}
	.st12{opacity:0.2;}
	.st13{fill:#CB7A63;}
	.st14{opacity:0.3;fill:#FFFFFF;}
	.st15{fill:#263238;}
	.st16{opacity:0.3;}
	.st17{fill:#B74D3C;}
	.st18{opacity:0.1;fill:#FFFFFF;}
	.st19{opacity:0.1;}
	.st20{opacity:0.4;}
	.st21{opacity:0.3;enable-background:new    ;}
	.st22{fill:#CE7A63;}
	.st23{opacity:0.2;enable-background:new    ;}
	.st24{opacity:0.6;fill:#FFFFFF;}
	.st25{opacity:0.6;}
</style>
<g id="Background_Complete">
	<rect y="382.4" class="st0" width="500" height="0.3"/>
	<g>
		<path class="st0" d="M238.4,337.8H45.3c-3.1,0-5.7-2.6-5.7-5.7V60.7c0-3.1,2.6-5.7,5.7-5.7h193.1c3.1,0,5.7,2.6,5.7,5.7v271.4
			C244.1,335.2,241.5,337.8,238.4,337.8z M45.3,55.2c-3,0-5.5,2.4-5.5,5.5v271.4c0,3,2.4,5.5,5.5,5.5h193.1c3,0,5.5-2.4,5.5-5.5
			V60.7c0-3-2.4-5.5-5.5-5.5H45.3z"/>
		<g>
			<path class="st0" d="M454.7,337.8H261.6c-3.1,0-5.7-2.6-5.7-5.7V60.7c0-3.1,2.6-5.7,5.7-5.7h193.1c3.1,0,5.7,2.6,5.7,5.7v271.4
				C460.4,335.2,457.8,337.8,454.7,337.8z M261.6,55.2c-3,0-5.5,2.4-5.5,5.5v271.4c0,3,2.4,5.5,5.5,5.5h193.1c3,0,5.5-2.4,5.5-5.5
				V60.7c0-3-2.4-5.5-5.5-5.5H261.6z"/>
		</g>
	</g>
	<rect y="382.4" class="st0" width="500" height="0.3"/>
	<rect x="416.8" y="398.5" class="st0" width="33.1" height="0.3"/>
	<rect x="322.5" y="401.2" class="st0" width="8.7" height="0.3"/>
	<rect x="396.6" y="389.2" class="st0" width="19.2" height="0.3"/>
	<rect x="52.5" y="390.9" class="st0" width="43.2" height="0.3"/>
	<rect x="131.5" y="395.1" class="st0" width="93.7" height="0.3"/>
	<g>
		<path class="st1" d="M154.4,158.7c12.3,0,46.8,5,46.8-13.5c0-15.7-16.8-14.6-16.8-14.6s0.5-13.6-14.5-15.4
			C154.4,113.3,152,128,152,128s-26.7-9.4-22.7,14.2c0,0-14.8-2.6-14.8,8C114.6,162,142.5,158.6,154.4,158.7z"/>
		<g>
			<path class="st2" d="M138.9,298.7c25,0.1,94.9,11.5,94.9-30.9c0-36-34.2-33.4-34.2-33.4s1-31.2-29.5-35.4
				c-31.2-4.3-36,29.5-36,29.5s-54.2-21.5-46,32.4c0,0-30.1-6-30.1,18.3C58.1,306.4,114.7,298.6,138.9,298.7z"/>
			<path class="st1" d="M232.1,302.5c-13.8,0-52.5,6.4-52.5-17.1c0-19.9,18.9-18.5,18.9-18.5s-0.5-17.3,16.3-19.6
				c17.3-2.4,19.9,16.3,19.9,16.3s30-11.9,25.4,17.9c0,0,16.6-3.3,16.6,10.1C276.8,306.7,245.5,302.4,232.1,302.5z"/>
		</g>
		<path class="st1" d="M309.1,204.2c13.8,0,52.4,5.3,52.4-14.2c0-16.6-18.9-15.4-18.9-15.4s0.5-14.4-16.3-16.3
			c-17.2-2-19.8,13.6-19.8,13.6s-29.9-9.9-25.4,14.9c0,0-16.6-2.8-16.6,8.4C264.6,207.7,295.8,204.1,309.1,204.2z"/>
		<g>
			<g>
				<g>
					<path class="st3" d="M268.1,382.3l20.1-130.5l59.8-75.5l20.4-86c0,0,49.5,47.8,50.8,49c1.4,1.3,12.3,130.2,13.8,132.2
						c1.5,2,15.7,24.5,15.7,24.5l6.6,85.9L268.1,382.3z"/>
					<polygon class="st0" points="268.1,382.3 296.8,269.6 337.4,230.8 345,279.9 355.2,224.1 366.9,243.1 364.3,177.5 366.4,156.6 
						373.2,170.5 368.5,90.2 402.9,91 410.1,128.9 419.3,139.3 433.1,271.5 448.8,296 455.4,381.9 					"/>
					<path class="st2" d="M369.4,90.7l20.5,66.3l12.2,9.7c0,0,6.4,26.9,6.4,25.2s-0.7-31.9-0.7-31.9l3.2-24.6l-8-43.9L369.4,90.7z"
						/>
				</g>
				<polygon class="st2" points="433.1,271.5 437.8,293.8 448.8,296 				"/>
			</g>
		</g>
	</g>
	<path class="st2" d="M356.1,337.4c21.9,0.1,83.2,10.1,83.2-27.1c0-31.6-30-29.3-30-29.3s0.9-27.4-25.8-31
		c-27.4-3.7-31.5,25.8-31.5,25.8s-47.5-18.8-40.3,28.4c0,0-26.4-5.3-26.4,16C285.3,344.2,334.9,337.4,356.1,337.4z"/>
</g>
<g id="Background_Simple" class="st4">
	<g class="st5">
		<g>
			<path class="st6" d="M94.3,177.9c7.8-20.8,25.8-37.4,47.2-43.3c21.4-6,45.4-1.1,62.8,12.6c14,11,23.2,26.8,31.6,42.5
				c8.4,15.7-0.5,4.6,12,17.3c12.5,12.7,30.4,21.4,47.9,18.2c21.3-4,35.5-23.7,46.9-42.2c11.4-18.4,24.2-38.7,45-44.8
				c7.8-2.3,17.9-1.4,21.7,5.8c3.2,5.9,0.5,13.1-2.1,19.3c-18,41.7-36.1,83.5-54.1,125.2c-11,25.5-22.7,51.9-44,69.7
				c-25.6,21.4-61.7,26.8-94.8,21.7c-18.3-2.8-36.5-8.8-50.8-20.6c-19.2-15.9-28.7-40.2-39.7-62.5c-12-24.4-4.5-22.9-19.7-45.4
				C79.9,215,94.3,177.9,94.3,177.9z"/>
			<g class="st7">
				<path class="st8" d="M94.3,177.9c7.8-20.8,25.8-37.4,47.2-43.3c21.4-6,45.4-1.1,62.8,12.6c14,11,23.2,26.8,31.6,42.5
					c8.4,15.7-0.5,4.6,12,17.3c12.5,12.7,30.4,21.4,47.9,18.2c21.3-4,35.5-23.7,46.9-42.2c11.4-18.4,24.2-38.7,45-44.8
					c7.8-2.3,17.9-1.4,21.7,5.8c3.2,5.9,0.5,13.1-2.1,19.3c-18,41.7-36.1,83.5-54.1,125.2c-11,25.5-22.7,51.9-44,69.7
					c-25.6,21.4-61.7,26.8-94.8,21.7c-18.3-2.8-36.5-8.8-50.8-20.6c-19.2-15.9-28.7-40.2-39.7-62.5c-12-24.4-4.5-22.9-19.7-45.4
					C79.9,215,94.3,177.9,94.3,177.9z"/>
			</g>
		</g>
	</g>
</g>
<g id="Shadow">
	<rect x="104.6" y="390.9" class="st0" width="6.3" height="0.3"/>
	<ellipse id="_x3C_Path_x3E__359_" class="st2" cx="252.1" cy="415.7" rx="193.9" ry="11.3"/>
</g>
<g id="Coin">
	<g>
		<g>
			<g>
				<path class="st6" d="M403.4,95.1c0,9.7-7.8,17.5-17.5,17.5c-0.4,0-0.8,0-1.2,0c-9.1-0.6-16.3-8.2-16.3-17.4s7.2-16.8,16.3-17.5
					c0.4,0,0.8,0,1.2,0C395.5,77.6,403.4,85.4,403.4,95.1z"/>
			</g>
			<path class="st9" d="M401,95.1c0,9.3-7.2,16.8-16.3,17.4c-9.1-0.6-16.3-8.2-16.3-17.4s7.2-16.8,16.3-17.5
				C393.8,78.2,401,85.8,401,95.1z"/>
			
				<ellipse transform="matrix(0.3827 -0.9239 0.9239 0.3827 149.612 414.0689)" class="st10" cx="384.7" cy="95.1" rx="13.1" ry="13.1"/>
		</g>
		<g class="st11">
			<path class="st8" d="M390.7,97.9c0.5,2.9-1.5,4.8-5.1,5.1l-0.1,2.4h-2.2l0.1-2.4c-2.1-0.2-4-0.8-5.3-1.7l1-2.7
				c1.3,0.8,2.9,1.4,4.4,1.5l0.1-3.7c-2.1-0.6-4.5-1.4-4.9-4c-0.5-2.9,1.5-4.8,5.2-5.1l0.1-2.4h2.2l-0.1,2.4
				c1.6,0.2,3.1,0.6,4.2,1.2l-0.9,2.7c-1-0.6-2.2-1-3.4-1.1l-0.1,3.8C387.9,94.6,390.2,95.4,390.7,97.9z M383.7,93.4l0.1-3.1
				c-1.2,0.2-1.8,0.9-1.7,1.7C382.2,92.7,382.8,93.1,383.7,93.4z M387.2,98.4c-0.1-0.6-0.7-1-1.5-1.3l-0.1,3
				C386.8,99.9,387.4,99.3,387.2,98.4z"/>
		</g>
	</g>
</g>
<g id="Metric">
	<g>
		<g>
			<rect x="239.7" y="255.7" class="st6" width="59.2" height="160"/>
			<rect x="239.7" y="255.6" class="st12" width="16.7" height="160.2"/>
		</g>
		<g>
			<rect x="180.4" y="319.7" class="st6" width="59.2" height="96"/>
			<rect x="180.4" y="319.7" class="st12" width="17.8" height="95.9"/>
		</g>
		<g>
			<rect x="121.2" y="340.1" class="st6" width="59.2" height="75.6"/>
			<rect x="121.2" y="340.1" class="st12" width="17.6" height="75.5"/>
		</g>
		<g>
			<rect x="62" y="360.5" class="st6" width="59.2" height="55.2"/>
			<rect x="62" y="360.4" class="st12" width="16.7" height="55.2"/>
		</g>
	</g>
</g>
<g id="Character">
	<g>
		<g>
			<g>
				<path class="st6" d="M222.9,132.1c-2.8,3.4-5.7,6.7-8.6,10l-2.2,2.5l-2,2.2c-0.8,1-1.3,2.1-1.5,3.5l-0.7,6.5
					c-0.2,2.2-0.4,4.4-0.7,6.6c-0.5,4.4-1,8.8-1.6,13.1c-0.2,1.5-1.6,2.6-3.1,2.4c-1.4-0.2-2.3-1.3-2.4-2.6
					c-0.3-4.4-0.4-8.8-0.6-13.2c-0.1-2.2-0.1-4.4-0.2-6.6l-0.1-6.7c0-3.1,1.1-6.2,2.8-8.8l2.2-2.9l2-2.6c2.7-3.5,5.3-7,8-10.4
					c1.9-2.4,5.5-2.8,7.9-0.9C224.5,126.1,224.9,129.6,222.9,132.1C223,132,222.9,132.1,222.9,132.1z"/>
				<g>
					<path class="st13" d="M199.4,176.7l-3.7,6.2l8.4,0.9l1.5-6.3c0.2-0.7-0.3-1.5-1.1-1.6C203.2,175.6,201.1,175.5,199.4,176.7z"/>
					<path class="st13" d="M195.8,182.9l0.4,2.2c0.2,1.1,1.1,1.9,2.2,1.9l2.7,0c0.8,0,1.6-0.5,2-1.2l1.1-2L195.8,182.9z"/>
				</g>
				<g>
					<g>
						<polygon class="st6" points="198.9,172 207,172.3 206.4,177.2 199.6,176.6 						"/>
					</g>
					<polygon class="st14" points="198.9,172 207,172.3 206.4,177.2 199.6,176.6 					"/>
				</g>
			</g>
			<g>
				<g>
					<path class="st15" d="M207,222.8l-1.3,2l-1-2.1l2.4-31.4c0.4-5-1.3-9.1-7.5-9.2c-5.8-0.1-9.3,3.8-9.7,8.8l-2.5,31.3l-1.4,2
						l-0.9-2.1l2.6-31.3c0.5-5.8,3-10.4,12.2-10.2c9.2,0.2,10.2,5,9.7,10.8L207,222.8z"/>
				</g>
				<g>
					<g>
						<path class="st15" d="M181.3,201.7l-1.6,0c-3.3,0-6.2,2.5-6.6,5.8l-3,22.6l10.4,0.4L181.3,201.7z"/>
						<path class="st9" d="M181.3,201.7l-1.6,0c-3.3,0-6.2,2.5-6.6,5.8l-3,22.6l10.4,0.4L181.3,201.7z"/>
					</g>
					<g>
						<g>
							<path class="st15" d="M210.7,223.1l-2.4-0.1l0.2-31.4c0-5-1.9-9.1-8.2-9.2c-5.8-0.1-9.1,3.8-9.1,8.8l-0.4,31.3l-2.3-0.1
								l0.4-31.3c0.1-5.8,2.3-10.4,11.5-10.2c9.2,0.2,10.5,5,10.5,10.8L210.7,223.1z"/>
						</g>
						<path class="st15" d="M221.7,231.6l-46.3-1.4l0.4-23.3c0-3,2.5-5.3,5.4-5.3l33.7,0.9c3.8,0.1,6.9,3.3,6.9,7.2L221.7,231.6z"/>
						<path class="st10" d="M216.6,231.5l-36.1-1.1c-2.8-0.1-5.1-2.5-5-5.4l0.4-18.1c0-3,2.5-5.3,5.4-5.3l33.7,0.9
							c3.8,0.1,6.9,3.3,6.9,7.2l-0.1,16.7C221.8,229.3,219.4,231.6,216.6,231.5z"/>
						<g class="st16">
							<path class="st8" d="M210.7,223.1l-1.2,2l-1.2-2.1l0.2-31.4c0-5-1.9-9.1-8.2-9.2c-5.8-0.1-9.1,3.8-9.1,8.8l-0.4,31.3l-1.3,2
								l-1.1-2.1l0.4-31.3c0.1-5.8,2.3-10.4,11.5-10.2c9.2,0.2,10.5,5,10.5,10.8L210.7,223.1z"/>
						</g>
						<polygon class="st15" points="191.7,210.4 187.9,210.3 187.9,208.9 191.8,209 						"/>
						<polygon class="st15" points="191.6,219.9 187.8,219.7 187.8,218.3 191.7,218.4 						"/>
						<polygon class="st15" points="211.6,211 207.7,210.9 207.7,209.4 211.6,209.5 						"/>
						<polygon class="st15" points="211.5,220.4 207.6,220.3 207.6,218.8 211.5,218.9 						"/>
						<polygon class="st8" points="204.2,211.6 195.9,211.4 195.9,208.3 204.2,208.5 						"/>
					</g>
				</g>
			</g>
			<g>
				<g>
					<g>
						<path class="st15" d="M239.9,97c0.3-0.1,0.7,0.3,0.8,0.8c0.1,0.5-0.1,0.9-0.4,1c-0.3,0.1-0.7-0.3-0.8-0.8
							C239.4,97.5,239.6,97.1,239.9,97z"/>
						<path class="st15" d="M240,97.4c0.3-0.2,0.6-0.5,0.8-0.8c-0.3,0.3-0.7,0.4-1,0.4C239.9,97,240,97.2,240,97.4z"/>
						<path class="st17" d="M240.6,102.3c0.8,0,1.7-0.3,2.2-0.9c-1.2-1.1-2.3-2.3-3.2-3.6L240.6,102.3z"/>
						<path class="st15" d="M237.3,96.2c0.5-0.6,1.2-0.9,1.9-0.9l0,0c0,0,0.1,0,0.1,0c0.2,0,0.3-0.1,0.3-0.3c0-0.2-0.1-0.3-0.3-0.3
							c-0.9-0.1-1.8,0.3-2.4,1c0,0.1-0.1,0.1-0.1,0.2c0,0.2,0.1,0.3,0.3,0.3C237.1,96.3,237.2,96.2,237.3,96.2z"/>
						<path class="st13" d="M234.2,125.1c-8.3,0.1-9.6-4.4-9.6-4.4c2.5-2.4,2.6-6.9,2.1-10.8c0.6,0.9,1.4,1.7,2.5,2.4
							c2,1.3,6.3-0.8,6.3-0.8c0,0,0,0.7,0.1,1.8c0.1,2.6,0.7,7.1,3.1,7.8C238.6,121.1,243.4,125,234.2,125.1z"/>
						<path class="st13" d="M235.6,112.1c-0.1,0.4-0.2,0.8-0.2,1.2c0,0-0.1,0-0.1,0c-1.9,0.5-4.1,0.2-6.1-1.1
							c-1-0.7-1.8-1.5-2.5-2.4c-0.1-1-0.3-2-0.5-2.9l9.1,5L235.6,112.1z"/>
						<g>
							<path class="st13" d="M241.6,105.3c-0.1,3.1-1.7,5.7-4.1,7.1l0,0c0,0,0,0,0,0c-0.6,0.4-1.3,0.7-2,0.9c0,0-0.1,0-0.1,0
								c-1.9,0.5-4.1,0.2-6.1-1.1c-1-0.7-1.8-1.5-2.5-2.4c-1.6-2.2-2.3-5.2-3.5-9.4c-0.4-1.2-0.4-2.5-0.2-3.8
								c0.8-4.5,5.1-7.5,9.6-6.7C239,91,241.7,99.7,241.6,105.3z"/>
							<path class="st12" d="M237,112.5c-0.6,0.4-0.9,0.5-1.5,0.7c-0.1-1.1,0-1.8-0.1-1.8c0.1-0.9,0.1-1.9,0.1-1.9
								C235.6,109.6,236.6,112.5,237,112.5z"/>
						</g>
						<path class="st15" d="M239.4,94c-0.7,1.1-2.8,2-2.7,1.7c0.4-0.9,0.3-2.6-0.8-2.2c0.3,0.7,1.2,5.8,0.8,6.4
							c-0.2,0.3-0.4,4.4-2.2,8.1c-1.4,2.9-1.4,3.8-1.4,3.8l-5.7,1.1c-2.1-0.3-4.1-3-4.3-3.3c-0.7-1.3-3-3-4.2-3.8
							c-0.5-0.4-0.9-0.9-1.1-1.6c-0.4-1.1,0.4-5,0.6-6.9c0.2-2.7,1.6-5.1,5.5-6.7c2.4-1,4.4-3.1,6.8-4c2.4-0.8,5.3-0.8,7.4,0.7
							C239.1,88.2,241.1,91.3,239.4,94z"/>
						<path class="st13" d="M236.4,97.7c1.8,0.5,2.7,3.1,2.7,4.7c0.1,1.8-1.1,3-2.7,1.7c-1.2-0.9-2-2.2-2.4-3.7
							C233.6,98.7,234.7,97.2,236.4,97.7z"/>
						<g>
							<path class="st6" d="M238.5,103.7c0,0.4-0.3,0.8-0.8,0.8s-0.8-0.3-0.8-0.8c0-0.4,0.3-0.8,0.8-0.8S238.5,103.3,238.5,103.7z"
								/>
							<path class="st14" d="M238.5,103.7c0,0.4-0.3,0.8-0.8,0.8s-0.8-0.3-0.8-0.8c0-0.4,0.3-0.8,0.8-0.8S238.5,103.3,238.5,103.7z"
								/>
						</g>
					</g>
					<g id="_x3C_Group_x3E_">
						<g>
							<path class="st6" d="M222.2,123.7c0,0,1.3-4,3.2-5.2c1.9-1.3,10.5,0,11.9,0.6c1.3,0.5,2.7,3.6,2.7,3.6L222.2,123.7z"/>
							<path class="st14" d="M222.2,123.7c0,0,1.3-4,3.2-5.2c1.9-1.3,10.5,0,11.9,0.6c1.3,0.5,2.7,3.6,2.7,3.6L222.2,123.7z"/>
							<g>
								<g>
									<path class="st6" d="M241.8,122c-1.3-0.2-1.7-0.4-3.2-0.5c-4.6-0.2-9.2-0.2-13.8,0.1c-1.7,0.1-3.3,0.4-4.9,0.8
										c-3.3,0.8-5.5,3.8-5.3,7.2c0.7,9.4,3.4,14.9,3.9,21c0.8,12.3-1.1,20.9-1.5,23.8l6.3,1c11.2-0.3,18.7-2.7,24.9-5.3l0,0
										c0,0-1.6-14.8-0.1-20.2c4.3-14.6,1.5-16.9,0.7-21.1C248.1,125.2,245.3,122.5,241.8,122z"/>
									<g>
										<path class="st18" d="M248.2,149.8c-0.5,1.7-0.7,4.5-0.7,7.4c0,6,0.7,12.8,0.7,12.8c-6.2,2.6-13.7,5.1-24.9,5.3l-6.3-1
											c0.3-2.9,2.3-11.5,1.5-23.7c-0.4-6.2-3.2-11.7-3.9-21c-0.2-3.3,2-6.4,5.3-7.2c1.6-0.4,3.2-0.7,4.9-0.8
											c4.6-0.3,9.2-0.4,13.8-0.2c1.5,0.1,1.9,0.3,3.2,0.5c3.5,0.6,6.3,3.3,7,6.7c0.3,1.5,0.9,2.8,1.2,4.4c0.5,2,0.7,4.7-0.1,9.1
											C249.6,144.3,249,146.8,248.2,149.8z"/>
									</g>
								</g>
								<g>
									<path class="st6" d="M243.6,121.5c2.3,0.3,4.6,0.8,6.9,1.2c2.3,0.4,4.6,0.9,6.8,1.4l-0.8-0.1c1,0,1.9,0.1,2.5,0.2
										c0.3,0,0.5,0,0.4,0.1c0,0-0.1,0.1-0.3,0.2c-0.2,0.1-0.4,0.3-0.7,0.5c-0.5,0.5-0.7,1.2-0.7,1.4c0,0.2,0.1,0.2,0.1,0
										c0-0.4,0-1.1-0.2-1.8l0.1,0.3c-1.2-3.3-2.2-6.7-3.3-10.1c-1-3.4-1.9-6.8-2.6-10.3c-0.3-1.4,0.6-2.7,2-2.9
										c1-0.2,2,0.3,2.6,1.1c1.9,3,3.5,6.2,5.1,9.3c1.6,3.2,3,6.4,4.5,9.6l0.1,0.3c0.4,1,0.8,2.1,1,3.5c0.1,0.7,0.2,1.6,0,2.7
										c-0.2,1.1-0.8,2.7-1.9,3.8c-0.6,0.6-1.2,1-1.8,1.3c-0.6,0.3-1.1,0.5-1.6,0.6c-1,0.3-1.7,0.3-2.3,0.4
										c-1.2,0.1-2.2,0.1-3,0.2l-0.1,0l-0.7-0.1c-2.3-0.2-4.6-0.5-6.9-0.8c-2.3-0.3-4.6-0.6-6.9-1c-3-0.5-5.1-3.4-4.5-6.5
										C237.8,123.1,240.6,121.1,243.6,121.5z"/>
								</g>
								<g class="st19">
									<path class="st8" d="M243.6,121.5c2.3,0.3,4.6,0.8,6.9,1.2c2.3,0.4,4.6,0.9,6.8,1.4l-0.8-0.1c1,0,1.9,0.1,2.5,0.2
										c0.3,0,0.5,0,0.4,0.1c0,0-0.1,0.1-0.3,0.2c-0.2,0.1-0.4,0.3-0.7,0.5c-0.5,0.5-0.7,1.2-0.7,1.4c0,0.2,0.1,0.2,0.1,0
										c0-0.4,0-1.1-0.2-1.8l0.1,0.3c-1.2-3.3-2.2-6.7-3.3-10.1c-1-3.4-1.9-6.8-2.6-10.3c-0.3-1.4,0.6-2.7,2-2.9
										c1-0.2,2,0.3,2.6,1.1c1.9,3,3.5,6.2,5.1,9.3c1.6,3.2,3,6.4,4.5,9.6l0.1,0.3c0.4,1,0.8,2.1,1,3.5c0.1,0.7,0.2,1.6,0,2.7
										c-0.2,1.1-0.8,2.7-1.9,3.8c-0.6,0.6-1.2,1-1.8,1.3c-0.6,0.3-1.1,0.5-1.6,0.6c-1,0.3-1.7,0.3-2.3,0.4
										c-1.2,0.1-2.2,0.1-3,0.2l-0.1,0l-0.7-0.1c-2.3-0.2-4.6-0.5-6.9-0.8c-2.3-0.3-4.6-0.6-6.9-1c-3-0.5-5.1-3.4-4.5-6.5
										C237.8,123.1,240.6,121.1,243.6,121.5z"/>
								</g>
							</g>
						</g>
					</g>
					<g>
						<g>
							<g>
								<g>
									<polygon class="st6" points="284.9,100 314.9,99.1 314.5,89.7 284.5,91.6 									"/>
									<polygon class="st6" points="262.3,100.3 286.5,99.6 286.2,91.9 262,93.4 									"/>
									<polygon class="st15" points="283.3,99.8 284.9,99.9 284.5,91.7 283,92 									"/>
									<polygon class="st12" points="283.3,99.8 284.9,99.9 284.5,91.7 283,92 									"/>
									<polygon class="st15" points="284.9,100 286.5,99.9 286.1,91.5 284.5,91.6 									"/>
									<polygon class="st15" points="258.5,99.2 260.9,100.3 260.6,93.6 258.3,94.9 									"/>
									<g>
										<polygon class="st15" points="246.2,99.1 253.3,98.7 253.2,95.6 246.1,96 										"/>
										<polygon class="st12" points="246.2,99.1 253.3,98.7 253.2,95.6 246.1,96 										"/>
									</g>
									<polygon class="st15" points="252.4,99.4 260.3,99.1 260.1,94.7 252.2,95.1 									"/>
									<polygon class="st12" points="258.5,99.2 260.9,100.3 260.6,93.6 258.3,94.9 									"/>
									<polygon class="st15" points="261,100.4 262.3,100.3 262,93.4 260.6,93.5 									"/>
									<polygon class="st15" points="313.9,99.1 318.6,98.9 318.1,89.5 313.4,89.7 									"/>
									<g>
										<path class="st6" d="M316,99.8l6-0.2l0.1-0.4c1.3-3.6,1-7.5-0.7-10.8v0l-6,0.4l0.1,0.3C317,92.5,317.1,96.3,316,99.8
											L316,99.8z"/>
									</g>
									<g>
										<g class="st20">
											<path class="st8" d="M309.6,90.7l2.4-0.1l0,1l-2.5,0.1C309.5,91.4,309.6,91.1,309.6,90.7z"/>
											<path class="st8" d="M308.1,90.8c0,0.3,0,0.7,0,1l-21,1.2l-0.1-0.9L308.1,90.8z"/>
										</g>
										<g class="st20">
											<polygon class="st8" points="262.5,94 262.5,94.8 282.3,93.6 282.2,92.7 											"/>
										</g>
										<g class="st20">
											<polygon class="st8" points="316,89.1 316,90.1 320.7,89.8 320.7,88.7 											"/>
										</g>
									</g>
								</g>
								<g>
									<path class="st21" d="M321.4,98.2c0,0.4,0,0.7,0,1.1l-4.9,0.2l-0.1-1L321.4,98.2z"/>
									<path class="st21" d="M312.7,97.6c0,0.3,0,0.7,0,1L287,99.6l-0.1-0.9L312.7,97.6z"/>
									<path class="st21" d="M282,98.5c0,0.3,0,0.6,0,0.9l-19.1,0.7l0-0.8L282,98.5z"/>
								</g>
							</g>
							<g>
								<path class="st6" d="M244.6,96.1l0.1,3c0,0.5,0.5,0.9,1,0.9l2.5,0l-0.1-4.9l-2.5,0.1C245,95.2,244.6,95.6,244.6,96.1z"/>
							</g>
						</g>
						<path class="st22" d="M257.3,104.5l0.9-5.6c0-0.2,0-0.5,0-0.7l-0.3-3c0-0.4-0.3-0.8-0.7-0.9l-4.5-0.1
							c-0.6-0.2-1.2,0.1-1.4,0.6l-0.8,3.7c-0.1,0.3-0.1,0.6,0,0.8l1.3,5.1c0.1,0.4,0.5,0.8,1,0.8l2.9,0
							C256.5,105.5,257.1,105.1,257.3,104.5z"/>
						<g>
							<polygon class="st6" points="259.9,106.9 252.3,109.6 251,104.9 257.6,102.9 							"/>
							<polygon class="st14" points="259.9,106.9 252.3,109.6 251,104.9 257.6,102.9 							"/>
						</g>
					</g>
					<path class="st12" d="M250,142.3l-5.9-11.1l5.9,1.9C250.5,135.2,250.7,137.8,250,142.3z"/>
				</g>
				<g>
					<polygon class="st22" points="280.2,234.1 279,249.1 285.8,249.2 287.7,233.8 					"/>
					<g>
						<path class="st15" d="M286.9,247.2l-7.8,0.2c-0.3,0-0.5,0.2-0.6,0.5l-1.3,6.8c-0.1,0.6,0.2,1.2,0.8,1.3c0.1,0,0.1,0,0.2,0
							c2.8-0.1,5.3-0.3,8.8-0.4c4.1-0.1,3.1,0.5,7.9,0.4c2.9,0,3.4-3.6,2.2-3.7c-5.7-0.7-6.3-2.5-8.5-4.6
							C288.1,247.3,287.5,247.1,286.9,247.2z"/>
					</g>
					<g>
						<polygon class="st22" points="205.5,298.4 202.7,312.2 210.1,314.5 213.6,300.4 						"/>
						<path class="st15" d="M244.8,170.6c0,0-10.5,61.1-16.1,79c-4,12.8-14.9,54.7-14.9,54.7l-9.8-2.2c0,0-1.1-28.5,4.4-43.2
							c1.9-5,4.3-9.5,5-12.7c2.8-13.3-3-37.4-0.4-55.4c1.4-9.7,4.4-16.7,4.4-16.7L244.8,170.6z"/>
						<path class="st15" d="M228.7,249.6c-4,12.8-14.9,54.7-14.9,54.7l-9.8-2.2c0,0-1.1-28.5,4.4-43.2c1.9-5,4.3-9.5,5-12.7
							c2.8-13.3-3-37.4-0.4-55.4c1.4-9.7,4.4-16.7,4.4-16.7"/>
						<polygon class="st23" points="232,189.5 237.3,210.2 241.1,190.4 						"/>
						<path class="st15" d="M288.1,241.3l-9.6,0.3c0,0,0.7-12.6,0.7-30.9c0-2.8,0.4-5.6,1.1-8.1c1.4-5.6,3.6-9.8,3.6-9.8
							s-1,0.1-2.8,0.1c-5.4,0.3-39.2,2-39.8,2c-0.5-0.1-3.6,0.4-9.1-2.3c-10.2-5-10.3-18.9-10.3-18.9l26.3-3.6c0,0,0.4,0.1,6.8,0.2
							c19.2,0.3,42.8,1.1,46.9,7.7C307.7,187.1,288.1,241.3,288.1,241.3z"/>
						<g>
							<path class="st15" d="M210.5,310.9l-8.1,0.1c-0.3,0-0.6,0.2-0.6,0.5l-1,6.9c-0.1,0.6,0.3,1.2,0.9,1.3c0.1,0,0.2,0,0.2,0
								c2.9-0.1,5.5-0.3,9.1-0.3c4.3-0.1,3.2,0.5,8.3,0.5c3,0,3.3-3.6,2.1-3.8c-5.9-0.7-6.7-2.5-9.1-4.7
								C211.7,311.1,211.1,310.9,210.5,310.9z"/>
						</g>
					</g>
				</g>
			</g>
		</g>
		<path class="st23" d="M280.3,202.5c1.4-5.6,3.6-9.8,3.6-9.8s-1,0.1-2.8,0.1c-0.1,0-0.2,0-0.3,0l7-0.6L280.3,202.5z"/>
	</g>
</g>
<g id="Sun">
	<g>
		<g>
			<g>
				<circle class="st6" cx="96.5" cy="115.5" r="12.3"/>
				<circle class="st24" cx="96.5" cy="115.5" r="12.3"/>
			</g>
		</g>
		<g>
			<g>
				<g>
					<path class="st6" d="M96.6,98.5c-1,0-1.8-0.8-1.8-1.8v-8.1c0-1,0.8-1.8,1.8-1.8c1,0,1.8,0.8,1.8,1.8v8.1
						C98.4,97.7,97.6,98.5,96.6,98.5z"/>
				</g>
				<g>
					<path class="st6" d="M96.6,143.9c-1,0-1.8-0.8-1.8-1.8v-8.1c0-1,0.8-1.8,1.8-1.8c1,0,1.8,0.8,1.8,1.8v8.1
						C98.4,143.1,97.6,143.9,96.6,143.9z"/>
				</g>
			</g>
			<g>
				<g>
					<path class="st6" d="M83.4,104c-0.5,0-0.9-0.2-1.3-0.5l-3.5-3.5c-0.7-0.7-0.7-1.9,0-2.6c0.7-0.7,1.9-0.7,2.6,0l3.5,3.5
						c0.7,0.7,0.7,1.9,0,2.6C84.3,103.8,83.8,104,83.4,104z"/>
				</g>
				<g>
					<path class="st6" d="M113,133.7c-0.5,0-0.9-0.2-1.3-0.5l-3.2-3.2c-0.7-0.7-0.7-1.9,0-2.6c0.7-0.7,1.9-0.7,2.6,0l3.2,3.2
						c0.7,0.7,0.7,1.9,0,2.6C113.9,133.5,113.5,133.7,113,133.7z"/>
				</g>
			</g>
			<g>
				<g>
					<path class="st6" d="M77.9,117.2h-8.1c-1,0-1.8-0.8-1.8-1.8s0.8-1.8,1.8-1.8h8.1c1,0,1.8,0.8,1.8,1.8S78.9,117.2,77.9,117.2z"
						/>
				</g>
				<g>
					<path class="st6" d="M123.3,117.2h-8.1c-1,0-1.8-0.8-1.8-1.8s0.8-1.8,1.8-1.8h8.1c1,0,1.8,0.8,1.8,1.8S124.3,117.2,123.3,117.2
						z"/>
				</g>
			</g>
			<g>
				<g>
					<path class="st6" d="M80.3,133.5c-0.5,0-0.9-0.2-1.3-0.5c-0.7-0.7-0.7-1.9,0-2.6l3.1-3.1c0.7-0.7,1.9-0.7,2.6,0
						c0.7,0.7,0.7,1.9,0,2.6l-3.1,3.1C81.2,133.3,80.8,133.5,80.3,133.5z"/>
				</g>
				<g>
					<path class="st6" d="M109.8,104c-0.5,0-0.9-0.2-1.3-0.5c-0.7-0.7-0.7-1.9,0-2.6l3.3-3.3c0.7-0.7,1.9-0.7,2.6,0
						c0.7,0.7,0.7,1.9,0,2.6l-3.3,3.3C110.7,103.8,110.2,104,109.8,104z"/>
				</g>
			</g>
		</g>
		<g class="st25">
			<g>
				<g>
					<path class="st8" d="M96.6,98.5c-1,0-1.8-0.8-1.8-1.8v-8.1c0-1,0.8-1.8,1.8-1.8c1,0,1.8,0.8,1.8,1.8v8.1
						C98.4,97.7,97.6,98.5,96.6,98.5z"/>
				</g>
				<g>
					<path class="st8" d="M96.6,143.9c-1,0-1.8-0.8-1.8-1.8v-8.1c0-1,0.8-1.8,1.8-1.8c1,0,1.8,0.8,1.8,1.8v8.1
						C98.4,143.1,97.6,143.9,96.6,143.9z"/>
				</g>
			</g>
			<g>
				<g>
					<path class="st8" d="M83.4,104c-0.5,0-0.9-0.2-1.3-0.5l-3.5-3.5c-0.7-0.7-0.7-1.9,0-2.6c0.7-0.7,1.9-0.7,2.6,0l3.5,3.5
						c0.7,0.7,0.7,1.9,0,2.6C84.3,103.8,83.8,104,83.4,104z"/>
				</g>
				<g>
					<path class="st8" d="M113,133.7c-0.5,0-0.9-0.2-1.3-0.5l-3.2-3.2c-0.7-0.7-0.7-1.9,0-2.6c0.7-0.7,1.9-0.7,2.6,0l3.2,3.2
						c0.7,0.7,0.7,1.9,0,2.6C113.9,133.5,113.5,133.7,113,133.7z"/>
				</g>
			</g>
			<g>
				<g>
					<path class="st8" d="M77.9,117.2h-8.1c-1,0-1.8-0.8-1.8-1.8s0.8-1.8,1.8-1.8h8.1c1,0,1.8,0.8,1.8,1.8S78.9,117.2,77.9,117.2z"
						/>
				</g>
				<g>
					<path class="st8" d="M123.3,117.2h-8.1c-1,0-1.8-0.8-1.8-1.8s0.8-1.8,1.8-1.8h8.1c1,0,1.8,0.8,1.8,1.8S124.3,117.2,123.3,117.2
						z"/>
				</g>
			</g>
			<g>
				<g>
					<path class="st8" d="M80.3,133.5c-0.5,0-0.9-0.2-1.3-0.5c-0.7-0.7-0.7-1.9,0-2.6l3.1-3.1c0.7-0.7,1.9-0.7,2.6,0
						c0.7,0.7,0.7,1.9,0,2.6l-3.1,3.1C81.2,133.3,80.8,133.5,80.3,133.5z"/>
				</g>
				<g>
					<path class="st8" d="M109.8,104c-0.5,0-0.9-0.2-1.3-0.5c-0.7-0.7-0.7-1.9,0-2.6l3.3-3.3c0.7-0.7,1.9-0.7,2.6,0
						c0.7,0.7,0.7,1.9,0,2.6l-3.3,3.3C110.7,103.8,110.2,104,109.8,104z"/>
				</g>
			</g>
		</g>
	</g>
</g>
</svg>
